Merriweather-TextSemiCndBold.ufo
<glyph name="exclam" format="2">
  <advance width="532.673226599992"/>
  <unicode hex="0021"/>
  <outline>
    <contour>
      <point x="416.845666814534" y="1784.9723756906078" type="line"/>
      <point x="101.87925958785337" y="1784.9723756906078" type="line"/>
      <point x="185.61938944227126" y="489.70052828971245" type="line"/>
      <point x="335.9928620397629" y="489.70052828971245" type="line"/>
    </contour>
    <contour>
      <point x="104.81449368875268" y="129.68843005202243" type="curve" smooth="yes"/>
      <point x="104.81449368875268" y="41.6721780860588"/>
      <point x="177.0944065814413" y="-17.65745856353591"/>
      <point x="252.79497519861275" y="-17.65745856353591" type="curve" smooth="yes"/>
      <point x="355.67738032826554" y="-17.65745856353591"/>
      <point x="432.19599145057873" y="42.772835423639954"/>
      <point x="432.19599145057873" y="145.64112594265436" type="curve" smooth="yes"/>
      <point x="432.19599145057873" y="221.8218736137436"/>
      <point x="378.21377585998306" y="293.589264830423"/>
      <point x="279.1467516231802" y="293.589264830423" type="curve" smooth="yes"/>
      <point x="185.19397507763034" y="293.589264830423"/>
      <point x="104.81449368875268" y="226.47820300842844"/>
    </contour>
  </outline>
</glyph>
<glyph name="quotedbl" format="2">
  <advance width="1211.863814171069"/>
  <unicode hex="0022"/>
  <outline>
    <contour>
      <point x="476.6580634754204" y="1671.5027624309391" type="line"/>
      <point x="223.20312941081582" y="1671.5027624309391" type="line"/>
      <point x="274.40440375851915" y="888.6043069726177" type="line"/>
      <point x="423.45678912771706" y="888.6043069726177" type="line"/>
    </contour>
    <contour>
      <point x="989.9213211275559" y="1671.5027624309391" type="line"/>
      <point x="736.512763640763" y="1671.5027624309391" type="line"/>
      <point x="787.6676614106545" y="888.6043069726177" type="line"/>
      <point x="936.7664233576643" y="888.6043069726177" type="line"/>
    </contour>
  </outline>
</glyph>
<glyph name="numbersign" format="2">
  <advance width="1391.3814574343671"/>
  <unicode hex="0023"/>
  <outline>
    <contour>
      <point x="363.2999556397951" y="413.0" type="line"/>
      <point x="299.2999556397951" y="0.0" type="line"/>
      <point x="408.9057950558535" y="0.0" type="line"/>
      <point x="473.9057950558535" y="413.0" type="line"/>
      <point x="796.4756623785136" y="413.0" type="line"/>
      <point x="733.4756623785136" y="0.0" type="line"/>
      <point x="843.0815017945719" y="0.0" type="line"/>
      <point x="906.0815017945719" y="413.0" type="line"/>
      <point x="1168.556639916119" y="413.0" type="line"/>
      <point x="1193.7942089768924" y="596.6629834254144" type="line"/>
      <point x="935.3190708553453" y="596.6629834254144" type="line"/>
      <point x="991.120175827721" y="926.3370165745856" type="line"/>
      <point x="1239.3190708553454" y="926.3370165745856" type="line"/>
      <point x="1264.556639916119" y="1108.0" type="line"/>
      <point x="1017.0815017945719" y="1108.0" type="line"/>
      <point x="1087.081501794572" y="1539.0" type="line"/>
      <point x="976.4756623785136" y="1539.0" type="line"/>
      <point x="906.4756623785136" y="1108.0" type="line"/>
      <point x="584.9057950558536" y="1108.0" type="line"/>
      <point x="652.9057950558536" y="1539.0" type="line"/>
      <point x="543.2999556397951" y="1539.0" type="line"/>
      <point x="475.2999556397951" y="1108.0" type="line"/>
      <point x="221.82481751824818" y="1108.0" type="line"/>
      <point x="196.58724845747471" y="926.3370165745856" type="line"/>
      <point x="447.0623865790216" y="926.3370165745856" type="line"/>
      <point x="393.70879541880066" y="596.6629834254144" type="line"/>
      <point x="152.06238657902165" y="596.6629834254144" type="line"/>
      <point x="126.82481751824818" y="413.0" type="line"/>
    </contour>
    <contour>
      <point x="825.713231439287" y="596.6629834254144" type="line"/>
      <point x="502.3146348348591" y="596.6629834254144" type="line"/>
      <point x="557.6682259950801" y="926.3370165745856" type="line"/>
      <point x="880.5143364116627" y="926.3370165745856" type="line"/>
    </contour>
  </outline>
</glyph>
<glyph name="dollar" format="2">
  <advance width="1279.054724361818"/>
  <unicode hex="0024"/>
  <outline>
    <contour>
      <point x="143.15352663628664" y="65.82872928176795" type="line"/>
      <point x="196.28801871194094" y="49.005121587288784"/>
      <point x="342.6032584586845" y="-8.985199822559181"/>
      <point x="521.3481469532604" y="-20.729039803202" type="curve"/>
      <point x="519.5911602209944" y="-252.972053070936" type="line"/>
      <point x="663.2404323103601" y="-252.972053070936" type="line"/>
      <point x="664.165302254305" y="-17.834012178892607" type="line"/>
      <point x="941.5138121546961" y="12.340484736056782"/>
      <point x="1062.1928055813205" y="199.49582610799695"/>
      <point x="1062.1928055813205" y="395.4536435859177" type="curve" smooth="yes"/>
      <point x="1062.1928055813205" y="634.076541517119"/>
      <point x="885.2459168447797" y="752.4965520022583"/>
      <point x="722.1947816268097" y="852.6581441303384" type="curve" smooth="yes"/>
      <point x="583.5715207484776" y="938.9197080291972"/>
      <point x="426.26720974311405" y="1027.1720772674114"/>
      <point x="426.26720974311405" y="1193.1173932330526" type="curve" smooth="yes"/>
      <point x="426.26720974311405" y="1305.3071742549503"/>
      <point x="496.263620599266" y="1393.3028188893818"/>
      <point x="625.7453724240836" y="1393.5326854054927" type="curve" smooth="yes"/>
      <point x="695.257571480421" y="1393.855305077227"/>
      <point x="752.7585595031658" y="1368.7494051699803"/>
      <point x="778.664757833609" y="1338.5989837480342" type="curve"/>
      <point x="817.7998548211477" y="1101.5937411783684" type="line"/>
      <point x="972.432592652337" y="1101.5937411783684" type="line"/>
      <point x="984.5811993386296" y="1430.342541436464" type="line"/>
      <point x="939.0878735330887" y="1446.0611767552525"/>
      <point x="806.7522684195668" y="1492.0237125458725"/>
      <point x="673.0241964753801" y="1502.243013267734" type="curve"/>
      <point x="673.0241964753801" y="1722.187119409606" type="line"/>
      <point x="527.9405573254829" y="1722.187119409606" type="line"/>
      <point x="527.9405573254829" y="1500.2561600193571" type="line"/>
      <point x="279.8824051296528" y="1467.9373311287657"/>
      <point x="151.60838004597332" y="1318.8252611202968"/>
      <point x="151.60838004597332" y="1109.1889744727184" type="curve" smooth="yes"/>
      <point x="151.60838004597332" y="865.3031818365125"/>
      <point x="322.61854256563294" y="751.9883453643586"/>
      <point x="469.9935879340243" y="659.3584304552969" type="curve" smooth="yes"/>
      <point x="658.6395128442957" y="539.442150260112"/>
      <point x="775.7439206355608" y="475.40057264991736"/>
      <point x="775.7439206355608" y="313.3088680082268" type="curve" smooth="yes"/>
      <point x="775.7439206355608" y="195.44210993265318"/>
      <point x="713.1642940678307" y="93.4068234060572"/>
      <point x="552.6534661450982" y="93.4068234060572" type="curve" smooth="yes"/>
      <point x="463.5943460902529" y="93.4068234060572"/>
      <point x="391.9435818849054" y="124.6822599508005"/>
      <point x="362.4455780941243" y="164.721740533129" type="curve"/>
      <point x="318.9147880792031" y="422.5388555067145" type="line"/>
      <point x="159.2968504254547" y="422.5388555067145" type="line"/>
    </contour>
  </outline>
</glyph>
<glyph name="percent" format="2">
  <advance width="1893.552808807517"/>
  <unicode hex="0025"/>
  <outline>
    <contour>
      <point x="579.1580836391498" y="0.0" type="line"/>
      <point x="742.3775456708473" y="0.0" type="line"/>
      <point x="1310.431221518732" y="1502.0" type="line"/>
      <point x="1147.7798524015002" y="1501.9536234221882" type="line"/>
    </contour>
    <contour>
      <point x="418.4649756018873" y="630.6762108319554" type="curve" smooth="yes"/>
      <point x="620.729080130661" y="630.6762108319554"/>
      <point x="790.1334838891802" y="782.8255030850506"/>
      <point x="790.1334838891802" y="1063.629350324636" type="curve" smooth="yes"/>
      <point x="790.1334838891802" y="1297.4899382989877"/>
      <point x="699.949026091866" y="1486.511594144453"/>
      <point x="450.64152921724406" y="1486.511594144453" type="curve" smooth="yes"/>
      <point x="241.5933379037787" y="1486.511594144453"/>
      <point x="77.27721095293785" y="1329.2740250836796"/>
      <point x="77.27721095293785" y="1050.7788038875672" type="curve" smooth="yes"/>
      <point x="77.27721095293785" y="823.2031697382748"/>
      <point x="194.8242932612816" y="630.6762108319554"/>
    </contour>
    <contour>
      <point x="433.5645037706174" y="739.2433762148647" type="curve" smooth="yes"/>
      <point x="336.3162882606767" y="739.2433762148647"/>
      <point x="304.80211315884986" y="895.894382384966"/>
      <point x="304.80211315884986" y="1060.5802718070734" type="curve" smooth="yes"/>
      <point x="304.80211315884986" y="1253.508085655523"/>
      <point x="340.08210670645644" y="1376.9829414848568"/>
      <point x="438.18344961084006" y="1376.9829414848568" type="curve" smooth="yes"/>
      <point x="536.6307617856999" y="1376.9829414848568"/>
      <point x="565.8960761382426" y="1232.7794087994516"/>
      <point x="565.8960761382426" y="1054.7788038875672" type="curve" smooth="yes"/>
      <point x="565.8960761382426" y="863.6752429729403"/>
      <point x="532.9454772754768" y="739.2433762148647"/>
    </contour>
    <contour>
      <point x="1444.653466145098" y="28.429810057668266" type="curve" smooth="yes"/>
      <point x="1646.4114610638383" y="28.429810057668266"/>
      <point x="1816.275597854579" y="180.5791023107634"/>
      <point x="1816.275597854579" y="461.3829495503488" type="curve" smooth="yes"/>
      <point x="1816.275597854579" y="694.6003145541798"/>
      <point x="1726.0911400572652" y="884.2651933701658"/>
      <point x="1476.783643182643" y="884.2651933701658" type="curve" smooth="yes"/>
      <point x="1267.7354518691775" y="884.2651933701658"/>
      <point x="1103.4193249183368" y="727.0276243093923"/>
      <point x="1103.4193249183368" y="448.5324031132798" type="curve" smooth="yes"/>
      <point x="1103.4193249183368" y="220.63414929225308"/>
      <point x="1221.0127838044925" y="28.429810057668266"/>
    </contour>
    <contour>
      <point x="1459.2468847037949" y="136.9969754405775" type="curve" smooth="yes"/>
      <point x="1362.6882687421864" y="136.9969754405775"/>
      <point x="1330.7143606081381" y="293.64798161067876"/>
      <point x="1330.7143606081381" y="458.79360406500786" type="curve" smooth="yes"/>
      <point x="1330.7143606081381" y="651.0318183651248"/>
      <point x="1365.764487639634" y="774.7365407105699"/>
      <point x="1464.5554300923498" y="774.7365407105699" type="curve" smooth="yes"/>
      <point x="1563.0027422672097" y="774.7365407105699"/>
      <point x="1592.2680566197523" y="630.1196515707545"/>
      <point x="1592.2680566197523" y="452.5324031132798" type="curve" smooth="yes"/>
      <point x="1592.2680566197523" y="261.19897568254225"/>
      <point x="1558.857724724765" y="136.9969754405775"/>
    </contour>
  </outline>
</glyph>
<glyph name="ampersand" format="2">
  <advance width="1382.081421139654"/>
  <unicode hex="0026"/>
  <outline>
    <contour>
      <point x="1361.5290962616446" y="821.172561196919" type="line"/>
      <point x="944.0950114933258" y="821.172561196919" type="line"/>
      <point x="944.0950114933258" y="699.6474573537122" type="line"/>
      <point x="1063.449368875267" y="671.7905795055854" type="line"/>
      <point x="1068.850667419446" y="563.691414283986"/>
      <point x="1047.8740573456466" y="436.86445941041256"/>
      <point x="985.7441626003147" y="347.3518974069444" type="curve"/>
      <point x="882.1369117231923" y="462.33229826188654"/>
      <point x="798.0854538855506" y="576.4566278178811"/>
      <point x="653.2426099931444" y="776.3410493204824" type="curve"/>
      <point x="858.7189176110013" y="887.0577892486994"/>
      <point x="971.318385288543" y="1012.0829132556357"/>
      <point x="971.318385288543" y="1191.792071621567" type="curve" smooth="yes"/>
      <point x="971.318385288543" y="1371.188369560834"/>
      <point x="856.21740533129" y="1504.7237569060774"/>
      <point x="626.239343468968" y="1504.7237569060774" type="curve" smooth="yes"/>
      <point x="367.57281122716455" y="1504.7237569060774"/>
      <point x="202.84171472355524" y="1338.9137798927288"/>
      <point x="202.84171472355524" y="1127.3445981368714" type="curve" smooth="yes"/>
      <point x="202.84171472355524" y="976.0957777150462"/>
      <point x="285.38173972657984" y="848.0184296487478"/>
      <point x="365.75759164415047" y="731.4650159293462" type="curve"/>
      <point x="187.3243134250111" y="663.1371133604872"/>
      <point x="55.961003347179094" y="536.9876194700971"/>
      <point x="55.961003347179094" y="351.2240996894786" type="curve" smooth="yes"/>
      <point x="55.961003347179094" y="126.16945598257854"/>
      <point x="243.8258660321813" y="-20.34254143646409"/>
      <point x="537.3752873331451" y="-20.34254143646409" type="curve" smooth="yes"/>
      <point x="687.1155381699399" y="-20.34254143646409"/>
      <point x="809.459289430173" y="20.062628543775457"/>
      <point x="891.8093317740049" y="97.90393999274104" type="curve"/>
      <point x="978.571077146429" y="25.515223615759968"/>
      <point x="1052.411985320805" y="-13.493890389966529"/>
      <point x="1158.6155986611284" y="-13.493890389966529" type="curve" smooth="yes"/>
      <point x="1222.1574787272655" y="-13.493890389966529"/>
      <point x="1305.4427954994558" y="-0.024438440133886907"/>
      <point x="1325.9714481590515" y="15.408839779005525" type="curve"/>
      <point x="1325.9714481590515" y="115.52147437189981" type="line"/>
      <point x="1236.4242851957897" y="122.53341129975401"/>
      <point x="1135.223696414889" y="197.8138484494092"/>
      <point x="1070.6033794410614" y="265.36746380610555" type="curve"/>
      <point x="1148.5520022583378" y="342.2589022865669"/>
      <point x="1229.9215630923095" y="495.33052385369194"/>
      <point x="1237.3388313102391" y="671.7905795055854" type="curve"/>
      <point x="1361.5290962616446" y="699.6474573537122" type="line"/>
    </contour>
    <contour>
      <point x="460.1959107956607" y="1187.3661733274187" type="curve" smooth="yes"/>
      <point x="460.1959107956607" y="1322.107875952736"/>
      <point x="516.0525063515748" y="1411.5582126870186"/>
      <point x="610.9917328709118" y="1411.5582126870186" type="curve" smooth="yes"/>
      <point x="715.6157196435054" y="1411.5582126870186"/>
      <point x="745.8689357583579" y="1299.521434044441"/>
      <point x="745.8689357583579" y="1192.6959712868493" type="curve" smooth="yes"/>
      <point x="745.8689357583579" y="1069.762793886357"/>
      <point x="707.449570512562" y="952.9000685566803"/>
      <point x="595.0732749929427" y="853.8970439972577" type="curve"/>
      <point x="532.0710569826996" y="940.1375569625358"/>
      <point x="460.1959107956607" y="1042.6664919143445"/>
    </contour>
    <contour>
      <point x="597.0679517683591" y="105.34681614711458" type="curve" smooth="yes"/>
      <point x="409.72666048312294" y="105.71782876960923"/>
      <point x="302.0956567326693" y="237.934387224261"/>
      <point x="302.0956567326693" y="397.8607089567286" type="curve" smooth="yes"/>
      <point x="302.0956567326693" y="512.6512078073961"/>
      <point x="357.60491188450214" y="596.828729281768"/>
      <point x="425.1515102633383" y="650.669556801226" type="curve"/>
      <point x="537.8570794854215" y="491.14743718998267"/>
      <point x="671.3099971770779" y="291.3461305803121"/>
      <point x="799.7172641851837" y="171.94257369843126" type="curve"/>
      <point x="747.0483122958423" y="132.7092390208493"/>
      <point x="681.859176513288" y="105.16130983586724"/>
    </contour>
  </outline>
</glyph>
<glyph name="quotesingle" format="2">
  <advance width="673.1966770173811"/>
  <unicode hex="0027"/>
  <outline>
    <contour>
      <point x="463.3258055409929" y="1671.5027624309391" type="line"/>
      <point x="209.8708714763883" y="1671.5027624309391" type="line"/>
      <point x="261.07214582409165" y="888.6043069726177" type="line"/>
      <point x="410.1245311932895" y="888.6043069726177" type="line"/>
    </contour>
  </outline>
</glyph>
<glyph name="parenright" format="2">
  <advance width="860.346332217607"/>
  <unicode hex="0029"/>
  <outline>
    <contour>
      <point x="749.6028148566359" y="621.6642335766423" type="curve" smooth="yes"/>
      <point x="749.6028148566359" y="1328.449570512562"/>
      <point x="318.452030487559" y="1612.2058313505665"/>
      <point x="228.44275517199662" y="1666.6918578860345" type="curve"/>
      <point x="136.76009194660645" y="1596.6325361938943" type="line"/>
      <point x="236.2042182522079" y="1523.6010001209822"/>
      <point x="505.6937532766061" y="1197.370609347905"/>
      <point x="491.30576279388634" y="592.1780457313384" type="curve"/>
      <point x="479.1808686534661" y="38.89155946283825"/>
      <point x="225.54788885752308" y="-247.23498810339962"/>
      <point x="137.4761463080211" y="-306.0952534580796" type="curve"/>
      <point x="228.07823527039562" y="-375.3633907327499" type="line"/>
      <point x="333.63023752873335" y="-313.7287575109892"/>
      <point x="749.6028148566359" y="14.459007137960235"/>
    </contour>
  </outline>
</glyph>
<glyph name="asterisk" format="2">
  <advance width="1249.0279066016049"/>
  <unicode hex="002A"/>
  <outline>
    <contour>
      <point x="322.93983143122153" y="1094.273460499254" type="line"/>
      <point x="125.48550227850143" y="996.7907408154213" type="line"/>
      <point x="234.80255676089848" y="812.0990039117636" type="line"/>
      <point x="414.6213654877606" y="942.9995967254104" type="line"/>
      <point x="588.9264023873856" y="1108.9716901238053" type="line"/>
      <point x="538.1125136105175" y="877.2906399967738" type="line"/>
      <point x="520.9333387103278" y="652.2299471710287" type="line"/>
      <point x="741.3488325200628" y="652.6896802032503" type="line"/>
      <point x="717.4932048231641" y="877.7015364761867" type="line"/>
      <point x="656.8194136387466" y="1107.1649393071743" type="line"/>
      <point x="839.4230753720208" y="946.6227366213654" type="line"/>
      <point x="1015.5996289873776" y="819.308787353309" type="line"/>
      <point x="1127.3256845586159" y="1009.7379924990927" type="line"/>
      <point x="927.1222325281283" y="1100.8126386256401" type="line"/>
      <point x="691.608541355809" y="1166.2322055087309" type="line"/>
      <point x="926.8328426825825" y="1237.3246763721418" type="line"/>
      <point x="1122.02068798645" y="1334.9499132959631" type="line"/>
      <point x="1012.5611162640644" y="1518.5796668951891" type="line"/>
      <point x="829.873573416139" y="1388.2813243537526" type="line"/>
      <point x="656.7730370609348" y="1224.5757148042103" type="line"/>
      <point x="708.648909142235" y="1454.4500141146107" type="line"/>
      <point x="727.4923176190667" y="1677.3867403314916" type="line"/>
      <point x="505.41259023268947" y="1677.3867403314916" type="line"/>
      <point x="528.8084848973667" y="1450.5681332419242" type="line"/>
      <point x="589.3397588417954" y="1221.1047304109368" type="line"/>
      <point x="410.34959874178327" y="1382.8514336411663" type="line"/>
      <point x="228.29305964431182" y="1510.7676331814332" type="line"/>
      <point x="121.70222204298908" y="1325.4736460055651" type="line"/>
      <point x="322.65044158567565" y="1232.877283542364" type="line"/>
      <point x="554.5506311247328" y="1166.1106988748638" type="line"/>
    </contour>
  </outline>
</glyph>
<glyph name="plus" format="2">
  <advance width="1251.4095656732668"/>
  <unicode hex="002B"/>
  <outline>
    <contour>
      <point x="355.04290841634065" y="713.5569222083317" type="line"/>
      <point x="176.41742952776545" y="713.5569222083317" type="line"/>
      <point x="176.41742952776545" y="541.5592612009517" type="line"/>
      <point x="355.04290841634065" y="541.5592612009517" type="line"/>
      <point x="544.9158365931363" y="547.7564624752994" type="line"/>
      <point x="539.9231358632093" y="382.93285478082026" type="line"/>
      <point x="539.9231358632093" y="157.59470903738355" type="line"/>
      <point x="710.7162963261685" y="157.59470903738355" type="line"/>
      <point x="710.7162963261685" y="382.93285478082026" type="line"/>
      <point x="703.4571117473887" y="547.7564624752994" type="line"/>
      <point x="867.2861233213696" y="541.5592612009517" type="line"/>
      <point x="1074.9921361455015" y="541.5592612009517" type="line"/>
      <point x="1074.9921361455015" y="713.5569222083317" type="line"/>
      <point x="867.2861233213696" y="713.5569222083317" type="line"/>
      <point x="703.4571117473887" y="704.0312537806993" type="line"/>
      <point x="710.7162963261685" y="872.3218937774731" type="line"/>
      <point x="710.7162963261685" y="1100.5947090373834" type="line"/>
      <point x="539.9231358632093" y="1100.5947090373834" type="line"/>
      <point x="539.9231358632093" y="872.3218937774731" type="line"/>
      <point x="544.9158365931363" y="704.0312537806993" type="line"/>
    </contour>
  </outline>
</glyph>
<glyph name="comma" format="2">
  <advance width="633.3835544622334"/>
  <unicode hex="002C"/>
  <outline>
    <contour>
      <point x="322.3458482880994" y="328.4719522522886" type="curve"/>
      <point x="311.90809372101467" y="328.4719522522886" type="line" smooth="yes"/>
      <point x="229.90894059765296" y="328.4719522522886"/>
      <point x="170.00032261967175" y="275.2848328426826"/>
      <point x="170.00032261967175" y="191.70823083437512" type="curve" smooth="yes"/>
      <point x="170.00032261967175" y="52.95124410210913"/>
      <point x="286.1697786022503" y="51.52929789893939"/>
      <point x="286.1697786022503" y="-49.44642497076259" type="curve" smooth="yes"/>
      <point x="286.1697786022503" y="-172.9832237770698"/>
      <point x="224.55276848005806" y="-334.11469129330163"/>
      <point x="163.42956809291445" y="-389.121466306408" type="curve"/>
      <point x="163.42956809291445" y="-414.47638827277495" type="line"/>
      <point x="240.45961204984476" y="-466.4643706900028" type="line"/>
      <point x="242.41323547203294" y="-466.3428640561358" type="line"/>
      <point x="349.0529096261645" y="-407.3861757470662"/>
      <point x="497.3759728999476" y="-176.24035165544217"/>
      <point x="497.3759728999476" y="69.93922651933701" type="curve" smooth="yes"/>
      <point x="497.3759728999476" y="221.84328749445498"/>
      <point x="417.8123966608864" y="328.4719522522886"/>
    </contour>
  </outline>
</glyph>
<glyph name="hyphen" format="2">
  <advance width="1120.2460378271564"/>
  <unicode hex="002D"/>
  <outline>
    <contour>
      <point x="943.8286082993911" y="714.1889744727184" type="line"/>
      <point x="176.41742952776545" y="714.1889744727184" type="line"/>
      <point x="176.41742952776545" y="544.4899786264467" type="line"/>
      <point x="943.8286082993911" y="544.4899786264467" type="line"/>
    </contour>
  </outline>
</glyph>
<glyph name="period" format="2">
  <advance width="553.506674194459"/>
  <unicode hex="002E"/>
  <outline>
    <contour>
      <point x="262.40617816671374" y="-17.65745856353591" type="curve" smooth="yes"/>
      <point x="363.88837359357984" y="-17.65745856353591"/>
      <point x="439.8257450498044" y="43.834818728071944"/>
      <point x="439.8257450498044" y="146.70310924708636" type="curve" smooth="yes"/>
      <point x="439.8257450498044" y="223.48610719038595"/>
      <point x="386.3032624914304" y="296.31548171149734"/>
      <point x="288.7579545912812" y="296.31548171149734" type="curve" smooth="yes"/>
      <point x="194.3454450135097" y="296.31548171149734"/>
      <point x="114.28317941686494" y="228.60216961729242"/>
      <point x="114.28317941686494" y="131.35266362866474" type="curve" smooth="yes"/>
      <point x="114.28317941686494" y="43.33641166270113"/>
      <point x="185.04137597289994" y="-17.65745856353591"/>
    </contour>
  </outline>
</glyph>
<glyph name="slash" format="2">
  <advance width="782.444610235109"/>
  <unicode hex="002F"/>
  <outline>
    <contour>
      <point x="724.696172924144" y="1562.0" type="line"/>
      <point x="541.4136387466226" y="1562.0" type="line"/>
      <point x="57.74843731096504" y="-354.0" type="line"/>
      <point x="242.4784853006412" y="-354.0" type="line"/>
    </contour>
  </outline>
</glyph>
<glyph name="zero" format="2">
  <advance width="1194.8514336411663"/>
  <unicode hex="0030"/>
  <outline>
    <contour>
      <point x="574.6752833003993" y="-20.171270718232044" type="curve" smooth="yes"/>
      <point x="903.403355244586" y="-20.171270718232044"/>
      <point x="1118.3274589668106" y="245.0928338105416"/>
      <point x="1118.833568576844" y="757.4299713675041" type="curve" smooth="yes"/>
      <point x="1119.3860547646893" y="1232.6179779812073"/>
      <point x="936.0654111384442" y="1504.7237569060774"/>
      <point x="622.4612251482033" y="1504.7237569060774" type="curve" smooth="yes"/>
      <point x="307.83796426987135" y="1504.7237569060774"/>
      <point x="76.64548130822277" y="1250.5702302697907"/>
      <point x="76.0178650643223" y="734.2828567971932" type="curve" smooth="yes"/>
      <point x="75.34387224261" y="264.5810380287938"/>
      <point x="258.7871516715732" y="-20.171270718232044"/>
    </contour>
    <contour>
      <point x="596.5647054079124" y="89.11594144452958" type="curve" smooth="yes"/>
      <point x="446.3980320200024" y="89.11594144452958"/>
      <point x="393.2630963422995" y="286.1473968625237"/>
      <point x="393.2630963422995" y="749.7634391257006" type="curve" smooth="yes"/>
      <point x="393.2630963422995" y="1238.6009597935233"/>
      <point x="454.38831310239146" y="1396.0335121184014"/>
      <point x="601.9387425898294" y="1396.0335121184014" type="curve" smooth="yes"/>
      <point x="749.0513368552648" y="1396.0335121184014"/>
      <point x="801.5883372988668" y="1233.4383191515103"/>
      <point x="801.5883372988668" y="729.4025083679477" type="curve" smooth="yes"/>
      <point x="801.5883372988668" y="269.2168810743235"/>
      <point x="763.2422873734727" y="89.11594144452958"/>
    </contour>
  </outline>
</glyph>
<glyph name="one" format="2">
  <advance width="851.2436585070775"/>
  <unicode hex="0031"/>
  <outline>
    <contour>
      <point x="317.8655482518047" y="125.6396338266726" type="line"/>
      <point x="106.38379642698713" y="103.14336411662703" type="line"/>
      <point x="106.38379642698713" y="0.0" type="line"/>
      <point x="795.1947009718917" y="0.0" type="line"/>
      <point x="795.1947009718917" y="103.14336411662703" type="line"/>
      <point x="602.3532282130903" y="126.84413437109328" type="line"/>
      <point x="602.3532282130903" y="1485.3260071782877" type="line"/>
      <point x="460.9993144331976" y="1505.9335403476227" type="line"/>
      <point x="457.2982215590596" y="1505.9335403476227" type="line"/>
      <point x="375.4646529822156" y="1423.2585393394363"/>
      <point x="206.24930435133282" y="1335.4798564342461"/>
      <point x="63.994313828285684" y="1304.8670403677863" type="curve"/>
      <point x="87.52147437189983" y="1175.7436383433478" type="line"/>
      <point x="149.28269548735736" y="1183.0783159253137"/>
      <point x="274.12134532403115" y="1213.8743799653184"/>
      <point x="317.7551719966125" y="1233.3020123402025" type="curve"/>
    </contour>
  </outline>
</glyph>
<glyph name="two" format="2">
  <advance width="1031.2842279307981"/>
  <unicode hex="0032"/>
  <outline>
    <contour>
      <point x="12.363673024962697" y="108.76856071298948" type="curve"/>
      <point x="55.27696898818406" y="0.0" type="line"/>
      <point x="920.1413074162197" y="0.0" type="line"/>
      <point x="974.0388353429851" y="351.0053635520426" type="line"/>
      <point x="865.5611565915233" y="374.3439932249869" type="line"/>
      <point x="793.0055248618785" y="210.66145098197362" type="line"/>
      <point x="256.88305036899624" y="156.12396660886398" type="line"/>
      <point x="598.9165624873976" y="376.7443642376094"/>
      <point x="931.6533451627214" y="758.6337460176635"/>
      <point x="931.6533451627214" y="1085.03629471307" type="curve" smooth="yes"/>
      <point x="931.6533451627214" y="1322.3526233012058"/>
      <point x="775.7552526515304" y="1503.4475138121547"/>
      <point x="493.37064967536395" y="1503.4475138121547" type="curve" smooth="yes"/>
      <point x="272.20131467516234" y="1503.4475138121547"/>
      <point x="112.51732064362625" y="1374.5568415534137"/>
      <point x="33.92003064886882" y="1250.0854135580917" type="curve"/>
      <point x="112.6529822155906" y="1158.3599628987376" type="line"/>
      <point x="179.54651772391824" y="1234.5707545267574"/>
      <point x="262.5813203210066" y="1311.4098882929386"/>
      <point x="403.00842843892406" y="1311.4098882929386" type="curve" smooth="yes"/>
      <point x="543.6831874823567" y="1311.4098882929386"/>
      <point x="645.6454409807639" y="1214.397507763036"/>
      <point x="645.6454409807639" y="1032.6666532241804" type="curve" smooth="yes"/>
      <point x="645.6454409807639" y="714.7755776908497"/>
      <point x="314.337782796306" y="314.03827075855946"/>
    </contour>
  </outline>
</glyph>
<glyph name="three" format="2">
  <advance width="1014.443521393717"/>
  <unicode hex="0033"/>
  <outline>
    <contour>
      <point x="303.91765132878976" y="-32.63531878856313" type="curve" smooth="yes"/>
      <point x="684.2288583296366" y="-32.95995483324596"/>
      <point x="951.3600435536557" y="177.71867564624753"/>
      <point x="950.2107109731015" y="468.23478646610477" type="curve" smooth="yes"/>
      <point x="949.5211114247692" y="674.4351332822519"/>
      <point x="750.5799491874017" y="802.0853732306326"/>
      <point x="503.3995241359842" y="775.821268701859" type="curve"/>
      <point x="683.6073718594993" y="841.9467274267048"/>
      <point x="881.816510061701" y="974.2708795418802"/>
      <point x="881.816510061701" y="1189.985683752067" type="curve" smooth="yes"/>
      <point x="881.816510061701" y="1407.0552082913257"/>
      <point x="692.8911965157076" y="1502.8452635399444"/>
      <point x="478.13562124450533" y="1502.8452635399444" type="curve" smooth="yes"/>
      <point x="299.2979795943058" y="1502.8452635399444"/>
      <point x="115.14413033834738" y="1405.0506512884622"/>
      <point x="48.82017986046699" y="1332.8088881719561" type="curve"/>
      <point x="110.12533774246884" y="1225.2697907004879" type="line"/>
      <point x="165.0427471065048" y="1277.8721619550754"/>
      <point x="270.51574787272654" y="1331.4424325523248"/>
      <point x="381.32903173771024" y="1331.5351857079484" type="curve" smooth="yes"/>
      <point x="482.7964673145945" y="1331.6279388635724"/>
      <point x="582.110739202323" y="1278.7985643424608"/>
      <point x="582.2532564423116" y="1142.1523571399766" type="curve" smooth="yes"/>
      <point x="582.3957736823004" y="1002.6770577085937"/>
      <point x="500.2585796668952" y="909.8825664394886"/>
      <point x="365.8586925837803" y="845.0735169576966" type="curve" smooth="yes"/>
      <point x="321.9884260192765" y="823.8378029600356"/>
      <point x="275.95366374964715" y="806.7625519216035"/>
      <point x="223.07513005605517" y="796.5770456103561" type="curve"/>
      <point x="256.98757914263825" y="683.8063878695003" type="line"/>
      <point x="282.62011533653265" y="690.4525547445256"/>
      <point x="338.65576481025926" y="707.923579465258"/>
      <point x="365.5410735169577" y="715.2437391619954" type="curve"/>
      <point x="543.1997015768036" y="707.9672137758599"/>
      <point x="631.583336693955" y="609.5610356091463"/>
      <point x="631.6297132717667" y="444.5633746017663" type="curve" smooth="yes"/>
      <point x="631.7224664273904" y="246.747267814655"/>
      <point x="483.70512562003466" y="106.93902488204219"/>
      <point x="242.4271081179175" y="107.17090777110135" type="curve" smooth="yes"/>
      <point x="175.12432955599468" y="107.21728434891318"/>
      <point x="121.41847804169859" y="115.97721498568374"/>
      <point x="69.41408234867122" y="133.84711860305683" type="curve"/>
      <point x="67.83449610840022" y="2.9814493688752677" type="line"/>
      <point x="118.77481146912933" y="-16.06420131467516"/>
      <point x="220.44698955518814" y="-32.5889422107513"/>
    </contour>
  </outline>
</glyph>
<glyph name="four" format="2">
  <advance width="1170.9145057869903"/>
  <unicode hex="0034"/>
  <outline>
    <contour>
      <point x="686.110497237569" y="0.0" type="line"/>
      <point x="935.446062023632" y="0.0" type="line"/>
      <point x="935.446062023632" y="294.7560995281687" type="line"/>
      <point x="1135.314917127072" y="294.7560995281687" type="line"/>
      <point x="1135.26854054926" y="489.4357381941364" type="line"/>
      <point x="935.1566721780861" y="475.6611283623019" type="line"/>
      <point x="935.3245553897649" y="851.8064685244183" type="line"/>
      <point x="710.5691817558576" y="833.5198209460822" type="line"/>
      <point x="687.9923781102553" y="457.9436625398234" type="line"/>
      <point x="261.6044279549946" y="426.5349840706537" type="line"/>
      <point x="378.94471105375646" y="588.869943944832" type="line"/>
      <point x="789.7288381659073" y="1378.9844336008387" type="line"/>
      <point x="567.0949308384079" y="1496.8563535911603" type="line"/>
      <point x="504.62616445537765" y="1496.8563535911603" type="line"/>
      <point x="397.68230027825945" y="1199.646449167238"/>
      <point x="185.5543009234988" y="707.5425253054805"/>
      <point x="39.928943017300476" y="405.6768963987579" type="curve"/>
      <point x="106.23119732225672" y="294.7560995281687" type="line"/>
      <point x="686.110497237569" y="294.7560995281687" type="line"/>
    </contour>
  </outline>
</glyph>
<glyph name="five" format="2">
  <advance width="1063.4513852482157"/>
  <unicode hex="0035"/>
  <outline>
    <contour>
      <point x="111.98733717788441" y="103.50368996249547" type="curve"/>
      <point x="112.20159696737508" y="-13.351252167600919" type="line"/>
      <point x="157.85994273500825" y="-27.97802153486309"/>
      <point x="213.96249546316088" y="-30.950074605799088"/>
      <point x="256.7579545912812" y="-30.58555470419809" type="curve" smooth="yes"/>
      <point x="664.6780658950679" y="-29.00596846392709"/>
      <point x="969.3942009114006" y="203.01766342702746"/>
      <point x="969.3942009114006" y="547.5769649554381" type="curve" smooth="yes"/>
      <point x="969.3942009114006" y="789.6790740815421"/>
      <point x="834.8042505141751" y="938.809170464169"/>
      <point x="578.8394160583942" y="938.809170464169" type="curve" smooth="yes"/>
      <point x="439.71936121305" y="938.809170464169"/>
      <point x="335.9844336008388" y="879.833487921926"/>
      <point x="277.39303141509055" y="835.6036214058153" type="curve"/>
      <point x="356.6532241803444" y="1269.1049723756905" type="line"/>
      <point x="892.9339032947535" y="1269.1049723756905" type="line"/>
      <point x="932.298826470944" y="1523.768117110941" type="line"/>
      <point x="812.4732427309756" y="1523.768117110941" type="line"/>
      <point x="793.5763197160948" y="1485.9536234221882" type="line"/>
      <point x="188.68883332661207" y="1485.9536234221882" type="line"/>
      <point x="102.45368391337662" y="746.384038391741" type="line"/>
      <point x="169.439851594951" y="701.3650844860266" type="line"/>
      <point x="229.4031132798322" y="736.1095697060128"/>
      <point x="331.33165302254304" y="765.8510706940356"/>
      <point x="421.33697624712664" y="765.8510706940356" type="curve" smooth="yes"/>
      <point x="579.0302455942251" y="765.8510706940356"/>
      <point x="669.2605557123845" y="678.2650320603299"/>
      <point x="669.2605557123845" y="499.5137314997782" type="curve" smooth="yes"/>
      <point x="669.2605557123845" y="262.1478001371134"/>
      <point x="474.0484736056781" y="97.89168044521514"/>
      <point x="228.3668185667621" y="96.79812074041214" type="curve" smooth="yes"/>
      <point x="189.6487075049401" y="96.31209420494415"/>
      <point x="145.77658587732387" y="99.56825422430134"/>
    </contour>
  </outline>
</glyph>
<glyph name="six" format="2">
  <advance width="1176.6681856676212"/>
  <unicode hex="0036"/>
  <outline>
    <contour>
      <point x="594.618461910715" y="-31.673831511876436" type="curve" smooth="yes"/>
      <point x="915.205347421059" y="-31.720208089688267"/>
      <point x="1101.651207807396" y="203.86816953663748"/>
      <point x="1101.651207807396" y="500.2328910755333" type="curve" smooth="yes"/>
      <point x="1101.651207807396" y="783.8483284268258"/>
      <point x="945.4744928822034" y="952.0897285962012"/>
      <point x="705.0039520909787" y="952.0897285962012" type="curve" smooth="yes"/>
      <point x="575.2392224865911" y="952.0897285962012"/>
      <point x="481.40093559704803" y="892.8044118240109"/>
      <point x="421.7716659273299" y="821.6380207283139" type="curve"/>
      <point x="471.28281646973426" y="1094.0346412872523"/>
      <point x="598.5232891075533" y="1338.8669597128685"/>
      <point x="927.2545469209985" y="1437.0494414646932" type="curve"/>
      <point x="875.628261483244" y="1535.1940557325481" type="line"/>
      <point x="449.7042384159374" y="1476.9773359680607"/>
      <point x="89.70472234544502" y="1090.2278904706213"/>
      <point x="89.70472234544502" y="608.205186111223" type="curve" smooth="yes"/>
      <point x="89.70472234544502" y="240.32858813566156"/>
      <point x="267.9974190426261" y="-31.627454934064605"/>
    </contour>
    <contour>
      <point x="612.2647497681172" y="807.7115376860105" type="curve" smooth="yes"/>
      <point x="737.5946687099246" y="807.6187845303867"/>
      <point x="808.1468322780981" y="683.2466427390409"/>
      <point x="808.1468322780981" y="441.8997862644675" type="curve" smooth="yes"/>
      <point x="808.1468322780981" y="227.75497035931767"/>
      <point x="749.444771544945" y="78.49606807275075"/>
      <point x="608.6007178287697" y="78.49606807275075" type="curve" smooth="yes"/>
      <point x="457.105738597411" y="78.49606807275075"/>
      <point x="390.1575593821833" y="275.0745654716296"/>
      <point x="390.1575593821833" y="538.3285881356616" type="curve" smooth="yes"/>
      <point x="390.1575593821833" y="604.2230108480865"/>
      <point x="392.95644634431585" y="648.6107593660524"/>
      <point x="396.8847037948139" y="686.754446102351" type="curve"/>
      <point x="431.8168326813728" y="736.9517683590757"/>
      <point x="499.99076501189666" y="807.7579142638223"/>
    </contour>
  </outline>
</glyph>
<glyph name="seven" format="2">
  <advance width="1082.4414243658505"/>
  <unicode hex="0037"/>
  <outline>
    <contour>
      <point x="598.8914788079204" y="-0.5524861878453038" type="line"/>
      <point x="1035.8513529862482" y="1420.4087994515467" type="line"/>
      <point x="982.0563374601766" y="1486.0" type="line"/>
      <point x="114.22736621365488" y="1486.0" type="line"/>
      <point x="66.2607573496794" y="1044.2074444489253" type="line"/>
      <point x="200.82989877807802" y="1017.885752308747" type="line"/>
      <point x="305.2732588619591" y="1288.9486228172764" type="line"/>
      <point x="828.4019034560632" y="1305.0600879138606" type="line"/>
      <point x="666.1861515505907" y="904.2113158849861"/>
      <point x="475.3354438036859" y="465.64233576642334"/>
      <point x="270.3918619187805" y="0.0" type="curve"/>
    </contour>
  </outline>
</glyph>
<glyph name="eight" format="2">
  <advance width="1180.515384925596"/>
  <unicode hex="0038"/>
  <outline>
    <contour>
      <point x="86.98100576682663" y="362.6442311569948" type="curve" smooth="yes"/>
      <point x="86.98100576682663" y="100.32056297132716"/>
      <point x="331.64850586764527" y="-20.895027624309392"/>
      <point x="580.2970923902085" y="-20.895027624309392" type="curve" smooth="yes"/>
      <point x="877.5222002661612" y="-20.895027624309392"/>
      <point x="1093.5343791587693" y="149.26749203532685"/>
      <point x="1093.5343791587693" y="392.6070492398274" type="curve" smooth="yes"/>
      <point x="1093.5343791587693" y="591.1084405371618"/>
      <point x="953.1590111707061" y="709.382626930677"/>
      <point x="776.9208775255071" y="811.3786748396984" type="curve"/>
      <point x="941.0744848167117" y="892.7887244424729"/>
      <point x="1031.103197967496" y="1018.3868209864096"/>
      <point x="1031.103197967496" y="1174.6598378836147" type="curve" smooth="yes"/>
      <point x="1031.103197967496" y="1372.193410493205"/>
      <point x="869.4429568092913" y="1505.4475138121547"/>
      <point x="608.4108964794128" y="1505.4475138121547" type="curve" smooth="yes"/>
      <point x="350.5114731620761" y="1505.4475138121547"/>
      <point x="141.49751986127353" y="1352.646328184861"/>
      <point x="141.49751986127353" y="1113.245473242731" type="curve" smooth="yes"/>
      <point x="141.49751986127353" y="933.5243779489455"/>
      <point x="242.8783723837561" y="804.5697463402831"/>
      <point x="376.77073839577366" y="719.4334798564342" type="curve"/>
      <point x="191.04758640158082" y="649.1151348953503"/>
      <point x="86.98100576682663" y="507.25148203411703"/>
    </contour>
    <contour>
      <point x="394.5890228656693" y="1188.9545509537445" type="curve" smooth="yes"/>
      <point x="394.5890228656693" y="1325.4067024236804"/>
      <point x="496.2608380045973" y="1401.8934548534098"/>
      <point x="606.4498124773158" y="1401.8934548534098" type="curve" smooth="yes"/>
      <point x="747.619631407025" y="1401.8934548534098"/>
      <point x="826.8134451748195" y="1300.0249626971004"/>
      <point x="826.8134451748195" y="1135.5528894624351" type="curve" smooth="yes"/>
      <point x="826.8134451748195" y="1024.2895108279229"/>
      <point x="773.051054563052" y="923.6803645602291"/>
      <point x="687.2536193894423" y="862.6792757188371" type="curve"/>
      <point x="533.7522684195669" y="951.3590353671815"/>
      <point x="394.5890228656693" y="1031.7980804129531"/>
    </contour>
    <contour>
      <point x="813.6259628180828" y="325.3650038311086" type="curve" smooth="yes"/>
      <point x="813.6259628180828" y="180.04504577166594"/>
      <point x="705.911319917732" y="88.96660886397548"/>
      <point x="587.9234988103401" y="88.96660886397548" type="curve" smooth="yes"/>
      <point x="413.34524337621485" y="88.96660886397548"/>
      <point x="313.24769125297416" y="221.66798403032627"/>
      <point x="313.24769125297416" y="404.6061217082712" type="curve" smooth="yes"/>
      <point x="313.24769125297416" y="512.4330362543857"/>
      <point x="371.32850748074367" y="615.7535185707949"/>
      <point x="456.08521192079684" y="668.3310481106586" type="curve"/>
      <point x="642.9813283864984" y="565.9042222849538"/>
      <point x="813.6259628180828" y="475.0806952453926"/>
    </contour>
  </outline>
</glyph>
<glyph name="nine" format="2">
  <advance width="1185.7096826228978"/>
  <unicode hex="0039"/>
  <outline>
    <contour>
      <point x="592.6042263176998" y="1505.8120337137557" type="curve" smooth="yes"/>
      <point x="263.9094648546195" y="1505.8120337137557"/>
      <point x="75.01697786022503" y="1260.9478162680969"/>
      <point x="75.01697786022503" y="967.8482074444489" type="curve" smooth="yes"/>
      <point x="75.01697786022503" y="683.5078840182281"/>
      <point x="246.62439004718317" y="489.39194257369843"/>
      <point x="490.14316247933215" y="489.39194257369843" type="curve" smooth="yes"/>
      <point x="615.2471669960075" y="489.39194257369843"/>
      <point x="699.5973303222164" y="548.3074565471629"/>
      <point x="756.0257692462798" y="619.352341008993" type="curve"/>
      <point x="697.0987216195507" y="338.18836956083396"/>
      <point x="575.9266443521393" y="102.29729402750333"/>
      <point x="292.21151752228093" y="7.728313908940598" type="curve"/>
      <point x="341.30201234020245" y="-90.77553736339073" type="line"/>
      <point x="736.9257168205831" y="-37.37681977658588"/>
      <point x="1096.004960277453" y="357.53099165221596"/>
      <point x="1096.004960277453" y="881.2229301931684" type="curve" smooth="yes"/>
      <point x="1096.004960277453" y="1245.6350768238094"/>
      <point x="917.0030245594224" y="1505.8120337137557"/>
    </contour>
    <contour>
      <point x="566.3045932975763" y="635.5768843005202" type="curve" smooth="yes"/>
      <point x="447.2397064160987" y="635.623260878332"/>
      <point x="370.58874057345645" y="759.7500907367827"/>
      <point x="370.58874057345645" y="1023.443602048635" type="curve" smooth="yes"/>
      <point x="370.58874057345645" y="1218.8394160583941"/>
      <point x="432.69706012824133" y="1395.6474170262532"/>
      <point x="573.428882526112" y="1395.6474170262532" type="curve" smooth="yes"/>
      <point x="731.4166229785861" y="1395.6474170262532"/>
      <point x="793.0548453441949" y="1179.4611444932855"/>
      <point x="790.6458442553535" y="903.0421421946203" type="curve" smooth="yes"/>
      <point x="790.6458442553535" y="875.9701980078235"/>
      <point x="785.5594628382465" y="793.6637093196758"/>
      <point x="782.233455659959" y="753.6389482598701" type="curve"/>
      <point x="747.991611888535" y="704.1016251965965"/>
      <point x="673.8104609428559" y="635.5305077227083"/>
    </contour>
  </outline>
</glyph>
<glyph name="colon" format="2">
  <advance width="664.0881154978425"/>
  <unicode hex="003A"/>
  <outline>
    <contour>
      <point x="317.0946485461951" y="786.1263862564019" type="curve" smooth="yes"/>
      <point x="419.1790942452716" y="786.1263862564019"/>
      <point x="494.5142154292858" y="847.6186635480099"/>
      <point x="494.5142154292858" y="950.4869540670243" type="curve" smooth="yes"/>
      <point x="494.5142154292858" y="1027.2699520103238"/>
      <point x="441.5939831431221" y="1100.0993265314353"/>
      <point x="343.44642497076256" y="1100.0993265314353" type="curve" smooth="yes"/>
      <point x="249.03391539299105" y="1100.0993265314353"/>
      <point x="168.97164979634633" y="1032.3860144372302"/>
      <point x="168.97164979634633" y="934.5342581763923" type="curve" smooth="yes"/>
      <point x="168.97164979634633" y="847.120256482639"/>
      <point x="239.72984635238132" y="786.1263862564019"/>
    </contour>
    <contour>
      <point x="317.0946485461951" y="-17.65745856353591" type="curve" smooth="yes"/>
      <point x="419.1790942452716" y="-17.65745856353591"/>
      <point x="494.5142154292858" y="43.834818728071944"/>
      <point x="494.5142154292858" y="146.70310924708636" type="curve" smooth="yes"/>
      <point x="494.5142154292858" y="223.48610719038595"/>
      <point x="441.5939831431221" y="296.31548171149734"/>
      <point x="343.44642497076256" y="296.31548171149734" type="curve" smooth="yes"/>
      <point x="249.03391539299105" y="296.31548171149734"/>
      <point x="168.97164979634633" y="228.60216961729242"/>
      <point x="168.97164979634633" y="131.35266362866474" type="curve" smooth="yes"/>
      <point x="168.97164979634633" y="43.33641166270113"/>
      <point x="239.72984635238132" y="-17.65745856353591"/>
    </contour>
  </outline>
</glyph>
<glyph name="semicolon" format="2">
  <advance width="564.5331693350001"/>
  <unicode hex="003B"/>
  <outline>
    <contour>
      <point x="307.17360971085213" y="786.1263862564019" type="curve" smooth="yes"/>
      <point x="408.6558051377183" y="786.1263862564019"/>
      <point x="484.5931765939428" y="847.6186635480099"/>
      <point x="484.5931765939428" y="950.4869540670243" type="curve" smooth="yes"/>
      <point x="484.5931765939428" y="1027.2699520103238"/>
      <point x="431.6729443077792" y="1100.0993265314353"/>
      <point x="333.5253861354196" y="1100.0993265314353" type="curve" smooth="yes"/>
      <point x="239.11287655764812" y="1100.0993265314353"/>
      <point x="159.05061096100334" y="1032.3860144372302"/>
      <point x="159.05061096100334" y="934.5342581763923" type="curve" smooth="yes"/>
      <point x="159.05061096100334" y="847.120256482639"/>
      <point x="229.80880751703833" y="786.1263862564019"/>
    </contour>
    <contour>
      <point x="322.3458482880994" y="328.4719522522886" type="curve"/>
      <point x="311.90809372101467" y="328.4719522522886" type="line" smooth="yes"/>
      <point x="229.90894059765296" y="328.4719522522886"/>
      <point x="170.00032261967175" y="275.2848328426826"/>
      <point x="170.00032261967175" y="191.70823083437512" type="curve" smooth="yes"/>
      <point x="170.00032261967175" y="52.95124410210913"/>
      <point x="286.1697786022503" y="51.52929789893939"/>
      <point x="286.1697786022503" y="-49.44642497076259" type="curve" smooth="yes"/>
      <point x="286.1697786022503" y="-172.9832237770698"/>
      <point x="224.55276848005806" y="-334.11469129330163"/>
      <point x="163.42956809291445" y="-389.121466306408" type="curve"/>
      <point x="163.42956809291445" y="-414.47638827277495" type="line"/>
      <point x="240.45961204984476" y="-466.4643706900028" type="line"/>
      <point x="242.41323547203294" y="-466.3428640561358" type="line"/>
      <point x="349.0529096261645" y="-407.3861757470662"/>
      <point x="497.3759728999476" y="-176.24035165544217"/>
      <point x="497.3759728999476" y="69.93922651933701" type="curve" smooth="yes"/>
      <point x="497.3759728999476" y="221.84328749445498"/>
      <point x="417.8123966608864" y="328.4719522522886"/>
    </contour>
  </outline>
</glyph>
<glyph name="equal" format="2">
  <advance width="1165.959954833246"/>
  <unicode hex="003D"/>
  <outline>
    <contour>
      <point x="989.5425253054806" y="980.0796467314594" type="line"/>
      <point x="176.41742952776545" y="980.0796467314594" type="line"/>
      <point x="176.41742952776545" y="817.985441787313" type="line"/>
      <point x="989.5425253054806" y="817.985441787313" type="line"/>
    </contour>
    <contour>
      <point x="989.5425253054806" y="440.52562810017344" type="line"/>
      <point x="176.41742952776545" y="440.52562810017344" type="line"/>
      <point x="176.41742952776545" y="278.43142315602694" type="line"/>
      <point x="989.5425253054806" y="278.43142315602694" type="line"/>
    </contour>
  </outline>
</glyph>
<glyph name="greater" format="2">
  <advance width="1191.0879541880067"/>
  <unicode hex="003E"/>
  <outline>
    <contour>
      <point x="1040.8911158607896" y="538.8863168931726" type="line"/>
      <point x="1040.8911158607896" y="649.8509093841997" type="line"/>
      <point x="208.0" y="1133.3795620437957" type="line"/>
      <point x="208.0" y="941.4911481227567" type="line"/>
      <point x="813.6993184659434" y="595.0548050167358" type="line"/>
      <point x="208.0" y="246.24212606363676" type="line"/>
      <point x="208.0" y="57.86131386861314" type="line"/>
    </contour>
  </outline>
</glyph>
<glyph name="question" format="2">
  <advance width="937.5190143969029"/>
  <unicode hex="003F"/>
  <outline>
    <contour>
      <point x="314.9645118361092" y="496.03347179094243" type="curve"/>
      <point x="468.7014961487277" y="496.03347179094243" type="line"/>
      <point x="455.75331693350006" y="580.1206597572287"/>
      <point x="450.5670040730734" y="670.5461951042465"/>
      <point x="450.5670040730734" y="749.6898415130863" type="curve" smooth="yes"/>
      <point x="449.36250352865267" y="776.6179376537484"/>
      <point x="455.39028914788076" y="803.2972133725854"/>
      <point x="461.3735935798685" y="816.6504819131346" type="curve"/>
      <point x="546.8742993104004" y="953.3135056660079"/>
      <point x="887.3792797515828" y="1019.9578174779207"/>
      <point x="888.2298261886518" y="1342.4704198088477" type="curve" smooth="yes"/>
      <point x="888.9588659918538" y="1580.2479735451868"/>
      <point x="736.6984715893052" y="1807.6272129693107"/>
      <point x="341.27450901318707" y="1807.6272129693107" type="curve" smooth="yes"/>
      <point x="204.8130015727709" y="1807.6272129693107"/>
      <point x="103.46263660926726" y="1778.0418195749485"/>
      <point x="55.89861676815744" y="1751.6275355889825" type="curve"/>
      <point x="93.96588296971407" y="1609.1113037867483" type="line"/>
      <point x="129.8799451546558" y="1627.3543170544824"/>
      <point x="193.4687260555712" y="1643.4318667580756"/>
      <point x="264.1143686736299" y="1643.4318667580756" type="curve" smooth="yes"/>
      <point x="511.822639835464" y="1643.4318667580756"/>
      <point x="618.4307779166835" y="1479.6834697745694"/>
      <point x="618.4307779166835" y="1307.323022946324" type="curve" smooth="yes"/>
      <point x="618.4307779166835" y="1193.6435052627332"/>
      <point x="555.5305077227084" y="1095.4613461305803"/>
      <point x="495.0275033270153" y="1056.8380449247893" type="curve" smooth="yes"/>
      <point x="314.24107754970356" y="949.4165019962091"/>
      <point x="228.85490180263741" y="886.2671290881962"/>
      <point x="228.85490180263741" y="773.6940758962778" type="curve"/>
      <point x="233.38786950034282" y="682.1134411420736"/>
      <point x="277.3105214340444" y="568.5693833931524"/>
    </contour>
    <contour>
      <point x="362.0223414122676" y="-17.65745856353591" type="curve" smooth="yes"/>
      <point x="464.9047465419204" y="-17.65745856353591"/>
      <point x="541.4233576642337" y="42.772835423639954"/>
      <point x="541.4233576642337" y="145.64112594265436" type="curve" smooth="yes"/>
      <point x="541.4233576642337" y="221.8218736137436"/>
      <point x="487.44114207363793" y="293.589264830423"/>
      <point x="388.25261120296807" y="293.589264830423" type="curve" smooth="yes"/>
      <point x="294.4213412912853" y="293.589264830423"/>
      <point x="213.92035326854057" y="226.47820300842844"/>
      <point x="213.92035326854057" y="129.68843005202243" type="curve" smooth="yes"/>
      <point x="213.92035326854057" y="41.6721780860588"/>
      <point x="285.7195225228858" y="-17.65745856353591"/>
    </contour>
  </outline>
</glyph>
<glyph name="at" format="2">
  <advance width="1917.0356898011858"/>
  <unicode hex="0040"/>
  <outline>
    <contour>
      <point x="102.70359317659394" y="357.49122877767473" type="curve" smooth="yes"/>
      <point x="102.70359317659394" y="-203.09311610275438"/>
      <point x="438.59862080090335" y="-515.9226519337017"/>
      <point x="829.3654474331572" y="-515.9226519337017" type="curve" smooth="yes"/>
      <point x="997.4734040408115" y="-515.9226519337017"/>
      <point x="1175.535669637456" y="-459.7459370085091"/>
      <point x="1273.6044279549944" y="-368.8563535911602" type="curve"/>
      <point x="1242.7415009880226" y="-289.79989514860665" type="line"/>
      <point x="1170.7053675847885" y="-344.6022099447514"/>
      <point x="1014.1294914707424" y="-387.2716860910594"/>
      <point x="880.1270718232045" y="-387.2716860910594" type="curve" smooth="yes"/>
      <point x="556.3703673831512" y="-387.2716860910594"/>
      <point x="271.75573658103804" y="-129.7695285720047"/>
      <point x="271.75573658103804" y="391.9296285841029" type="curve" smooth="yes"/>
      <point x="271.75573658103804" y="956.2948743799653"/>
      <point x="602.2409968947857" y="1401.3778682905188"/>
      <point x="1065.6797193208856" y="1401.3778682905188" type="curve" smooth="yes"/>
      <point x="1348.428680888817" y="1401.3778682905188"/>
      <point x="1678.152962051861" y="1231.324555389765"/>
      <point x="1678.152962051861" y="737.8163890793242" type="curve" smooth="yes"/>
      <point x="1678.152962051861" y="367.68048554260594"/>
      <point x="1487.7664233576643" y="144.07811428801872"/>
      <point x="1345.8211880469412" y="144.07811428801872" type="curve" smooth="yes"/>
      <point x="1319.613501633262" y="144.07811428801872"/>
      <point x="1296.8982941484858" y="201.44307779166834"/>
      <point x="1301.5568415534137" y="322.9577368230028" type="curve" smooth="yes"/>
      <point x="1307.4608622010726" y="515.7289188208251"/>
      <point x="1375.9259587853371" y="857.6076541517119"/>
      <point x="1400.6745574061379" y="977.8757107714642" type="curve"/>
      <point x="1342.8388918014275" y="997.9952413598419"/>
      <point x="1280.6892769286608" y="1022.6410452877363"/>
      <point x="1259.369318869218" y="1026.2457555349438" type="curve" smooth="yes"/>
      <point x="1235.5426462878572" y="1030.3156026938743"/>
      <point x="1214.4172278904705" y="1009.3983143122151"/>
      <point x="1204.5910795660766" y="978.4600153244344" type="curve"/>
      <point x="1142.1214663064081" y="1014.7577126265273"/>
      <point x="1063.572448280034" y="1032.9280558132032"/>
      <point x="998.9389845545833" y="1032.9280558132032" type="curve" smooth="yes"/>
      <point x="709.5666007984837" y="1032.9280558132032"/>
      <point x="527.5730128644594" y="678.2589022865669"/>
      <point x="527.5730128644594" y="376.60100012098235" type="curve" smooth="yes"/>
      <point x="527.5730128644594" y="120.73771020687987"/>
      <point x="659.0315360729121" y="-25.686413679074082"/>
      <point x="784.9832237770697" y="-25.686413679074082" type="curve" smooth="yes"/>
      <point x="938.9474936484253" y="-25.686413679074082"/>
      <point x="1059.1849013993628" y="198.69508408275195"/>
      <point x="1135.3973061257411" y="435.8158648223575" type="curve"/>
      <point x="1112.8898253821026" y="294.2000241964754"/>
      <point x="1104.6479009557606" y="205.62761624390046"/>
      <point x="1106.8313908940597" y="154.484816711699" type="curve" smooth="yes"/>
      <point x="1112.2603540750895" y="35.26587893696818"/>
      <point x="1169.3920232286164" y="-11.581078356252771"/>
      <point x="1248.6127757390007" y="-11.581078356252771" type="curve" smooth="yes"/>
      <point x="1441.2309553575028" y="-11.581078356252771"/>
      <point x="1822.759648344558" y="259.10469008347786"/>
      <point x="1822.759648344558" y="796.7148848651046" type="curve" smooth="yes"/>
      <point x="1822.759648344558" y="1265.4321087228295"/>
      <point x="1523.7385167560592" y="1542.4542081703432"/>
      <point x="1112.5897487599307" y="1542.4542081703432" type="curve" smooth="yes"/>
      <point x="544.3368149372908" y="1542.4542081703432"/>
      <point x="102.70359317659394" y="1001.0141549380974"/>
    </contour>
    <contour>
      <point x="747.4710650481913" y="453.32657176271323" type="curve" smooth="yes"/>
      <point x="747.4710650481913" y="669.62217203694"/>
      <point x="831.1861112231319" y="897.9637859418478"/>
      <point x="965.4773158043312" y="897.9637859418478" type="curve" smooth="yes"/>
      <point x="1020.0101625196596" y="897.9637859418478"/>
      <point x="1117.4029116425374" y="857.6721377585999"/>
      <point x="1148.176110013308" y="818.9391861918781" type="curve"/>
      <point x="1141.4775577690848" y="756.3259265233697"/>
      <point x="1111.2121627616243" y="642.3624632011937"/>
      <point x="1097.9564060168568" y="596.0565794249304" type="curve" smooth="yes"/>
      <point x="1031.2327297656975" y="361.3593579868533"/>
      <point x="921.1893777473082" y="181.07896116465702"/>
      <point x="846.6241077549704" y="181.07896116465702" type="curve" smooth="yes"/>
      <point x="781.4255353470178" y="181.07896116465702"/>
      <point x="747.4710650481913" y="317.8652256321329"/>
    </contour>
  </outline>
</glyph>
<glyph name="A" format="2">
  <advance width="1244.7450094769526"/>
  <unicode hex="0041"/>
  <anchor x="607.5151429608421" y="0.0" name="bottom"/>
  <anchor x="1075.906561277574" y="20.0" name="ogonek"/>
  <anchor x="628.7889260797676" y="1486.0" name="top"/>
  <outline>
    <contour>
      <point x="68.56462475299432" y="128.99439448320362" type="line"/>
      <point x="-44.5784973988789" y="105.55236520546842" type="line"/>
      <point x="-43.373996854458206" y="0.0" type="line"/>
      <point x="409.07125861999435" y="0.0" type="line"/>
      <point x="409.07125861999435" y="105.55236520546842" type="line"/>
      <point x="257.8987780779933" y="127.13787958220755" type="line"/>
      <point x="331.72754768722024" y="399.91813525829735" type="line"/>
      <point x="788.0605718433682" y="399.91813525829735" type="line"/>
      <point x="858.0134290438359" y="127.90611767552528" type="line"/>
      <point x="722.0478686937937" y="105.55236520546842" type="line"/>
      <point x="722.0478686937937" y="0.0" type="line"/>
      <point x="1274.8300600879138" y="0.0" type="line"/>
      <point x="1274.8300600879138" y="105.55236520546842" type="line"/>
      <point x="1166.5458724845748" y="127.54159777392428" type="line"/>
      <point x="790.4717102875347" y="1495.1127152478123" type="line"/>
      <point x="484.8935758357866" y="1495.1127152478123" type="line"/>
    </contour>
    <contour>
      <point x="753.702222042989" y="526.5628100173408" type="line"/>
      <point x="364.8789369681817" y="526.5628100173408" type="line"/>
      <point x="533.4589668105012" y="1155.3999677380327" type="line"/>
      <point x="570.0711779650765" y="1305.4157761019476" type="line"/>
      <point x="600.1118683711738" y="1157.381417106908" type="line"/>
    </contour>
  </outline>
</glyph>
<glyph name="B" format="2">
  <advance width="1202.5212727346052"/>
  <unicode hex="0042"/>
  <anchor x="605.9722143807719" y="0.0" name="bottom"/>
  <anchor x="605.9722143807719" y="1486.0" name="top"/>
  <outline>
    <contour>
      <point x="180.02895511553817" y="127.67625115941445" type="line"/>
      <point x="49.97459370085091" y="104.59874178328025" type="line"/>
      <point x="49.97459370085091" y="0.0" type="line"/>
      <point x="320.4173892003065" y="0.0" type="line" smooth="yes"/>
      <point x="429.04444085978145" y="0.0"/>
      <point x="488.109327741259" y="-12.0"/>
      <point x="621.0800500060492" y="-12.0" type="curve" smooth="yes"/>
      <point x="1049.379441061419" y="-12.0"/>
      <point x="1167.6302778561924" y="203.9132556357624"/>
      <point x="1167.444771544945" y="447.8036456022906" type="curve" smooth="yes"/>
      <point x="1167.3056418115095" y="659.8501834899383"/>
      <point x="1031.6649594709038" y="795.3151994192847"/>
      <point x="805.9362422873735" y="792.9837480340365" type="curve"/>
      <point x="967.566237851353" y="822.4201717949753"/>
      <point x="1090.1847804169859" y="973.7167802556761"/>
      <point x="1089.9992741057386" y="1159.1844577973143" type="curve" smooth="yes"/>
      <point x="1089.7673912166795" y="1348.0945678912772"/>
      <point x="984.3637940073396" y="1500.5524861878453"/>
      <point x="607.6363269750373" y="1500.5524861878453" type="curve" smooth="yes"/>
      <point x="511.5012299874985" y="1500.5524861878453"/>
      <point x="424.1217889260798" y="1486.0"/>
      <point x="320.26418518369155" y="1486.0" type="curve" smooth="yes"/>
      <point x="52.63882727749324" y="1486.0" type="line"/>
      <point x="52.63882727749324" y="1376.704762672904" type="line"/>
      <point x="180.02895511553817" y="1349.7297656974636" type="line"/>
    </contour>
    <contour>
      <point x="459.59285397427107" y="832.5506714521919" type="curve"/>
      <point x="459.59285397427107" y="1379.1645763600436" type="line"/>
      <point x="482.95277654554985" y="1382.616122918095"/>
      <point x="560.3615356696374" y="1390.8876073718595"/>
      <point x="594.5229664878816" y="1390.8876073718595" type="curve" smooth="yes"/>
      <point x="740.681735693834" y="1390.8876073718595"/>
      <point x="799.347542041376" y="1298.6760495221197"/>
      <point x="799.5794249304352" y="1129.7434770335121" type="curve" smooth="yes"/>
      <point x="799.8576843973062" y="954.8205428075977"/>
      <point x="744.4941323547204" y="829.1031576400371"/>
      <point x="611.9529378553858" y="829.1031576400371" type="curve" smooth="yes"/>
      <point x="569.5400250030247" y="829.1031576400371"/>
      <point x="492.5923297173045" y="828.3208049360809"/>
    </contour>
    <contour>
      <point x="459.54647739645924" y="119.43702867282332" type="curve"/>
      <point x="459.59285397427107" y="702.4892527321854" type="line"/>
      <point x="491.72170020567006" y="705.0881154978425"/>
      <point x="575.9430576279389" y="706.1510263338308"/>
      <point x="625.5971690123805" y="706.1510263338308" type="curve" smooth="yes"/>
      <point x="778.6345122393838" y="706.1510263338308"/>
      <point x="852.7432753962173" y="621.4519901601001"/>
      <point x="852.9751582852764" y="424.4114207363794" type="curve" smooth="yes"/>
      <point x="853.2070411743356" y="231.85732145017542"/>
      <point x="787.0585554704197" y="102.63749647134735"/>
      <point x="607.9774972778966" y="102.63749647134735" type="curve" smooth="yes"/>
      <point x="559.4346896802032" y="102.63749647134735"/>
      <point x="488.2496672984635" y="106.0250433520184"/>
    </contour>
  </outline>
</glyph>
<glyph name="C" format="2">
  <advance width="1177.7405331290074"/>
  <unicode hex="0043"/>
  <anchor x="697.3990402064766" y="0.0" name="bottom"/>
  <anchor x="733.876033391136" y="1486.0" name="top"/>
  <outline>
    <contour>
      <point x="641.8891801427592" y="-21.907246844376335" type="curve" smooth="yes"/>
      <point x="877.1751421542929" y="-21.907246844376335"/>
      <point x="950.353591160221" y="46.27027462999556"/>
      <point x="1073.6467314594508" y="54.0" type="curve"/>
      <point x="1115.3895229261607" y="389.7044803806912" type="line"/>
      <point x="958.1090454490462" y="411.7139573335484" type="line"/>
      <point x="870.5063919022463" y="173.4529983465742" type="line"/>
      <point x="829.5001008186475" y="123.73053191918376"/>
      <point x="765.5311529620518" y="93.19256361656653"/>
      <point x="663.3616566520144" y="93.19256361656653" type="curve" smooth="yes"/>
      <point x="443.98717586804855" y="93.19256361656653"/>
      <point x="338.782554341251" y="366.5678912771706"/>
      <point x="338.782554341251" y="759.7421462273662" type="curve" smooth="yes"/>
      <point x="338.782554341251" y="1177.1071903859338"/>
      <point x="491.3494777594064" y="1392.5511150542404"/>
      <point x="676.0239141831672" y="1392.5511150542404" type="curve" smooth="yes"/>
      <point x="777.7484373109651" y="1392.5511150542404"/>
      <point x="818.7837641650201" y="1355.8995846271728"/>
      <point x="844.6458845828125" y="1324.9455982578538" type="curve"/>
      <point x="902.415453482276" y="1035.0962616445538" type="line"/>
      <point x="1072.9435012299875" y="1035.0962616445538" type="line"/>
      <point x="1098.9346291890147" y="1457.9083760132276" type="line"/>
      <point x="968.7792878170746" y="1460.3173771020688"/>
      <point x="886.6922611606243" y="1504.6572972537"/>
      <point x="687.086381417107" y="1504.6572972537" type="curve" smooth="yes"/>
      <point x="315.4878815985805" y="1504.6572972537"/>
      <point x="25.267492035326857" y="1231.7343630277855"/>
      <point x="25.267492035326857" y="728.2522885832965" type="curve" smooth="yes"/>
      <point x="25.267492035326857" y="263.6168084848974"/>
      <point x="248.21143686736298" y="-21.907246844376335"/>
    </contour>
  </outline>
</glyph>
<glyph name="D" format="2">
  <advance width="1277.4098882929386"/>
  <unicode hex="0044"/>
  <anchor x="734.5440174214622" y="0.0" name="bottom"/>
  <anchor x="668.2918901480017" y="764.0" name="center"/>
  <anchor x="319.788603460096" y="763.0" name="lstem"/>
  <anchor x="734.5440174214622" y="1486.0" name="top"/>
  <outline>
    <contour>
      <point x="174.00645239343467" y="128.03290720651694" type="line"/>
      <point x="49.97459370085091" y="105.55236520546842" type="line"/>
      <point x="49.97459370085091" y="0.0" type="line"/>
      <point x="312.6051941767149" y="0.0" type="line" smooth="yes"/>
      <point x="395.3350002016373" y="0.0"/>
      <point x="504.917328709118" y="-15.235270395612373"/>
      <point x="618.2398677259346" y="-15.816510061701013" type="curve" smooth="yes"/>
      <point x="1000.1852240190344" y="-18.844215026011213"/>
      <point x="1236.2750735976126" y="336.97790055248623"/>
      <point x="1236.2750735976126" y="791.0177440819454" type="curve" smooth="yes"/>
      <point x="1236.2750735976126" y="1204.0968262289794"/>
      <point x="1039.6630237528734" y="1499.5968463927088"/>
      <point x="636.7571883695608" y="1499.5968463927088" type="curve" smooth="yes"/>
      <point x="512.585635359116" y="1499.5968463927088"/>
      <point x="429.4921966366899" y="1486.0"/>
      <point x="309.39541073516955" y="1486.0" type="curve" smooth="yes"/>
      <point x="52.312820099205545" y="1486.0" type="line"/>
      <point x="52.312820099205545" y="1376.4748961567932" type="line"/>
      <point x="174.00645239343467" y="1350.3530265757954" type="line"/>
    </contour>
    <contour>
      <point x="457.6698794208977" y="122.0575876114046" type="curve"/>
      <point x="457.8997459370085" y="1369.8619994354158" type="line"/>
      <point x="485.8913981530024" y="1371.8619994354158"/>
      <point x="517.8365931362666" y="1384.572165987821"/>
      <point x="599.5711578013469" y="1384.572165987821" type="curve" smooth="yes"/>
      <point x="843.4748155018752" y="1384.572165987821"/>
      <point x="924.3843206839538" y="1116.7603339113602"/>
      <point x="924.3843206839538" y="747.9251522361576" type="curve" smooth="yes"/>
      <point x="924.3843206839538" y="336.573577448885"/>
      <point x="804.5982578537726" y="105.77775537363391"/>
      <point x="594.2353107230714" y="103.0515384925596" type="curve" smooth="yes"/>
      <point x="537.1636488284873" y="101.98955518812761"/>
      <point x="504.12340202443846" y="106.22885832963664"/>
    </contour>
  </outline>
</glyph>
<glyph name="E" format="2">
  <advance width="1129.7022220429892"/>
  <unicode hex="0045"/>
  <anchor x="576.5094971165868" y="1.1493325805540993" name="bottom"/>
  <anchor x="926.5532927370247" y="20.0" name="ogonek"/>
  <anchor x="582.2157519054725" y="1486.0" name="top"/>
  <anchor x="33.50199620921886" y="1486.0" name="topleft"/>
  <outline>
    <contour>
      <point x="182.5777311771585" y="127.07400088720411" type="line"/>
      <point x="52.3835947896923" y="104.72024841714725" type="line"/>
      <point x="52.3835947896923" y="0.0" type="line"/>
      <point x="1055.2160341976853" y="0.0" type="line"/>
      <point x="1102.2689841513086" y="366.73625841835707" type="line"/>
      <point x="961.2599911279591" y="407.1954268661532" type="line"/>
      <point x="849.5938218332864" y="141.92862039762875" type="line"/>
      <point x="474.9025285316772" y="115.11977255313144" type="line"/>
      <point x="474.9025285316772" y="705.5821268701859" type="line"/>
      <point x="684.486147517845" y="699.5814816308424" type="line"/>
      <point x="721.9038190103641" y="514.4418276404404" type="line"/>
      <point x="827.4036778642578" y="514.4418276404404" type="line"/>
      <point x="827.4036778642578" y="1007.1997822317217" type="line"/>
      <point x="721.9038190103641" y="1007.1997822317217" type="line"/>
      <point x="682.6793967012139" y="832.4577166592733" type="line"/>
      <point x="474.9025285316772" y="825.7156914142839" type="line"/>
      <point x="474.9025285316772" y="1376.6532645078034" type="line"/>
      <point x="813.4015001814735" y="1358.4260192765255" type="line"/>
      <point x="882.2767673508893" y="1149.8690164132759" type="line"/>
      <point x="1012.283098761947" y="1149.8690164132759" type="line"/>
      <point x="988.3353228213091" y="1486.0" type="line"/>
      <point x="50.8320764608622" y="1486.0" type="line"/>
      <point x="50.8320764608622" y="1377.3070129451144" type="line"/>
      <point x="182.5777311771585" y="1350.2105093358068" type="line"/>
    </contour>
  </outline>
</glyph>
<glyph name="F" format="2">
  <advance width="1061.7425495019559"/>
  <unicode hex="0046"/>
  <anchor x="535.6341492922533" y="0.0" name="bottom"/>
  <anchor x="626.8433681493728" y="1486.0" name="top"/>
  <outline>
    <contour>
      <point x="182.5777311771585" y="128.50836794773562" type="line"/>
      <point x="52.98584506190265" y="105.55236520546842" type="line"/>
      <point x="52.98584506190265" y="0.0" type="line"/>
      <point x="719.4685647457353" y="0.0" type="line"/>
      <point x="719.4685647457353" y="105.55236520546842" type="line"/>
      <point x="475.32657176271323" y="128.50836794773562" type="line"/>
      <point x="475.32657176271323" y="671.0936806871798" type="line"/>
      <point x="681.1352179699157" y="663.1048110658547" type="line"/>
      <point x="726.444731217486" y="472.4233979916925" type="line"/>
      <point x="838.4268258257047" y="472.4233979916925" type="line"/>
      <point x="838.4268258257047" y="986.2391015042143" type="line"/>
      <point x="725.8424809452756" y="986.2391015042143" type="line"/>
      <point x="681.0137113360487" y="802.7804976408436" type="line"/>
      <point x="475.32657176271323" y="796.3167318627253" type="line"/>
      <point x="475.32657176271323" y="1375.9714078315926" type="line"/>
      <point x="811.0894463039883" y="1356.991652215994" type="line"/>
      <point x="887.3540750897287" y="1123.3678267532362" type="line"/>
      <point x="1021.2777755373635" y="1123.3678267532362" type="line"/>
      <point x="999.6218494172682" y="1486.0" type="line"/>
      <point x="50.8320764608622" y="1486.0" type="line"/>
      <point x="50.8320764608622" y="1376.4748961567932" type="line"/>
      <point x="182.5777311771585" y="1349.750776303585" type="line"/>
    </contour>
  </outline>
</glyph>
<glyph name="G" format="2">
  <advance width="1255.9795136508449"/>
  <unicode hex="0047"/>
  <anchor x="709.9039803202" y="0.0" name="bottom"/>
  <anchor x="1053.398824615881" y="349.0" name="rstem"/>
  <anchor x="764.1161834092835" y="1486.0" name="top"/>
  <outline>
    <contour>
      <point x="650.7734403355246" y="-21.907246844376335" type="curve" smooth="yes"/>
      <point x="902.9548735734161" y="-21.907246844376335"/>
      <point x="1041.089043029399" y="76.486026535468"/>
      <point x="1144.96878654676" y="80.0" type="curve"/>
      <point x="1144.96878654676" y="612.7990079445095" type="line"/>
      <point x="1237.572246642739" y="631.0386337056904" type="line"/>
      <point x="1237.572246642739" y="751.4900996088236" type="line"/>
      <point x="703.4147679154737" y="751.4900996088236" type="line"/>
      <point x="703.4147679154737" y="631.0386337056904" type="line"/>
      <point x="884.170101221922" y="609.6486268500222" type="line"/>
      <point x="884.170101221922" y="176.80154857442432" type="line"/>
      <point x="848.2483768197767" y="126.59692704762674"/>
      <point x="776.8119127313788" y="92.59571722385773"/>
      <point x="674.1496552002259" y="92.59571722385773" type="curve" smooth="yes"/>
      <point x="431.9773762955196" y="92.59571722385773"/>
      <point x="359.432632979796" y="395.66499979836266"/>
      <point x="359.67564624753" y="760.433762148647" type="curve" smooth="yes"/>
      <point x="360.040166149131" y="1170.8888575230874"/>
      <point x="490.6110013308061" y="1392.643868209864"/>
      <point x="709.4151308626044" y="1392.643868209864" type="curve" smooth="yes"/>
      <point x="820.9670524660241" y="1392.643868209864"/>
      <point x="875.0918256240674" y="1354.5753921845385"/>
      <point x="893.9162398677258" y="1327.227204903819" type="curve"/>
      <point x="942.6582651127152" y="1064.2893091906278" type="line"/>
      <point x="1130.9420091140057" y="1063.5997096422955" type="line"/>
      <point x="1153.9297495664798" y="1441.6384240029033" type="line"/>
      <point x="1076.9544702988264" y="1445.3162882606769"/>
      <point x="915.9737064967537" y="1505.021817155301"/>
      <point x="718.793563737549" y="1505.021817155301" type="curve" smooth="yes"/>
      <point x="310.1014235593015" y="1505.021817155301"/>
      <point x="39.96055974513046" y="1224.5677702947937"/>
      <point x="39.96055974513046" y="727.4493688752672" type="curve" smooth="yes"/>
      <point x="39.96055974513046" y="301.8218736137436"/>
      <point x="252.35544622333347" y="-21.907246844376335"/>
    </contour>
  </outline>
</glyph>
<glyph name="H" format="2">
  <advance width="1392.5978545791831"/>
  <unicode hex="0048"/>
  <anchor x="704.49219663669" y="0.0" name="bottom"/>
  <anchor x="1345.5323627858209" y="0.0" name="bottomright"/>
  <anchor x="696.8926886316893" y="743.0" name="center"/>
  <anchor x="696.495745453079" y="1486.0" name="top"/>
  <anchor x="1.170101221922007" y="1486.0" name="topleft"/>
  <outline>
    <contour>
      <point x="172.74875993063677" y="127.07400088720411" type="line"/>
      <point x="49.97459370085091" y="104.59874178328025" type="line"/>
      <point x="49.97459370085091" y="0.0" type="line"/>
      <point x="596.342581763923" y="0.0" type="line"/>
      <point x="596.342581763923" y="104.59874178328025" type="line"/>
      <point x="456.8719199903214" y="127.07400088720411" type="line"/>
      <point x="456.8719199903214" y="691.9758035246199" type="line"/>
      <point x="935.7723111666734" y="691.9758035246199" type="line"/>
      <point x="935.7723111666734" y="127.67625115941445" type="line"/>
      <point x="804.3651248134855" y="104.64511836109207" type="line"/>
      <point x="804.3651248134855" y="0.0" type="line"/>
      <point x="1342.623260878332" y="0.0" type="line"/>
      <point x="1342.623260878332" y="104.64511836109207" type="line"/>
      <point x="1219.895471226358" y="127.07400088720411" type="line"/>
      <point x="1219.895471226358" y="1350.3530265757954" type="line"/>
      <point x="1341.0761785699883" y="1377.3070129451144" type="line"/>
      <point x="1341.0761785699883" y="1486.0" type="line"/>
      <point x="804.8248578457072" y="1486.0" type="line"/>
      <point x="804.8248578457072" y="1377.3070129451144" type="line"/>
      <point x="935.7723111666734" y="1349.750776303585" type="line"/>
      <point x="935.7723111666734" y="827.3525023188288" type="line"/>
      <point x="456.8719199903214" y="827.3525023188288" type="line"/>
      <point x="456.8719199903214" y="1350.3530265757954" type="line"/>
      <point x="595.159091825624" y="1377.3070129451144" type="line"/>
      <point x="595.159091825624" y="1486.0" type="line"/>
      <point x="51.20446021696173" y="1486.0" type="line"/>
      <point x="51.20446021696173" y="1377.3070129451144" type="line"/>
      <point x="172.74875993063677" y="1350.3530265757954" type="line"/>
    </contour>
  </outline>
</glyph>
<glyph name="I" format="2">
  <advance width="683.9543089889906"/>
  <unicode hex="0049"/>
  <anchor x="345.9242650320603" y="-198.5811590111707" name="bottom"/>
  <anchor x="381.5356696374562" y="20.0" name="ogonek"/>
  <anchor x="343.51526394321894" y="1486.0" name="top"/>
  <anchor x="29.387385570835182" y="1486.0" name="topleft"/>
  <outline>
    <contour>
      <point x="198.3491954671936" y="127.55474452554745" type="line"/>
      <point x="62.275355889825384" y="104.72024841714725" type="line"/>
      <point x="62.275355889825384" y="0.0" type="line"/>
      <point x="622.8834536435859" y="0.0" type="line"/>
      <point x="622.8834536435859" y="103.0560148405049" type="line"/>
      <point x="482.47235552687823" y="127.07400088720411" type="line"/>
      <point x="482.47235552687823" y="1350.2105093358068" type="line"/>
      <point x="622.715570431907" y="1377.3070129451144" type="line"/>
      <point x="622.715570431907" y="1486.0" type="line"/>
      <point x="61.23873855708352" y="1486.0" type="line"/>
      <point x="61.23873855708352" y="1377.3070129451144" type="line"/>
      <point x="198.3491954671936" y="1350.2105093358068" type="line"/>
    </contour>
  </outline>
</glyph>
<glyph name="J" format="2">
  <advance width="683.9543089889906"/>
  <unicode hex="004A"/>
  <anchor x="328.7459370085091" y="1486.0" name="top"/>
  <outline>
    <contour>
      <point x="-80.97600516191474" y="-280.2497882808404" type="curve"/>
      <point x="-18.559825785377264" y="-375.6740331491713" type="line"/>
      <point x="220.52240190345609" y="-336.0877928781708"/>
      <point x="394.51683671411865" y="-179.58426422551113"/>
      <point x="450.9787071016655" y="38.42815663185063" type="curve" smooth="yes"/>
      <point x="476.77759406379806" y="139.99169254345284"/>
      <point x="477.4461426785498" y="312.4025486954067"/>
      <point x="477.4461426785498" y="552.5906359640279" type="curve" smooth="yes"/>
      <point x="477.4461426785498" y="1348.688792999153" type="line"/>
      <point x="643.6049118845021" y="1376.4748961567932" type="line"/>
      <point x="643.6049118845021" y="1486.0" type="line"/>
      <point x="27.417308545388554" y="1486.0" type="line"/>
      <point x="27.417308545388554" y="1376.4748961567932" type="line"/>
      <point x="194.70064927208938" y="1347.4842924547324" type="line"/>
      <point x="194.70064927208938" y="408.4777190789208" type="line" smooth="yes"/>
      <point x="194.70064927208938" y="173.44456990765013"/>
      <point x="183.8974472718474" y="65.21010606121708"/>
      <point x="154.73589547122637" y="-24.228535709964916" type="curve" smooth="yes"/>
      <point x="108.62523692382142" y="-165.29886679840303"/>
      <point x="19.65911198935355" y="-246.79170867443642"/>
    </contour>
  </outline>
</glyph>
<glyph name="K" format="2">
  <advance width="1374.2389805218374"/>
  <unicode hex="004B"/>
  <anchor x="789.2284147275881" y="0.0" name="bottom"/>
  <anchor x="769.8634512239385" y="1483.828729281768" name="top"/>
  <outline>
    <contour>
      <point x="1026.2828567971933" y="0.0" type="curve"/>
      <point x="1376.9101100939629" y="0.12150663386700004" type="line"/>
      <point x="1376.9101100939629" y="104.61188853490341" type="line"/>
      <point x="1288.0140339557206" y="127.68318748235674" type="line"/>
      <point x="1201.0332701536477" y="174.76654434004112"/>
      <point x="943.704762672904" y="842.0644432794289"/>
      <point x="765.2872928176796" y="938.7905391781264" type="curve"/>
      <point x="740.2477719078921" y="810.0259305561157" type="line"/>
      <point x="1162.0371819171673" y="1348.8767592853974" type="line"/>
      <point x="1309.2991087631567" y="1376.7126265274026" type="line"/>
      <point x="1309.2991087631567" y="1486.121506633867" type="line"/>
      <point x="827.8401016251966" y="1486.0" type="line"/>
      <point x="827.8401016251966" y="1376.3533895229261" type="line"/>
      <point x="983.9958462717265" y="1348.5462757591645" type="line"/>
      <point x="408.70375448642983" y="574.7546074121868" type="line"/>
      <point x="486.15816429406783" y="562.7490018953906" type="line"/>
      <point x="486.15816429406783" y="1348.5462757591645" type="line"/>
      <point x="635.7744081945397" y="1376.4748961567932" type="line"/>
      <point x="635.7744081945397" y="1486.0" type="line"/>
      <point x="51.66419324918337" y="1486.0" type="line"/>
      <point x="51.66419324918337" y="1376.4748961567932" type="line"/>
      <point x="202.2780175021172" y="1348.5462757591645" type="line"/>
      <point x="202.2780175021172" y="128.38686131386862" type="line"/>
      <point x="49.97459370085091" y="105.64511836109207" type="line"/>
      <point x="49.97459370085091" y="0.0" type="line"/>
      <point x="650.292777352099" y="0.0" type="line"/>
      <point x="650.292777352099" y="104.49038190103641" type="line"/>
      <point x="486.15816429406783" y="127.78461104165828" type="line"/>
      <point x="486.15816429406783" y="614.1523571399766" type="line"/>
      <point x="405.72774932451506" y="404.731419123281" type="line"/>
      <point x="733.641448562326" y="797.0776303585112" type="line"/>
      <point x="600.3100375045369" y="743.0153647618663" type="line"/>
      <point x="748.4815501875228" y="622.4794934871154"/>
      <point x="936.3331451385249" y="0.0"/>
    </contour>
  </outline>
</glyph>
<glyph name="L" format="2">
  <advance width="1070.5526878251403"/>
  <unicode hex="004C"/>
  <anchor x="583.8780094366255" y="0.0" name="bottom"/>
  <anchor x="663.3141105778925" y="668.6380610557729" name="center"/>
  <anchor x="372.04698148969635" y="1486.0" name="top"/>
  <anchor x="908.7806589506796" y="1110.7237569060774" name="topright"/>
  <outline>
    <contour>
      <point x="201.20151631245716" y="128.14913094325928" type="line"/>
      <point x="49.97459370085091" y="105.55236520546842" type="line"/>
      <point x="49.97459370085091" y="0.0" type="line"/>
      <point x="1024.1103762551923" y="0.0" type="line"/>
      <point x="1079.059644311812" y="494.28196959309594" type="line"/>
      <point x="921.2786224140017" y="517.5301044481188" type="line"/>
      <point x="800.9591482840666" y="150.92301488083237" type="line"/>
      <point x="487.2187764648949" y="128.798322377707" type="line"/>
      <point x="487.26515304270674" y="1348.3032624914306" type="line"/>
      <point x="675.377868290519" y="1376.4748961567932" type="line"/>
      <point x="675.377868290519" y="1486.0" type="line"/>
      <point x="52.26644352139371" y="1486.0" type="line"/>
      <point x="52.26644352139371" y="1376.4748961567932" type="line"/>
      <point x="201.20151631245716" y="1348.3032624914306" type="line"/>
    </contour>
  </outline>
</glyph>
<glyph name="M" format="2">
  <advance width="1774.7865870871476"/>
  <unicode hex="004D"/>
  <anchor x="908.6803645602291" y="0.0" name="bottom"/>
  <anchor x="1792.3177803766584" y="0.0" name="bottomright"/>
  <anchor x="899.8954308988991" y="1486.0" name="top"/>
  <outline>
    <contour>
      <point x="150.93313707303304" y="127.45997499697543" type="line"/>
      <point x="8.519256361656652" y="105.30935193773442" type="line"/>
      <point x="8.519256361656652" y="0.0" type="line"/>
      <point x="480.95209097874744" y="0.0" type="line"/>
      <point x="480.95209097874744" y="105.30935193773442" type="line"/>
      <point x="310.5604306972618" y="128.06222526918577" type="line"/>
      <point x="380.15231681251765" y="1019.64519901601" type="line"/>
      <point x="414.0864620720248" y="1381.6312457152073" type="line"/>
      <point x="484.97689236601207" y="1025.5363552042586" type="line"/>
      <point x="716.0275436544745" y="61.14364640883978" type="line"/>
      <point x="932.9728999475742" y="61.14364640883978" type="line"/>
      <point x="1176.8692987054887" y="1068.533693591967" type="line"/>
      <point x="1240.3120538774851" y="1381.028995442997" type="line"/>
      <point x="1266.9363229422913" y="1019.402185748276" type="line"/>
      <point x="1328.947896923015" y="128.18373190305277" type="line"/>
      <point x="1175.0216558454651" y="105.55236520546842" type="line"/>
      <point x="1175.0216558454651" y="0.0" type="line"/>
      <point x="1766.2673307254909" y="0.0" type="line"/>
      <point x="1766.2673307254909" y="105.30935193773442" type="line"/>
      <point x="1622.3832318425616" y="129.33846836310843" type="line"/>
      <point x="1495.4404161793766" y="1348.4822760817842" type="line"/>
      <point x="1685.3766181392912" y="1376.642779368472" type="line"/>
      <point x="1685.3766181392912" y="1486.0" type="line"/>
      <point x="1128.9898778077993" y="1486.0" type="line"/>
      <point x="943.0963422994718" y="625.9348308263096" type="line"/>
      <point x="901.8762350284309" y="404.32786224140017" type="line"/>
      <point x="856.8926886316893" y="620.8514739686252" type="line"/>
      <point x="674.763197160947" y="1486.0" type="line"/>
      <point x="98.2280517804573" y="1486.0" type="line"/>
      <point x="98.2280517804573" y="1376.642779368472" type="line"/>
      <point x="289.3508892204702" y="1348.4822760817842" type="line"/>
    </contour>
  </outline>
</glyph>
<glyph name="N" format="2">
  <advance width="1328.9983869016412"/>
  <unicode hex="004E"/>
  <anchor x="672.9353147558172" y="0.0" name="bottom"/>
  <anchor x="671.9626971004557" y="1486.0" name="top"/>
  <outline>
    <contour>
      <point x="171.33100778319957" y="130.32838649836674" type="line"/>
      <point x="42.70270597249667" y="104.47723514941325" type="line"/>
      <point x="42.70270597249667" y="0.0" type="line"/>
      <point x="476.5156268903496" y="0.0" type="line"/>
      <point x="476.5156268903496" y="104.47723514941325" type="line"/>
      <point x="318.4748961567932" y="130.47090373835545" type="line"/>
      <point x="317.65124813485505" y="1211.4731217485987" type="line"/>
      <point x="429.6606444327943" y="961.6690325442593" type="line"/>
      <point x="908.0400451667541" y="0.0" type="line"/>
      <point x="1167.5040529096261" y="0.0" type="line"/>
      <point x="1168.3852078880511" y="1348.3362503528651" type="line"/>
      <point x="1302.9810460942856" y="1377.3070129451144" type="line"/>
      <point x="1302.9810460942856" y="1486.0" type="line"/>
      <point x="871.0998911158608" y="1486.0" type="line"/>
      <point x="871.0998911158608" y="1377.3070129451144" type="line"/>
      <point x="1020.563939186192" y="1348.3362503528651" type="line"/>
      <point x="1021.5666007984838" y="344.77727144412626" type="line"/>
      <point x="920.5486954067026" y="598.4321893777474" type="line"/>
      <point x="479.1985724079526" y="1486.0" type="line"/>
      <point x="44.08686534661451" y="1486.0" type="line"/>
      <point x="44.08686534661451" y="1375.1198935355083" type="line"/>
      <point x="91.01399362826149" y="1368.4589264830422"/>
      <point x="134.3906117675525" y="1346.963342339799"/>
      <point x="172.26966971811106" y="1330.6565713594384" type="curve"/>
    </contour>
  </outline>
</glyph>
<glyph name="O" format="2">
  <advance width="1244.5207081501796"/>
  <unicode hex="004F"/>
  <anchor x="628.9420494414647" y="-4.827196838327216" name="bottom"/>
  <anchor x="622.9963302012341" y="741.0" name="center"/>
  <anchor x="696.0453280638786" y="19.536234221881678" name="ogonek"/>
  <anchor x="751.1700165342581" y="0.0" name="qq"/>
  <anchor x="630.9276525386135" y="1486.0" name="top"/>
  <anchor x="31.01205791023108" y="1486.0" name="topleft"/>
  <anchor x="986.4356978666774" y="1486.0" name="topright"/>
  <outline>
    <contour>
      <point x="613.6825019155543" y="-22.0" type="curve" smooth="yes"/>
      <point x="974.6668951889343" y="-18.46267693672622"/>
      <point x="1203.1415090535147" y="296.2134129128524"/>
      <point x="1203.1415090535147" y="766.6996814130742" type="curve" smooth="yes"/>
      <point x="1203.1415090535147" y="1213.1366294309796"/>
      <point x="1034.970843247167" y="1502.7237569060774"/>
      <point x="633.1242085736179" y="1503.8067508166312" type="curve" smooth="yes"/>
      <point x="271.54341250957776" y="1504.2874944549744"/>
      <point x="41.37919909666492" y="1204.5805540992862"/>
      <point x="41.37919909666492" y="734.1507037141589" type="curve" smooth="yes"/>
      <point x="41.37919909666492" y="276.17606968584914"/>
      <point x="215.34697745695044" y="-26.13957333548413"/>
    </contour>
    <contour>
      <point x="622.0969472113562" y="1394.561438883736" type="curve" smooth="yes"/>
      <point x="788.4129128523612" y="1394.561438883736"/>
      <point x="884.7210952937855" y="1193.5740613783926"/>
      <point x="884.7210952937855" y="764.7661410654515" type="curve" smooth="yes"/>
      <point x="884.7210952937855" y="309.7668266322539"/>
      <point x="789.602734201718" y="88.35705932169215"/>
      <point x="626.3711336048716" y="88.35705932169215" type="curve" smooth="yes"/>
      <point x="460.85405492599915" y="88.35705932169215"/>
      <point x="359.9211194902609" y="307.16578618381254"/>
      <point x="359.9211194902609" y="735.7250070573053" type="curve" smooth="yes"/>
      <point x="359.9211194902609" y="1188.8436504415856"/>
      <point x="458.94047667056503" y="1394.561438883736"/>
    </contour>
  </outline>
</glyph>
<glyph name="P" format="2">
  <advance width="1180.8073557285154"/>
  <unicode hex="0050"/>
  <anchor x="498.51070694035565" y="0.0" name="bottom"/>
  <anchor x="705.2337782796307" y="1486.0" name="top"/>
  <outline>
    <contour>
      <point x="200.58099770133484" y="128.0740008872041" type="line"/>
      <point x="49.97459370085091" y="105.43085857160142" type="line"/>
      <point x="49.97459370085091" y="0.0" type="line"/>
      <point x="737.0163729483405" y="0.0" type="line"/>
      <point x="737.0163729483405" y="105.55236520546842" type="line"/>
      <point x="485.7066177360164" y="128.41222728555874" type="line"/>
      <point x="485.8281243698834" y="536.5616808484898" type="line"/>
      <point x="503.7888857523088" y="533.8700649272088"/>
      <point x="566.92466830665" y="529.5630519820945"/>
      <point x="624.7214985683753" y="529.5630519820945" type="curve" smooth="yes"/>
      <point x="952.529902810824" y="529.5630519820945"/>
      <point x="1153.391257006896" y="725.0342783401218"/>
      <point x="1153.391257006896" y="1057.5254264628786" type="curve" smooth="yes"/>
      <point x="1153.391257006896" y="1335.5649070452073"/>
      <point x="1029.8642174456588" y="1498.2860023389926"/>
      <point x="659.5486954067024" y="1497.9214824373914" type="curve" smooth="yes"/>
      <point x="510.34403355244586" y="1497.7999758035246"/>
      <point x="444.78735330886803" y="1486.0"/>
      <point x="344.7554139613663" y="1486.0" type="curve" smooth="yes"/>
      <point x="56.514376739121666" y="1486.0" type="line"/>
      <point x="56.514376739121666" y="1376.4748961567932" type="line"/>
      <point x="200.58099770133484" y="1348.5462757591645" type="line"/>
    </contour>
    <contour>
      <point x="485.1043674638061" y="653.365689397911" type="curve"/>
      <point x="485.1043674638061" y="1373.7330322216399" type="line"/>
      <point x="519.8547404928016" y="1378.279348308263"/>
      <point x="571.800621042868" y="1386.7533169335002"/>
      <point x="617.748517965883" y="1386.7533169335002" type="curve" smooth="yes"/>
      <point x="777.2061136427794" y="1386.7533169335002"/>
      <point x="860.7226277372263" y="1264.5282493850063"/>
      <point x="860.7226277372263" y="1052.459128120337" type="curve" smooth="yes"/>
      <point x="860.7226277372263" y="770.758196556035"/>
      <point x="753.8675646247531" y="643.6680243577853"/>
      <point x="616.0025809573739" y="643.6680243577853" type="curve" smooth="yes"/>
      <point x="566.8647417026253" y="643.6680243577853"/>
      <point x="510.1877243214906" y="646.9946767754163"/>
    </contour>
  </outline>
</glyph>
<glyph name="R" format="2">
  <advance width="1315.6621768762352"/>
  <unicode hex="0052"/>
  <anchor x="751.6741138040892" y="0.0" name="bottom"/>
  <anchor x="682.809412428923" y="1486.0" name="top"/>
  <outline>
    <contour>
      <point x="49.97459370085091" y="0.0" type="line"/>
      <point x="660.3645602290601" y="0.0" type="line"/>
      <point x="660.3645602290601" y="105.55236520546842" type="line"/>
      <point x="485.95104246481435" y="127.95249425333711" type="line"/>
      <point x="485.95104246481435" y="642.3195144573941" type="line"/>
      <point x="523.8124773158044" y="641.7670282695487"/>
      <point x="570.4018631286043" y="641.5815219583013"/>
      <point x="624.4352542646288" y="641.5815219583013" type="curve"/>
      <point x="778.3336290680325" y="585.2684195668832"/>
      <point x="886.2828567971932" y="0.0"/>
      <point x="987.6404807033109" y="0.0" type="curve" smooth="yes"/>
      <point x="1310.057063354438" y="0.0" type="line"/>
      <point x="1310.057063354438" y="104.49038190103641" type="line"/>
      <point x="1246.1473162076059" y="125.24664273904101" type="line"/>
      <point x="1154.8273178207041" y="150.5362342218817"/>
      <point x="1077.5791829656814" y="601.1838528854297"/>
      <point x="859.6121708271162" y="686.5865225632134" type="curve"/>
      <point x="1056.5786183812559" y="744.4800983989999"/>
      <point x="1151.9596725410333" y="934.0355284913497"/>
      <point x="1151.9596725410333" y="1103.6253175787394" type="curve" smooth="yes"/>
      <point x="1151.9596725410333" y="1370.766907287172"/>
      <point x="997.3555268782515" y="1499.828729281768"/>
      <point x="627.1176755252652" y="1499.828729281768" type="curve" smooth="yes"/>
      <point x="511.1496552002258" y="1499.828729281768"/>
      <point x="450.56349558414325" y="1486.0"/>
      <point x="330.76464894946974" y="1486.0" type="curve" smooth="yes"/>
      <point x="56.514376739121666" y="1486.0" type="line"/>
      <point x="56.514376739121666" y="1377.9966124934467" type="line"/>
      <point x="201.97814251723997" y="1349.0060087913862" type="line"/>
      <point x="201.97814251723997" y="128.0740008872041" type="line"/>
      <point x="49.97459370085091" y="105.43085857160142" type="line"/>
    </contour>
    <contour>
      <point x="615.3823446384644" y="752.2532161148525" type="curve" smooth="yes"/>
      <point x="580.8959954833246" y="752.2532161148525"/>
      <point x="521.7319030527887" y="750.670605315159"/>
      <point x="485.95104246481435" y="757.1201355002621" type="curve"/>
      <point x="485.95104246481435" y="1377.3471790942453" type="line"/>
      <point x="518.2438198169134" y="1381.3008025164334"/>
      <point x="532.6847602532565" y="1387.9578174779208"/>
      <point x="592.4635238133645" y="1387.9578174779208" type="curve" smooth="yes"/>
      <point x="775.8265919264428" y="1387.9578174779208"/>
      <point x="849.5835786587088" y="1281.494374319474"/>
      <point x="849.5835786587088" y="1091.5365971690123" type="curve" smooth="yes"/>
      <point x="849.5835786587088" y="865.6531435254265"/>
      <point x="766.4164213412913" y="752.2532161148525"/>
    </contour>
  </outline>
</glyph>
<glyph name="S" format="2">
  <advance width="1055.8282050248013"/>
  <unicode hex="0053"/>
  <anchor x="541.0941646166875" y="0.0" name="bottom"/>
  <anchor x="561.3885550671451" y="1486.0" name="top"/>
  <outline>
    <contour>
      <point x="512.3978707101667" y="-20.039561237246442" type="curve" smooth="yes"/>
      <point x="896.9534621123523" y="-20.039561237246442"/>
      <point x="1028.8671210227044" y="220.74077509376136"/>
      <point x="1028.8671210227044" y="418.86724200508127" type="curve" smooth="yes"/>
      <point x="1028.8671210227044" y="659.6478203008429"/>
      <point x="826.1209420494415" y="773.7675928539743"/>
      <point x="668.37431947413" y="855.7823930314152" type="curve" smooth="yes"/>
      <point x="488.03250393192724" y="949.8963181029962"/>
      <point x="332.32975763197163" y="1022.1463886760495"/>
      <point x="332.32975763197163" y="1183.4589668105014" type="curve" smooth="yes"/>
      <point x="332.32975763197163" y="1310.0792837843287"/>
      <point x="422.72472476509256" y="1393.7554946162843"/>
      <point x="575.1295721256605" y="1393.7554946162843" type="curve" smooth="yes"/>
      <point x="664.8496995604307" y="1393.7554946162843"/>
      <point x="736.7568657498891" y="1360.1333225793444"/>
      <point x="754.888292938662" y="1337.2110335927734" type="curve"/>
      <point x="796.2142194620317" y="1085.750937613421" type="line"/>
      <point x="942.5749485824898" y="1085.750937613421" type="line"/>
      <point x="955.3224180344397" y="1431.2859620115337" type="line"/>
      <point x="896.7416219703996" y="1436.5958785336934"/>
      <point x="769.939307174255" y="1504.7788038875672"/>
      <point x="569.8968826874219" y="1504.7788038875672" type="curve" smooth="yes"/>
      <point x="251.01459854014598" y="1504.7788038875672"/>
      <point x="85.11497358551438" y="1320.947735613179"/>
      <point x="85.11497358551438" y="1105.064281969593" type="curve" smooth="yes"/>
      <point x="85.11497358551438" y="833.5387345243377"/>
      <point x="310.0963422994717" y="710.317135137315"/>
      <point x="452.6704440053232" y="639.0543210872283" type="curve" smooth="yes"/>
      <point x="643.1252974150099" y="542.8525628100174"/>
      <point x="774.4741299350728" y="470.77210952937855"/>
      <point x="774.4741299350728" y="324.67649312416825" type="curve" smooth="yes"/>
      <point x="774.4741299350728" y="188.90978747429125"/>
      <point x="681.3248780094366" y="94.1959914505787"/>
      <point x="515.9494293664557" y="94.1959914505787" type="curve" smooth="yes"/>
      <point x="406.44711053756504" y="94.1959914505787"/>
      <point x="320.2545872484575" y="135.2031697382748"/>
      <point x="289.8451828850264" y="172.43993224986895" type="curve"/>
      <point x="247.06823406057183" y="433.87236359237005" type="line"/>
      <point x="95.38653869419687" y="433.87236359237005" type="line"/>
      <point x="78.52284550550469" y="68.71403798846634" type="line"/>
      <point x="147.76275355889825" y="64.0453280638787"/>
      <point x="294.5190950518208" y="-20.039561237246442"/>
    </contour>
  </outline>
</glyph>
<glyph name="T" format="2">
  <advance width="1272.5641004960278"/>
  <unicode hex="0054"/>
  <anchor x="649.786304794935" y="0.0" name="bottom"/>
  <anchor x="1025.011745816026" y="0.0" name="bottomright"/>
  <anchor x="637.0092753155624" y="661.3012864459411" name="center"/>
  <anchor x="645.5041738920031" y="1486.0" name="top"/>
  <outline>
    <contour>
      <point x="495.5828124369884" y="128.55474452554745" type="line"/>
      <point x="250.72734604992542" y="105.55236520546842" type="line"/>
      <point x="250.72734604992542" y="0.0" type="line"/>
      <point x="1025.6249546316087" y="0.0" type="line"/>
      <point x="1025.6249546316087" y="105.55236520546842" type="line"/>
      <point x="779.3902891478808" y="128.55474452554745" type="line"/>
      <point x="779.3902891478808" y="1367.7671895793846" type="line"/>
      <point x="998.9335806750815" y="1356.057144009356" type="line"/>
      <point x="1088.9168044521514" y="914.6493930717426" type="line"/>
      <point x="1244.8896237448077" y="914.6493930717426" type="line"/>
      <point x="1211.9661249344676" y="1486.0" type="line"/>
      <point x="69.02947937250474" y="1486.0" type="line"/>
      <point x="27.674476751219906" y="914.6493930717426" type="line"/>
      <point x="183.4506593539541" y="914.6493930717426" type="line"/>
      <point x="283.38803081017863" y="1356.057144009356" type="line"/>
      <point x="495.5828124369884" y="1367.7671895793846" type="line"/>
    </contour>
  </outline>
</glyph>
<glyph name="U" format="2">
  <advance width="1324.7952171633665"/>
  <unicode hex="0055"/>
  <anchor x="719.3024559422511" y="0.0" name="bottom"/>
  <anchor x="780.4841714723555" y="20.0" name="ogonek"/>
  <anchor x="754.6374561438884" y="1486.0" name="top"/>
  <anchor x="1376.7325482921322" y="1486.0" name="topright"/>
  <outline>
    <contour>
      <point x="690.0208492962859" y="-16.18550631124733" type="curve" smooth="yes"/>
      <point x="979.7517844900593" y="-16.18550631124733"/>
      <point x="1182.299028108239" y="153.34221881679238"/>
      <point x="1182.5309109972982" y="585.3004798967617" type="curve" smooth="yes"/>
      <point x="1182.9946767754166" y="1348.5926523369765" type="line"/>
      <point x="1308.7504940113724" y="1376.4748961567932" type="line"/>
      <point x="1308.7504940113724" y="1486.0" type="line"/>
      <point x="869.2787433963786" y="1486.0" type="line"/>
      <point x="869.2787433963786" y="1376.4748961567932" type="line"/>
      <point x="1024.6317296447153" y="1347.4379158769204" type="line"/>
      <point x="1024.8636125337744" y="571.6477799733839" type="line" smooth="yes"/>
      <point x="1024.956365689398" y="272.3630681130782"/>
      <point x="930.6224946566117" y="98.66262047828366"/>
      <point x="724.0525466790336" y="98.66262047828366" type="curve" smooth="yes"/>
      <point x="529.9952816873008" y="98.66262047828366"/>
      <point x="440.089849578578" y="239.00233899262008"/>
      <point x="440.089849578578" y="557.2281324353753" type="curve" smooth="yes"/>
      <point x="440.089849578578" y="1346.7859015203453" type="line"/>
      <point x="593.0199620921886" y="1376.4748961567932" type="line"/>
      <point x="593.0199620921886" y="1486.0" type="line"/>
      <point x="29.119732225672458" y="1486.0" type="line"/>
      <point x="29.119732225672458" y="1376.4748961567932" type="line"/>
      <point x="152.9870952131306" y="1348.5926523369765" type="line"/>
      <point x="152.9870952131306" y="593.8344557809412" type="line" smooth="yes"/>
      <point x="152.9870952131306" y="167.37097229503567"/>
      <point x="326.57369843126185" y="-16.18550631124733"/>
    </contour>
  </outline>
</glyph>
<glyph name="V" format="2">
  <advance width="1201.2692261160623"/>
  <unicode hex="0056"/>
  <outline>
    <contour>
      <point x="-27.50002016372948" y="1376.792232931403" type="line"/>
      <point x="73.97842480945275" y="1349.6116465701496" type="line"/>
      <point x="503.2933822639836" y="-13.453643585917652" type="line"/>
      <point x="728.7895309916521" y="-13.453643585917652" type="line"/>
      <point x="1119.0673468564746" y="1349.6116465701496" type="line"/>
      <point x="1230.5730128644593" y="1376.792232931403" type="line"/>
      <point x="1230.5730128644593" y="1486.0" type="line"/>
      <point x="813.654998588539" y="1486.0" type="line"/>
      <point x="813.654998588539" y="1376.792232931403" type="line"/>
      <point x="947.0367786425778" y="1349.6116465701496" type="line"/>
      <point x="709.5295398636932" y="429.34576763318137" type="line"/>
      <point x="675.2132516030165" y="239.81465499858854" type="line"/>
      <point x="635.795902730169" y="427.7025446626608" type="line"/>
      <point x="385.21357422268824" y="1350.2138968423599" type="line"/>
      <point x="527.0612170827116" y="1376.792232931403" type="line"/>
      <point x="527.0612170827116" y="1486.0" type="line"/>
      <point x="-27.50002016372948" y="1486.0" type="line"/>
    </contour>
  </outline>
</glyph>
<glyph name="W" format="2">
  <advance width="1841.7584788482477"/>
  <unicode hex="0057"/>
  <anchor x="925.7373472597492" y="0.0" name="bottom"/>
  <anchor x="936.2276485058677" y="1486.0" name="top"/>
  <outline>
    <contour>
      <point x="-36.56607654151712" y="1376.8570391579626" type="line"/>
      <point x="76.0989232568456" y="1347.9990724684437" type="line"/>
      <point x="445.761826027342" y="-9.063193128200993" type="line"/>
      <point x="684.2502318828891" y="-9.063193128200993" type="line"/>
      <point x="926.2506351574787" y="921.4339234584828" type="line"/>
      <point x="1171.460499253942" y="-9.063193128200993" type="line"/>
      <point x="1415.8446183006008" y="-9.063193128200993" type="line"/>
      <point x="1761.5512360366174" y="1349.136185828931" type="line"/>
      <point x="1878.139694317861" y="1376.764286002339" type="line"/>
      <point x="1878.139694317861" y="1486.0" type="line"/>
      <point x="1450.2744283582692" y="1486.0" type="line"/>
      <point x="1450.2744283582692" y="1376.764286002339" type="line"/>
      <point x="1612.9376537484372" y="1349.136185828931" type="line"/>
      <point x="1400.4383998064284" y="426.0491591724806" type="line"/>
      <point x="1363.665927329919" y="195.4734846957293" type="line"/>
      <point x="1317.7709400330687" y="425.7245231277978" type="line"/>
      <point x="1088.4356978666774" y="1349.692704762673" type="line"/>
      <point x="1255.7585595031658" y="1376.764286002339" type="line"/>
      <point x="1255.7585595031658" y="1486.0" type="line"/>
      <point x="688.8127596080171" y="1486.0" type="line"/>
      <point x="688.8127596080171" y="1376.764286002339" type="line"/>
      <point x="805.5243376214863" y="1349.692704762673" type="line"/>
      <point x="862.2265999919346" y="1146.5300641206597" type="line"/>
      <point x="670.0070573053191" y="426.0491591724806" type="line"/>
      <point x="629.8443763358471" y="211.22853570996492" type="line"/>
      <point x="589.9751986127354" y="425.7708997056096" type="line"/>
      <point x="359.7736016453603" y="1349.1825624067428" type="line"/>
      <point x="513.5373230632738" y="1376.8106625801508" type="line"/>
      <point x="513.5373230632738" y="1486.0" type="line"/>
      <point x="-36.56607654151712" y="1486.0463765778118" type="line"/>
    </contour>
  </outline>
</glyph>
<glyph name="X" format="2">
  <advance width="1258.1738920030648"/>
  <unicode hex="0058"/>
  <anchor x="1248.6156793160462" y="0.0" name="bottomright"/>
  <outline>
    <contour>
      <point x="153.05641811509457" y="127.55272815259912" type="line"/>
      <point x="12.849013993628262" y="105.55236520546842" type="line"/>
      <point x="12.941767149251925" y="0.0" type="line"/>
      <point x="464.5080453280639" y="0.0" type="line"/>
      <point x="464.4152921724402" y="105.55236520546842" type="line"/>
      <point x="312.414364640884" y="127.6918578860346" type="line"/>
      <point x="543.8719199903214" y="626.99649151107" type="line"/>
      <point x="791.7068193733113" y="128.27648505867646" type="line"/>
      <point x="653.5001411461064" y="105.55236520546842" type="line"/>
      <point x="653.5928943017301" y="0.0" type="line"/>
      <point x="1245.6958906319314" y="0.0" type="line"/>
      <point x="1245.6031374763077" y="105.55236520546842" type="line"/>
      <point x="1128.12061942977" y="128.41561479211194" type="line"/>
      <point x="761.7619470097189" y="795.4865911198935" type="line"/>
      <point x="1092.0667419445901" y="1348.1295317982015" type="line"/>
      <point x="1225.9994757430336" y="1376.4748961567932" type="line"/>
      <point x="1225.9994757430336" y="1486.0" type="line"/>
      <point x="797.8046941162238" y="1486.0" type="line"/>
      <point x="797.8046941162238" y="1376.4748961567932" type="line"/>
      <point x="938.2978989393878" y="1348.7141589708433" type="line"/>
      <point x="700.8836956083397" y="882.0846070089124" type="line"/>
      <point x="479.5921280800097" y="1347.405774892124" type="line"/>
      <point x="608.8259870145582" y="1376.4748961567932" type="line"/>
      <point x="608.8259870145582" y="1486.0" type="line"/>
      <point x="30.283542363995643" y="1486.0" type="line"/>
      <point x="30.283542363995643" y="1376.4748961567932" type="line"/>
      <point x="143.23648021938138" y="1347.990402064766" type="line"/>
      <point x="479.8486913739565" y="716.9103117312578" type="line"/>
    </contour>
  </outline>
</glyph>
<glyph name="Y" format="2">
  <advance width="1224.1063435092954"/>
  <unicode hex="0059"/>
  <anchor x="618.9059966931485" y="0.0" name="bottom"/>
  <anchor x="616.7758075573657" y="547.0" name="center"/>
  <anchor x="641.7722305117554" y="1486.0" name="top"/>
  <anchor x="8.407387990482722" y="1486.0" name="topleft"/>
  <outline>
    <contour>
      <point x="468.2127273460499" y="128.60112110335928" type="line"/>
      <point x="260.52506351574783" y="105.55236520546842" type="line"/>
      <point x="260.52506351574783" y="0.0" type="line"/>
      <point x="970.7576722990684" y="0.0" type="line"/>
      <point x="970.7576722990684" y="105.55236520546842" type="line"/>
      <point x="756.9766100737992" y="128.3370972295036" type="line"/>
      <point x="756.9766100737992" y="563.9261604226318" type="line"/>
      <point x="1114.8394160583941" y="1351.9978223172157" type="line"/>
      <point x="1241.2218816792354" y="1376.521272734605" type="line"/>
      <point x="1241.2218816792354" y="1486.0" type="line"/>
      <point x="765.5265556317297" y="1486.0" type="line"/>
      <point x="765.5265556317297" y="1376.521272734605" type="line"/>
      <point x="931.1926442714845" y="1349.0100415372829" type="line"/>
      <point x="728.0896479412833" y="835.8434084768318" type="line"/>
      <point x="672.1676815743841" y="700.0625882163165" type="line"/>
      <point x="622.8084848973666" y="836.1856676210832" type="line"/>
      <point x="412.4298503851272" y="1349.0100415372829" type="line"/>
      <point x="558.0696455216357" y="1376.521272734605" type="line"/>
      <point x="558.0696455216357" y="1486.0" type="line"/>
      <point x="-20.639230552082914" y="1485.9536234221882" type="line"/>
      <point x="-20.639230552082914" y="1376.4748961567932" type="line"/>
      <point x="89.30822276888333" y="1349.73379844336" type="line"/>
      <point x="468.2127273460499" y="557.7949348711538" type="line"/>
    </contour>
  </outline>
</glyph>
<glyph name="Z" format="2">
  <advance width="1206.785820865427"/>
  <unicode hex="005A"/>
  <anchor x="637.2216397144816" y="0.0" name="bottom"/>
  <anchor x="656.4530386740331" y="1486.0" name="top"/>
  <outline>
    <contour>
      <point x="726.364681211437" y="1238.4844134371094" type="line"/>
      <point x="37.61947009718917" y="92.84473928297778" type="line"/>
      <point x="88.61100133080615" y="0.0" type="line"/>
      <point x="1110.6980279872564" y="0.0" type="line"/>
      <point x="1153.871032786224" y="440.97842480945275" type="line"/>
      <point x="1012.893011251361" y="471.4439649957656" type="line"/>
      <point x="905.281687300883" y="149.28527644473124" type="line"/>
      <point x="340.25240956567325" y="111.84957857805381" type="line"/>
      <point x="460.2739041013026" y="256.72012743477035" type="line"/>
      <point x="1138.744767512199" y="1396.4905432108724" type="line"/>
      <point x="1098.2414404968342" y="1490.3904504577167" type="line"/>
      <point x="154.36310844053716" y="1490.3904504577167" type="line"/>
      <point x="114.5134895350244" y="1096.428922853571" type="line"/>
      <point x="254.29906843569788" y="1075.572569262411" type="line"/>
      <point x="354.4983264104529" y="1357.297737629552" type="line"/>
      <point x="838.8198169133362" y="1383.4182764044037" type="line"/>
    </contour>
  </outline>
</glyph>
<glyph name="bracketleft" format="2">
  <advance width="855.411904665887"/>
  <unicode hex="005B"/>
  <outline>
    <contour>
      <point x="194.51074726781465" y="1403.2155099407187" type="curve"/>
      <point x="194.51074726781465" y="-69.21550994071863" type="line" smooth="yes"/>
      <point x="194.51074726781465" y="-243.9743517360971"/>
      <point x="254.61277573900068" y="-274.0"/>
      <point x="397.02468040488765" y="-274.0" type="curve" smooth="yes"/>
      <point x="499.12626527402506" y="-274.0"/>
      <point x="585.4965923297174" y="-255.82872928176795"/>
      <point x="665.7098439327339" y="-235.1049723756906" type="curve"/>
      <point x="665.7098439327339" y="-143.6897608581683" type="line"/>
      <point x="421.8065895067952" y="-143.6897608581683" type="line"/>
      <point x="421.8065895067952" y="1479.6897608581685" type="line"/>
      <point x="665.7098439327339" y="1479.6897608581685" type="line"/>
      <point x="665.7098439327339" y="1569.657458563536" type="line"/>
      <point x="587.5884179537846" y="1587.828729281768"/>
      <point x="501.4611041658265" y="1608.0"/>
      <point x="397.02468040488765" y="1608.0" type="curve" smooth="yes"/>
      <point x="254.61277573900068" y="1608.0"/>
      <point x="194.51074726781465" y="1577.9743517360969"/>
    </contour>
  </outline>
</glyph>
<glyph name="backslash" format="2">
  <advance width="814.7598903093116"/>
  <unicode hex="005C"/>
  <outline>
    <contour>
      <point x="735.0639996773804" y="-354.0" type="line"/>
      <point x="223.13166915352662" y="1562.0" type="line"/>
      <point x="39.84913497600516" y="1562.0" type="line"/>
      <point x="550.3339516877043" y="-354.0" type="line"/>
    </contour>
  </outline>
</glyph>
<glyph name="bracketright" format="2">
  <advance width="853.710811791749"/>
  <unicode hex="005D"/>
  <outline>
    <contour>
      <point x="659.2000645239344" y="1403.2155099407187" type="line"/>
      <point x="659.2000645239344" y="1577.9743517360969"/>
      <point x="600.7991289268863" y="1608.0"/>
      <point x="458.3872242609993" y="1608.0" type="curve" smooth="yes"/>
      <point x="353.9508005000605" y="1608.0"/>
      <point x="267.8234867121023" y="1587.828729281768"/>
      <point x="189.7020607331532" y="1569.657458563536" type="curve"/>
      <point x="189.7020607331532" y="1479.6897608581685" type="line"/>
      <point x="433.60531515909184" y="1479.6897608581685" type="line"/>
      <point x="433.60531515909184" y="-143.6897608581683" type="line"/>
      <point x="189.7020607331532" y="-143.6897608581683" type="line"/>
      <point x="189.7020607331532" y="-235.1049723756906" type="line"/>
      <point x="269.9153123361697" y="-255.82872928176795"/>
      <point x="356.2856393918619" y="-274.0"/>
      <point x="458.3872242609993" y="-274.0" type="curve" smooth="yes"/>
      <point x="600.7991289268863" y="-274.0"/>
      <point x="659.2000645239344" y="-243.9743517360971"/>
      <point x="659.2000645239344" y="-69.21550994071863" type="curve" smooth="yes"/>
    </contour>
  </outline>
</glyph>
<glyph name="asciicircum" format="2">
  <advance width="1151.3901681655038"/>
  <unicode hex="005E"/>
  <outline>
    <contour>
      <point x="659.8038875670445" y="1496.0" type="line"/>
      <point x="485.3514134774368" y="1496.0" type="line"/>
      <point x="137.74686454006533" y="266.7701334838892" type="line"/>
      <point x="313.26483042303505" y="266.7701334838892" type="line"/>
      <point x="573.7991692543453" y="1206.1550994071863" type="line"/>
      <point x="826.4566681453401" y="266.7701334838892" type="line"/>
      <point x="1014.0156873815382" y="266.7701334838892" type="line"/>
    </contour>
  </outline>
</glyph>
<glyph name="a" format="2">
  <advance width="934.3835947896922"/>
  <unicode hex="0061"/>
  <anchor x="415.0735169576965" y="-195.78650643222971" name="bottom"/>
  <anchor x="755.38875670444" y="20.0" name="ogonek"/>
  <anchor x="451.71831269911684" y="1110.6022502722103" name="top"/>
  <outline>
    <contour>
      <point x="27.865951526394323" y="298.60305682138966" type="curve" smooth="yes"/>
      <point x="27.865951526394323" y="97.56930273823447"/>
      <point x="163.19837077065773" y="-21.750494011372343"/>
      <point x="335.6132596685083" y="-21.750494011372343" type="curve" smooth="yes"/>
      <point x="460.9528975279268" y="-21.750494011372343"/>
      <point x="543.7186756462474" y="62.81610678711135"/>
      <point x="584.5767229906843" y="140.30124611848208" type="curve"/>
      <point x="584.5767229906843" y="80.5703512521676" type="line" smooth="yes"/>
      <point x="584.5767229906843" y="9.540871879662863"/>
      <point x="604.0290760979151" y="-21.642255111505424"/>
      <point x="695.56869782635" y="-21.642255111505424" type="curve" smooth="yes"/>
      <point x="768.1951849013993" y="-21.642255111505424"/>
      <point x="877.3497600516192" y="-2.1836109206758882"/>
      <point x="916.8671210227044" y="8.479251522361576" type="curve"/>
      <point x="916.8671210227044" y="108.1465499858854" type="line"/>
      <point x="833.454611444933" y="108.1465499858854" type="line"/>
      <point x="833.454611444933" y="728.8143323789168" type="line" smooth="yes"/>
      <point x="833.454611444933" y="976.8865588579264"/>
      <point x="765.9933459692704" y="1119.2824535226034"/>
      <point x="501.9436625398233" y="1119.2824535226034" type="curve" smooth="yes"/>
      <point x="308.75839819332987" y="1119.2824535226034"/>
      <point x="132.34213816187443" y="1025.0502480138725"/>
      <point x="78.33185465983789" y="974.3731499778198" type="curve"/>
      <point x="125.09485018348994" y="868.7996531838529" type="line"/>
      <point x="174.4856635883373" y="901.2460781546155"/>
      <point x="293.8403839174094" y="945.4260596039843"/>
      <point x="408.1559462838247" y="945.4260596039843" type="curve" smooth="yes"/>
      <point x="552.998709521313" y="945.4260596039843"/>
      <point x="572.4488042908416" y="871.2079687058919"/>
      <point x="572.4024277130297" y="736.2618865185304" type="curve" smooth="yes"/>
      <point x="572.356051135218" y="674.5458321571157" type="line"/>
      <point x="274.5202242206718" y="671.2383756099529"/>
      <point x="27.865951526394323" y="555.0819050691615"/>
    </contour>
    <contour>
      <point x="429.44340041134006" y="138.93797636810905" type="curve" smooth="yes"/>
      <point x="358.679235391378" y="138.93797636810905"/>
      <point x="302.8094124289229" y="202.4486026535468"/>
      <point x="302.8094124289229" y="325.31878856313267" type="curve" smooth="yes"/>
      <point x="302.8094124289229" y="461.51389280961405"/>
      <point x="392.1792152276485" y="560.7125055450256"/>
      <point x="572.356051135218" y="563.330362543856" type="curve"/>
      <point x="572.356051135218" y="225.6348751865145" type="line"/>
      <point x="539.7331935314756" y="179.93926684679596"/>
      <point x="485.65612775739004" y="138.93797636810905"/>
    </contour>
  </outline>
</glyph>
<glyph name="b" format="2">
  <advance width="1046.0810178650643"/>
  <unicode hex="0062"/>
  <anchor x="479.18147356535064" y="-2.1712707182320443" name="bottom"/>
  <anchor x="691.3595192966891" y="1110.7237569060774" name="top"/>
  <outline>
    <contour>
      <point x="-14.141791345727306" y="1495.1099729806024" type="line"/>
      <point x="106.7469048675243" y="1468.9517683590757" type="line"/>
      <point x="106.7469048675243" y="54.0" type="line"/>
      <point x="130.36230189135784" y="33.6343912570069"/>
      <point x="262.3091503004395" y="-22.984393273379844"/>
      <point x="483.3714158970843" y="-22.382143001169496" type="curve" smooth="yes"/>
      <point x="813.1394926805663" y="-21.779892728959148"/>
      <point x="993.379239424124" y="267.76081784086784"/>
      <point x="993.6091059402348" y="611.4053312900754" type="curve" smooth="yes"/>
      <point x="993.8389724563456" y="963.2835423639957"/>
      <point x="842.0903335080857" y="1123.7786829051902"/>
      <point x="647.587087147639" y="1123.7786829051902" type="curve" smooth="yes"/>
      <point x="501.0893253216115" y="1123.7786829051902"/>
      <point x="413.0141952655563" y="1044.3947251683671"/>
      <point x="376.8503447997742" y="988.1206194297697" type="curve"/>
      <point x="376.8503447997742" y="1604.5516393112068" type="line"/>
      <point x="327.7793684719926" y="1638.1162237367423" type="line"/>
      <point x="317.7301286445941" y="1638.1162237367423" type="line"/>
      <point x="-14.141791345727306" y="1586.5376860104045" type="line"/>
    </contour>
    <contour>
      <point x="531.6929870548856" y="967.3743598015889" type="curve" smooth="yes"/>
      <point x="625.7410170585152" y="967.3743598015889"/>
      <point x="699.2901963947252" y="857.6830664999799"/>
      <point x="699.7499294269468" y="559.0917449691495" type="curve" smooth="yes"/>
      <point x="700.2096624591684" y="248.84465862805985"/>
      <point x="616.7496874621932" y="92.95580110497238"/>
      <point x="490.2978182844699" y="92.49606807275075" type="curve" smooth="yes"/>
      <point x="440.58132032100656" y="92.26620155663993"/>
      <point x="392.8881316288261" y="114.66044279549946"/>
      <point x="376.2480945275638" y="146.76291486873413" type="curve"/>
      <point x="376.8503447997742" y="871.0343993224985" type="line"/>
      <point x="394.2337782796306" y="907.9650764205346"/>
      <point x="445.980562164778" y="967.3743598015889"/>
    </contour>
  </outline>
</glyph>
<glyph name="c" format="2">
  <advance width="856.871153768601"/>
  <unicode hex="0063"/>
  <anchor x="467.75242972940276" y="0.0" name="bottom"/>
  <anchor x="501.2342622091382" y="1110.7237569060774" name="top"/>
  <outline>
    <contour>
      <point x="47.324716699600756" y="538.6616526192685" type="curve" smooth="yes"/>
      <point x="47.7844497318224" y="216.45771665927327"/>
      <point x="171.0701294511433" y="-22.0"/>
      <point x="476.57926362059925" y="-22.0" type="curve" smooth="yes"/>
      <point x="640.0002822922128" y="-22.0"/>
      <point x="772.5028834133161" y="67.00213735532525"/>
      <point x="815.9934669516474" y="127.61313868613138" type="curve"/>
      <point x="774.3194741299351" y="220.78106222526918" type="line"/>
      <point x="721.6702826954873" y="181.3579465257894"/>
      <point x="648.4541678428842" y="140.7896923014881"/>
      <point x="547.0198411098116" y="140.7896923014881" type="curve" smooth="yes"/>
      <point x="409.1626809694721" y="140.7896923014881"/>
      <point x="328.2815259910473" y="297.134895350244"/>
      <point x="329.34350929547924" y="595.6474976811711" type="curve" smooth="yes"/>
      <point x="330.1756260838004" y="881.0416985925717"/>
      <point x="399.90055248618785" y="1005.95745453079"/>
      <point x="502.5760777513409" y="1005.95745453079" type="curve" smooth="yes"/>
      <point x="541.7862241400169" y="1005.95745453079"/>
      <point x="583.4808242932613" y="987.8567165382909"/>
      <point x="591.478807920313" y="944.6261241279187" type="curve" smooth="yes"/>
      <point x="632.1221922006695" y="731.3821833286285" type="line"/>
      <point x="798.065653103198" y="731.3821833286285" type="line"/>
      <point x="809.1651812719281" y="1062.0541194499335" type="line"/>
      <point x="755.4064201314675" y="1074.163890793241"/>
      <point x="690.3957736823003" y="1122.5688994636448"/>
      <point x="534.3607694479172" y="1122.5688994636448" type="curve" smooth="yes"/>
      <point x="238.9239827398476" y="1122.5688994636448"/>
      <point x="46.86498366737912" y="906.521272734605"/>
    </contour>
  </outline>
</glyph>
<glyph name="e" format="2">
  <advance width="932.8193329838288"/>
  <unicode hex="0065"/>
  <anchor x="480.51986127354115" y="-1.4134371093277416" name="bottom"/>
  <anchor x="590.0433520183893" y="20.0" name="ogonek"/>
  <anchor x="509.2565229664878" y="1110.0" name="top"/>
  <outline>
    <contour>
      <point x="503.7992902367222" y="-22.243013267734" type="curve" smooth="yes"/>
      <point x="666.9911279590273" y="-22.243013267734"/>
      <point x="817.413114489656" y="62.69036577005282"/>
      <point x="868.8153808928499" y="131.58789369681816" type="curve"/>
      <point x="825.6580634754205" y="229.5693833931524" type="line"/>
      <point x="775.3485905553092" y="186.43807718675646"/>
      <point x="675.4987700125015" y="142.44957051256202"/>
      <point x="583.3589547122635" y="142.44957051256202" type="curve" smooth="yes"/>
      <point x="427.95874500947696" y="142.44957051256202"/>
      <point x="342.74226720974315" y="281.0921079162802"/>
      <point x="331.7032302294632" y="534.4502157519056" type="curve"/>
      <point x="873.443440738799" y="534.4502157519056" type="line"/>
      <point x="881.9993144331976" y="580.1653425817639"/>
      <point x="887.8192120014519" y="634.7307335564786"/>
      <point x="887.7728354236401" y="726.0976731056177" type="curve"/>
      <point x="882.7913860547648" y="981.8246562084124"/>
      <point x="748.7640037101263" y="1123.1764326329799"/>
      <point x="514.780013711336" y="1123.1764326329799" type="curve" smooth="yes"/>
      <point x="236.91865951526395" y="1123.1764326329799"/>
      <point x="48.10073799249909" y="905.0902528531677"/>
      <point x="48.10073799249909" y="549.1504617494053" type="curve" smooth="yes"/>
      <point x="48.10073799249909" y="213.61805863612534"/>
      <point x="183.36064846554018" y="-22.243013267734"/>
    </contour>
    <contour>
      <point x="329.883332661209" y="644.3089083356857" type="line"/>
      <point x="335.18445779731417" y="934.2817679558011"/>
      <point x="402.41065451465903" y="1007.9868129209179"/>
      <point x="496.1637698108642" y="1007.9868129209179" type="curve" smooth="yes"/>
      <point x="586.4511432834618" y="1007.9868129209179"/>
      <point x="622.1719159575756" y="904.6737105294995"/>
      <point x="622.1719159575756" y="735.9582610799694" type="curve" smooth="yes"/>
      <point x="622.1719159575756" y="708.0908980925112"/>
      <point x="621.1719159575756" y="675.5968060652499"/>
      <point x="620.3431866758077" y="646.2483768197765" type="curve"/>
    </contour>
  </outline>
</glyph>
<glyph name="f" format="2">
  <advance width="697.2133725853934"/>
  <unicode hex="0066"/>
  <anchor x="337.1864741702625" y="1559.7883211678832" name="top"/>
  <outline>
    <contour>
      <point x="188.1030366576602" y="125.40976731056176" type="line"/>
      <point x="59.71399766100738" y="104.72024841714725" type="line"/>
      <point x="59.71399766100738" y="0.0" type="line"/>
      <point x="627.3884340847683" y="0.0" type="line"/>
      <point x="627.3884340847683" y="104.72024841714725" type="line"/>
      <point x="459.51663507682383" y="124.2550308505061" type="line"/>
      <point x="459.63814171069083" y="950.631971609469" type="line"/>
      <point x="660.0051215872887" y="950.631971609469" type="line"/>
      <point x="660.0051215872887" y="1092.974513045933" type="line"/>
      <point x="459.63814171069083" y="1092.974513045933" type="line"/>
      <point x="459.56301165463566" y="1286.6264064201314" type="line" smooth="yes"/>
      <point x="459.6093882324475" y="1407.7140783159252"/>
      <point x="486.4331169093035" y="1465.7553333064484"/>
      <point x="584.1904665887002" y="1465.7553333064484" type="curve" smooth="yes"/>
      <point x="650.1102149453563" y="1465.7553333064484"/>
      <point x="713.2880187119409" y="1445.9988708311487"/>
      <point x="747.6503206032988" y="1419.4572730572245" type="curve"/>
      <point x="748.252570875509" y="1650.0785982175262" type="line"/>
      <point x="733.4448521998628" y="1657.2386175747065"/>
      <point x="698.1365084486026" y="1667.16159212808"/>
      <point x="635.3835947896924" y="1667.16159212808" type="curve" smooth="yes"/>
      <point x="401.9870952131306" y="1667.16159212808"/>
      <point x="188.1030366576602" y="1461.510384320684"/>
      <point x="188.1030366576602" y="1185.580997701335" type="curve" smooth="yes"/>
      <point x="188.1030366576602" y="1090.1292495059886" type="line"/>
      <point x="53.686050731943375" y="1048.59914505787" type="line"/>
      <point x="53.686050731943375" y="950.631971609469" type="line"/>
      <point x="188.1030366576602" y="950.631971609469" type="line"/>
    </contour>
  </outline>
</glyph>
<glyph name="g" format="2">
  <advance width="1093.8202201879258"/>
  <unicode hex="0067"/>
  <anchor x="543.7045207081502" y="0.0" name="bottom"/>
  <anchor x="544.612614429165" y="1111.2045005444206" name="top"/>
  <outline>
    <contour>
      <point x="494.8158648223575" y="-529.3704883655281" type="curve"/>
      <point x="782.8195749485825" y="-529.3704883655281"/>
      <point x="1059.4836875428482" y="-362.7441626003146"/>
      <point x="1059.4836875428482" y="-105.73400008065491" type="curve" smooth="yes"/>
      <point x="1059.4836875428482" y="82.08819615276042"/>
      <point x="937.5125620034682" y="182.4907448481671"/>
      <point x="703.8383272170021" y="182.4907448481671" type="curve" smooth="yes"/>
      <point x="505.47195225228853" y="182.4907448481671" type="line" smooth="yes"/>
      <point x="361.01290478686934" y="182.4907448481671"/>
      <point x="309.1432431342501" y="213.3795620437956"/>
      <point x="309.1432431342501" y="296.7503327015365" type="curve" smooth="yes"/>
      <point x="309.1432431342501" y="336.46933096745573"/>
      <point x="324.2572085332903" y="366.5651893374199"/>
      <point x="351.4141630035891" y="394.6121708271162" type="curve"/>
      <point x="392.95688994636447" y="385.2583377021414"/>
      <point x="441.53103197967494" y="380.17873129814086"/>
      <point x="493.0307698511917" y="380.17873129814086" type="curve" smooth="yes"/>
      <point x="762.9303948058234" y="380.17873129814086"/>
      <point x="937.2803968221963" y="536.6618542565633"/>
      <point x="937.2803968221963" y="773.9141831673186" type="curve" smooth="yes"/>
      <point x="937.2803968221963" y="827.7198451425576"/>
      <point x="920.9854014598541" y="877.4708634108965"/>
      <point x="902.7576319716094" y="912.710892446667" type="curve"/>
      <point x="1076.8779287817076" y="912.7572690244788" type="line"/>
      <point x="1076.9243053595194" y="1120.590676291487" type="line"/>
      <point x="1016.9516473766988" y="1120.590676291487" type="line" smooth="yes"/>
      <point x="937.2348267935637" y="1120.590676291487"/>
      <point x="860.2401903456064" y="1068.1561075936606"/>
      <point x="833.4472315199419" y="1027.369157559382" type="curve"/>
      <point x="767.2052264386821" y="1089.122837440013"/>
      <point x="663.2460378271564" y="1121.707222647901"/>
      <point x="518.6301165463565" y="1121.707222647901" type="curve" smooth="yes"/>
      <point x="280.1729241440497" y="1121.707222647901"/>
      <point x="72.04520708150179" y="985.5527281525991"/>
      <point x="72.04520708150179" y="749.3638746622576" type="curve" smooth="yes"/>
      <point x="72.04520708150179" y="596.0400048392951"/>
      <point x="139.02714037988463" y="478.106908093721"/>
      <point x="276.6387466225753" y="419.2715651086825" type="curve"/>
      <point x="188.59031334435616" y="374.97104488446183"/>
      <point x="124.2250272210348" y="288.0362140581522"/>
      <point x="124.27140379884663" y="197.09226922611606" type="curve" smooth="yes"/>
      <point x="124.31778037665846" y="120.70633544380368"/>
      <point x="153.95192966891156" y="62.65967657377909"/>
      <point x="213.83215711578012" y="24.506311247328302" type="curve"/>
      <point x="116.65463564140823" y="-10.772351494132355"/>
      <point x="35.47308142113965" y="-96.24640077428722"/>
      <point x="35.47308142113965" y="-219.60164536032585" type="curve" smooth="yes"/>
      <point x="35.47308142113965" y="-422.6195910795661"/>
      <point x="215.48376819776587" y="-529.3704883655281"/>
    </contour>
    <contour>
      <point x="522.1173932330524" y="-405.6644755413961" type="curve"/>
      <point x="355.7185949913296" y="-405.6644755413961"/>
      <point x="272.8425616001936" y="-320.9946364479574"/>
      <point x="272.8425616001936" y="-177.90031052143405" type="curve" smooth="yes"/>
      <point x="272.8425616001936" y="-102.18373190305279"/>
      <point x="296.91119893535506" y="-49.421704238415934"/>
      <point x="324.83006008791386" y="-12.134088801064646" type="curve"/>
      <point x="353.9270072992701" y="-19.55543009234988"/>
      <point x="389.27801750211717" y="-22.377223051175548"/>
      <point x="426.35730128644593" y="-22.377223051175548" type="curve" smooth="yes"/>
      <point x="622.4064604589265" y="-22.377223051175548" type="line" smooth="yes"/>
      <point x="758.2849538250595" y="-22.377223051175548"/>
      <point x="802.408355849498" y="-71.22962455135702"/>
      <point x="802.408355849498" y="-176.8142517239989" type="curve" smooth="yes"/>
      <point x="802.408355849498" y="-328.9187401701819"/>
      <point x="661.2389805218373" y="-405.6644755413961"/>
    </contour>
    <contour>
      <point x="509.4329152720087" y="493.0111303786748" type="curve" smooth="yes"/>
      <point x="390.49130943259263" y="493.0111303786748"/>
      <point x="334.30709360003226" y="597.6200750090737"/>
      <point x="334.30709360003226" y="761.1490099608824" type="curve" smooth="yes"/>
      <point x="334.30709360003226" y="932.3232649110779"/>
      <point x="404.0138323184256" y="1012.3668185667622"/>
      <point x="509.39698350606926" y="1012.3668185667622" type="curve" smooth="yes"/>
      <point x="615.5660362140582" y="1012.3668185667622"/>
      <point x="678.8175182481751" y="929.264991732871"/>
      <point x="678.8175182481751" y="754.5786183812559" type="curve" smooth="yes"/>
      <point x="678.8175182481751" y="587.4129531798202"/>
      <point x="623.201596967375" y="493.0111303786748"/>
    </contour>
  </outline>
</glyph>
<glyph name="h" format="2">
  <advance width="1117.7134734040408"/>
  <unicode hex="0068"/>
  <anchor x="579.828608299391" y="0.0" name="bottom"/>
  <anchor x="241.12642658386093" y="1118.7951365084486" name="center"/>
  <anchor x="256.2301891357826" y="1597.778965197403" name="top"/>
  <outline>
    <contour>
      <point x="141.38028793805702" y="124.34778400612976" type="line"/>
      <point x="47.30128644594104" y="104.72024841714725" type="line"/>
      <point x="47.30128644594104" y="0.0" type="line"/>
      <point x="508.1965963624632" y="0.0" type="line"/>
      <point x="508.1965963624632" y="104.72024841714725" type="line"/>
      <point x="410.50909384199707" y="125.40976731056176" type="line"/>
      <point x="410.50909384199707" y="855.4232770093157" type="line"/>
      <point x="453.6943581884906" y="900.7550913416944"/>
      <point x="516.6663709319677" y="953.3690365770052"/>
      <point x="592.2657579545913" y="953.3690365770052" type="curve" smooth="yes"/>
      <point x="706.7734403355246" y="953.3690365770052"/>
      <point x="722.0783159253135" y="860.4402951969996"/>
      <point x="722.0783159253135" y="680.5804734443683" type="curve" smooth="yes"/>
      <point x="722.0783159253135" y="124.34778400612976" type="line"/>
      <point x="633.8023954510627" y="104.72024841714725" type="line"/>
      <point x="633.8023954510627" y="0.0" type="line"/>
      <point x="1089.0896882687423" y="0.0" type="line"/>
      <point x="1089.0896882687423" y="105.32249868935759" type="line"/>
      <point x="993.0523853691979" y="124.34778400612976" type="line"/>
      <point x="993.0523853691979" y="704.3070129451144" type="line" smooth="yes"/>
      <point x="993.0523853691979" y="972.3128200992055"/>
      <point x="934.0837198048151" y="1118.556559261201"/>
      <point x="719.1618340928338" y="1118.556559261201" type="curve" smooth="yes"/>
      <point x="578.7303706093479" y="1118.556559261201"/>
      <point x="449.40420212122433" y="1026.7443642376095"/>
      <point x="394.72226479009555" y="961.5163527846111" type="curve"/>
      <point x="404.62910835988225" y="1147.1706254788885" type="line"/>
      <point x="404.3162479332177" y="1603.0831148929303" type="line"/>
      <point x="359.32637012541835" y="1638.1162237367423" type="line"/>
      <point x="348.30386740331494" y="1638.1162237367423" type="line"/>
      <point x="18.968584909464855" y="1586.5376860104045" type="line"/>
      <point x="18.968584909464855" y="1492.3285881356617" type="line"/>
      <point x="141.38028793805702" y="1465.3382667258136" type="line"/>
    </contour>
  </outline>
</glyph>
<glyph name="k" format="2">
  <advance width="1086.9839093438725"/>
  <unicode hex="006B"/>
  <anchor x="655.3750856958503" y="0.0" name="bottom"/>
  <anchor x="663.8059442674518" y="1560.087591240876" name="top"/>
  <outline>
    <contour>
      <point x="141.13727467032302" y="126.24188409888293" type="line"/>
      <point x="48.40125821671977" y="105.43085857160142" type="line"/>
      <point x="48.40125821671977" y="0.0" type="line"/>
      <point x="504.78622414001694" y="0.0" type="line"/>
      <point x="504.78622414001694" y="105.55236520546842" type="line"/>
      <point x="403.4114610638384" y="126.24188409888293" type="line"/>
      <point x="403.4114610638384" y="261.9908053393556" type="line"/>
      <point x="397.76081784086784" y="360.4883655280881" type="line"/>
      <point x="537.4122676130178" y="527.6823002782595" type="line"/>
      <point x="722.0015324434407" y="126.12037746501593" type="line"/>
      <point x="627.6366495947091" y="105.55236520546842" type="line"/>
      <point x="627.6366495947091" y="0.0" type="line"/>
      <point x="1118.7453724240836" y="0.0" type="line"/>
      <point x="1118.7453724240836" y="105.64511836109207" type="line"/>
      <point x="1028.1916360850103" y="125.05839416058393" type="line"/>
      <point x="715.7646489494697" y="728.7273863773844" type="line"/>
      <point x="918.3197564221479" y="964.2528128402629" type="line"/>
      <point x="1049.2085736177764" y="991.5519619308787" type="line"/>
      <point x="1049.2085736177764" y="1092.3722627737227" type="line"/>
      <point x="614.601645360326" y="1092.3722627737227" type="line"/>
      <point x="614.601645360326" y="991.5519619308787" type="line"/>
      <point x="756.6810097995726" y="966.4939307174255" type="line"/>
      <point x="398.8150582731782" y="506.9728999475743" type="line"/>
      <point x="404.01371133604874" y="643.9779005524862" type="line"/>
      <point x="404.01371133604874" y="1600.7744888494574" type="line"/>
      <point x="357.823809331774" y="1638.1162237367423" type="line"/>
      <point x="346.758196556035" y="1638.1162237367423" type="line"/>
      <point x="18.968584909464855" y="1586.5376860104045" type="line"/>
      <point x="18.968584909464855" y="1490.6643545590193" type="line"/>
      <point x="141.13727467032302" y="1463.6740331491712" type="line"/>
    </contour>
  </outline>
</glyph>
<glyph name="l" format="2">
  <advance width="552.7391216679437"/>
  <unicode hex="006C"/>
  <anchor x="287.52885429689076" y="0.0" name="bottom"/>
  <anchor x="258.9688268742186" y="1634.0" name="top"/>
  <anchor x="559.1510263338307" y="1110.7237569060774" name="topright"/>
  <outline>
    <contour>
      <point x="148.5776101947816" y="125.53127394442876" type="line"/>
      <point x="36.670524660241156" y="104.72024841714725" type="line"/>
      <point x="36.670524660241156" y="0.0" type="line"/>
      <point x="530.4372706375772" y="0.0" type="line"/>
      <point x="530.4372706375772" y="104.72024841714725" type="line"/>
      <point x="417.3882727749325" y="124.2550308505061" type="line"/>
      <point x="417.3882727749325" y="1603.2046215267974" type="line"/>
      <point x="372.6126547566238" y="1638.1162237367423" type="line"/>
      <point x="361.44965116747994" y="1638.1162237367423" type="line"/>
      <point x="27.34846957293221" y="1586.5376860104045" type="line"/>
      <point x="27.34846957293221" y="1492.3285881356617" type="line"/>
      <point x="148.5776101947816" y="1465.3382667258136" type="line"/>
    </contour>
  </outline>
</glyph>
<glyph name="m" format="2">
  <advance width="1692.7160946888737"/>
  <unicode hex="006D"/>
  <anchor x="856.9853611323949" y="0.0" name="bottom"/>
  <anchor x="856.0884381175141" y="1110.7237569060774" name="top"/>
  <outline>
    <contour>
      <point x="50.2777755373634" y="0.0" type="line"/>
      <point x="511.17308545388556" y="0.0" type="line"/>
      <point x="511.17308545388556" y="104.95011493325805" type="line"/>
      <point x="413.4855829334194" y="125.6396338266726" type="line"/>
      <point x="413.4855829334194" y="856.4984070653709" type="line"/>
      <point x="456.98899060370206" y="901.9701576803644"/>
      <point x="520.1046094285598" y="953.3690365770052"/>
      <point x="596.5296205186111" y="953.3690365770052" type="curve" smooth="yes"/>
      <point x="710.3965399040206" y="953.3690365770052"/>
      <point x="724.2670484332782" y="862.275799491874"/>
      <point x="724.2670484332782" y="678.4729604387627" type="curve" smooth="yes"/>
      <point x="724.2670484332782" y="125.6396338266726" type="line"/>
      <point x="636.5933782312378" y="104.95011493325805" type="line"/>
      <point x="636.5933782312378" y="0.0" type="line"/>
      <point x="1084.5663185062708" y="0.0" type="line"/>
      <point x="1084.5663185062708" y="104.95011493325805" type="line"/>
      <point x="994.6388676049523" y="126.24188409888293" type="line"/>
      <point x="994.6388676049523" y="680.6118078799855" type="line" smooth="yes"/>
      <point x="994.6388676049523" y="754.488567165383"/>
      <point x="992.0580715409122" y="814.5185707948542"/>
      <point x="985.6094688873654" y="860.9243860144372" type="curve"/>
      <point x="1027.4279146670967" y="900.86026535468"/>
      <point x="1088.7792878170746" y="952.2886236238254"/>
      <point x="1165.887083114893" y="952.2886236238254" type="curve" smooth="yes"/>
      <point x="1280.630842440618" y="952.2886236238254"/>
      <point x="1297.636810904545" y="862.1419526555632"/>
      <point x="1297.636810904545" y="677.9320885590998" type="curve" smooth="yes"/>
      <point x="1297.636810904545" y="126.12037746501593" type="line"/>
      <point x="1210.6117675525265" y="105.55236520546842" type="line"/>
      <point x="1210.6117675525265" y="0.0" type="line"/>
      <point x="1664.092309553575" y="0.0" type="line"/>
      <point x="1664.092309553575" y="105.55236520546842" type="line"/>
      <point x="1568.0086300762189" y="126.12037746501593" type="line"/>
      <point x="1568.0086300762189" y="682.0120175827722" type="line" smooth="yes"/>
      <point x="1568.0086300762189" y="972.0809372101463"/>
      <point x="1503.1415493809734" y="1118.3266927450902"/>
      <point x="1290.043795620438" y="1118.3266927450902" type="curve" smooth="yes"/>
      <point x="1144.6744364237609" y="1118.3266927450902"/>
      <point x="1037.4913900875106" y="1032.602734201718"/>
      <point x="967.3410493204823" y="949.9644715086501" type="curve"/>
      <point x="925.2760414566278" y="1057.702060733153"/>
      <point x="868.9569302738236" y="1118.556559261201"/>
      <point x="726.0892446666935" y="1118.556559261201" type="curve" smooth="yes"/>
      <point x="587.3472194217043" y="1118.556559261201"/>
      <point x="466.1860708956729" y="1032.022099447514"/>
      <point x="400.3352421663911" y="952.8901883292334" type="curve"/>
      <point x="401.7485986208009" y="1081.4126708876076" type="line"/>
      <point x="364.83614953421784" y="1118.6291486873413" type="line"/>
      <point x="342.72827358148163" y="1118.6291486873413" type="line"/>
      <point x="39.8500625075614" y="1068.99181352583" type="line"/>
      <point x="39.8500625075614" y="948.2193410493204" type="line"/>
      <point x="144.2352703956124" y="910.7866274146066" type="line"/>
      <point x="144.2352703956124" y="125.6396338266726" type="line"/>
      <point x="50.2777755373634" y="104.95011493325805" type="line"/>
    </contour>
  </outline>
</glyph>
<glyph name="n" format="2">
  <advance width="1120.6435859176515"/>
  <unicode hex="006E"/>
  <anchor x="575.0331894987297" y="0.0" name="bottom"/>
  <anchor x="552.9779812074041" y="1110.7237569060774" name="top"/>
  <outline>
    <contour>
      <point x="144.2352703956124" y="125.28826067669476" type="line"/>
      <point x="50.2777755373634" y="104.72024841714725" type="line"/>
      <point x="50.2777755373634" y="0.0" type="line"/>
      <point x="511.17308545388556" y="0.0" type="line"/>
      <point x="511.17308545388556" y="104.72024841714725" type="line"/>
      <point x="413.4855829334194" y="125.40976731056176" type="line"/>
      <point x="413.4855829334194" y="855.1934104932049" type="line"/>
      <point x="456.62447070210106" y="900.7550913416944"/>
      <point x="519.5964834455781" y="953.3690365770052"/>
      <point x="595.5472436181797" y="953.3690365770052" type="curve" smooth="yes"/>
      <point x="709.7035528491349" y="953.3690365770052"/>
      <point x="725.6106787111345" y="854.4177924748961"/>
      <point x="725.6106787111345" y="675.477436786708" type="curve" smooth="yes"/>
      <point x="725.008428438924" y="124.95003427834013" type="line"/>
      <point x="636.7325079646732" y="104.72024841714725" type="line"/>
      <point x="636.7325079646732" y="0.0" type="line"/>
      <point x="1092.0198007823526" y="0.0" type="line"/>
      <point x="1092.0198007823526" y="105.32249868935759" type="line"/>
      <point x="995.9824978828084" y="124.95003427834013" type="line"/>
      <point x="995.9824978828084" y="725.3393958946647" type="line" smooth="yes"/>
      <point x="995.9824978828084" y="974.1195709158367"/>
      <point x="937.1353389522927" y="1118.556559261201"/>
      <point x="722.1670766624995" y="1118.556559261201" type="curve" smooth="yes"/>
      <point x="581.6604831229585" y="1118.556559261201"/>
      <point x="466.1860708956729" y="1032.022099447514"/>
      <point x="400.0843650441586" y="952.6603218131227" type="curve"/>
      <point x="401.8701052546679" y="1004.3506472557165" type="line"/>
      <point x="401.8701052546679" y="1081.1696576198735" type="line"/>
      <point x="359.3817397265799" y="1118.6291486873413" type="line"/>
      <point x="344.18260273420174" y="1118.6291486873413" type="line"/>
      <point x="39.8500625075614" y="1068.7488002580958" type="line"/>
      <point x="39.8500625075614" y="949.4238415937411" type="line"/>
      <point x="144.2352703956124" y="911.9911279590273" type="line"/>
    </contour>
  </outline>
</glyph>
<glyph name="o" format="2">
  <advance width="1021.2755575271202"/>
  <unicode hex="006F"/>
  <anchor x="510.660967052466" y="0.0" name="bottom"/>
  <anchor x="510.660967052466" y="548.5594628382466" name="center"/>
  <anchor x="561.4975601887325" y="10.0" name="ogonek"/>
  <anchor x="510.73609710852116" y="1111.2045005444206" name="top"/>
  <anchor x="707.9024075493004" y="1093.5767633181433" name="topright"/>
  <outline>
    <contour>
      <point x="47.324716699600756" y="539.6847199257976" type="curve" smooth="yes"/>
      <point x="47.324716699600756" y="182.5883372988668"/>
      <point x="197.61414687260555" y="-22.243013267734"/>
      <point x="496.47779973383876" y="-22.243013267734" type="curve" smooth="yes"/>
      <point x="763.417994112191" y="-22.243013267734"/>
      <point x="973.9508408275195" y="162.80816227769486"/>
      <point x="973.9508408275195" y="563.4963100375046" type="curve" smooth="yes"/>
      <point x="973.9508408275195" y="920.0262531757874"/>
      <point x="823.985401459854" y="1123.043795620438"/>
      <point x="523.6108803484292" y="1123.043795620438" type="curve" smooth="yes"/>
      <point x="257.5793039480583" y="1123.043795620438"/>
      <point x="47.324716699600756" y="931.4858652256321"/>
    </contour>
    <contour>
      <point x="514.0360930757753" y="93.8968423599629" type="curve" smooth="yes"/>
      <point x="388.2966084607009" y="93.8968423599629"/>
      <point x="339.078961164657" y="251.58894221075127"/>
      <point x="339.078961164657" y="564.8063072145824" type="curve" smooth="yes"/>
      <point x="339.078961164657" y="890.224946566117"/>
      <point x="399.1226358027181" y="1006.903939992741"/>
      <point x="511.79287817074646" y="1006.903939992741" type="curve" smooth="yes"/>
      <point x="637.4663467354922" y="1006.903939992741"/>
      <point x="680.0253256442311" y="847.8063475420414"/>
      <point x="680.0253256442311" y="535.7227083921441" type="curve" smooth="yes"/>
      <point x="680.0253256442311" y="210.2132112755575"/>
      <point x="626.3387103278624" y="93.8968423599629"/>
    </contour>
  </outline>
</glyph>
<glyph name="p" format="2">
  <advance width="1070.3800056458442"/>
  <unicode hex="0070"/>
  <anchor x="604.1733274186394" y="1111.4475138121547" name="top"/>
  <outline>
    <contour>
      <point x="1017.9080937210147" y="611.3139492680566" type="curve" smooth="yes"/>
      <point x="1017.8617171432028" y="964.3455256684276"/>
      <point x="866.1130781949429" y="1123.7786829051902"/>
      <point x="671.6385853127393" y="1123.7786829051902" type="curve" smooth="yes"/>
      <point x="525.1120700084688" y="1123.7786829051902"/>
      <point x="426.5190547243618" y="1044.3947251683671"/>
      <point x="381.2570875509134" y="957.158002984232" type="curve"/>
      <point x="381.2570875509134" y="1081.2447876759288" type="line"/>
      <point x="335.83014074283176" y="1118.6291486873413" type="line"/>
      <point x="322.616042263177" y="1118.6291486873413" type="line"/>
      <point x="5.949348711537685" y="1068.3895632536194" type="line"/>
      <point x="5.949348711537685" y="947.7596080170988" type="line"/>
      <point x="131.23139895955157" y="910.9291446545952" type="line"/>
      <point x="131.35290559341857" y="-352.84623139895956" type="line"/>
      <point x="10.182280114529982" y="-378.6709682622898" type="line"/>
      <point x="10.182280114529982" y="-479.86506432229703" type="line"/>
      <point x="576.8040892043392" y="-479.86506432229703" type="line"/>
      <point x="576.8040892043392" y="-378.6709682622898" type="line"/>
      <point x="400.95797878775653" y="-352.84623139895956" type="line"/>
      <point x="400.95797878775653" y="-162.8950276243094" type="line"/>
      <point x="395.7817881195306" y="2.520708150179456" type="line"/>
      <point x="423.16998023954505" y="-10.352099044239223"/>
      <point x="466.7713836351171" y="-22.382143001169496"/>
      <point x="511.1876436665725" y="-22.382143001169496" type="curve" smooth="yes"/>
      <point x="836.5809977013349" y="-22.382143001169496"/>
      <point x="1017.9544702988264" y="269.56281001734084"/>
    </contour>
    <contour>
      <point x="556.0671048917208" y="967.3743598015889" type="curve" smooth="yes"/>
      <point x="650.0433923458482" y="967.3743598015889"/>
      <point x="724.1240472637819" y="858.1018268338913"/>
      <point x="724.1704238415938" y="559.0342380126629" type="curve" smooth="yes"/>
      <point x="724.2168004194057" y="249.98890994878414"/>
      <point x="640.9115618824858" y="92.49606807275075"/>
      <point x="515.245432915272" y="92.49606807275075" type="curve" smooth="yes"/>
      <point x="464.8339315239747" y="92.49606807275075"/>
      <point x="416.88212283744" y="115.35004234383192"/>
      <point x="400.83647215388953" y="146.30765818445778" type="curve"/>
      <point x="401.1957091583659" y="871.708392144211" type="line"/>
      <point x="419.1813929104327" y="907.6478606283017"/>
      <point x="470.65193370165747" y="967.3743598015889"/>
    </contour>
  </outline>
</glyph>
<glyph name="q" format="2">
  <advance width="1059.4160180667018"/>
  <unicode hex="0071"/>
  <outline>
    <contour>
      <point x="470.58414324313424" y="-479.86506432229703" type="line"/>
      <point x="1073.265959591886" y="-479.86506432229703" type="line"/>
      <point x="1073.265959591886" y="-380.4845344194862" type="line"/>
      <point x="941.8261483243941" y="-354.22543049562444" type="line"/>
      <point x="941.8261483243941" y="1081.7373069322903" type="line"/>
      <point x="898.1449772149856" y="1115.0162922934226" type="line"/>
      <point x="884.3005605516796" y="1115.0162922934226" type="line"/>
      <point x="786.3360487155704" y="1081.1450981973628" type="line"/>
      <point x="730.2749929426947" y="1099.9257974755012"/>
      <point x="647.7948542162358" y="1123.2228092107916"/>
      <point x="565.4696535871274" y="1123.2228092107916" type="curve" smooth="yes"/>
      <point x="232.75601887325078" y="1123.2228092107916"/>
      <point x="55.0200427471065" y="855.0235512360366"/>
      <point x="55.0200427471065" y="525.4978424809452" type="curve" smooth="yes"/>
      <point x="55.0200427471065" y="140.05480501673588"/>
      <point x="205.18102996330202" y="-22.028753478243335"/>
      <point x="405.3533895229262" y="-22.028753478243335" type="curve" smooth="yes"/>
      <point x="532.2047425091745" y="-22.028753478243335"/>
      <point x="616.5595031657056" y="41.709319675767226"/>
      <point x="679.2156309230955" y="111.80856555228455" type="curve"/>
      <point x="670.7831592531354" y="-46.0" type="line"/>
      <point x="670.7831592531354" y="-354.22543049562444" type="line"/>
      <point x="470.58414324313424" y="-380.4845344194862" type="line"/>
    </contour>
    <contour>
      <point x="515.6473363713353" y="132.73637940073397" type="curve" smooth="yes"/>
      <point x="402.39791103762553" y="132.73637940073397"/>
      <point x="347.3023349598742" y="255.64475541396138"/>
      <point x="347.3023349598742" y="552.5353066903255" type="curve" smooth="yes"/>
      <point x="347.3023349598742" y="879.6199540266967"/>
      <point x="436.0180667016171" y="1008.2348671210228"/>
      <point x="555.5981368713958" y="1008.2348671210228" type="curve" smooth="yes"/>
      <point x="604.21740533129" y="1008.2348671210228"/>
      <point x="650.5847884824777" y="983.5416381013832"/>
      <point x="668.9974190426261" y="956.1063031818367" type="curve"/>
      <point x="669.5996693148364" y="220.79961285639394" type="line"/>
      <point x="639.9181352582974" y="182.76678630479495"/>
      <point x="595.6458845828124" y="132.73637940073397"/>
    </contour>
  </outline>
</glyph>
<glyph name="r" format="2">
  <advance width="778.5726499173288"/>
  <unicode hex="0072"/>
  <anchor x="326.60511352179697" y="0.0" name="bottom"/>
  <anchor x="467.523732709602" y="1110.6022502722103" name="top"/>
  <outline>
    <contour>
      <point x="44.18348993829899" y="0.0" type="line"/>
      <point x="603.0919869339033" y="0.0" type="line"/>
      <point x="603.0919869339033" y="104.03064886881478" type="line"/>
      <point x="419.57623906117675" y="124.84167439609632" type="line"/>
      <point x="415.84123079404765" y="768.538331249748" type="line"/>
      <point x="459.09940718635323" y="806.1400975924507"/>
      <point x="518.188369560834" y="850.9880630721457"/>
      <point x="634.4504173892004" y="850.9880630721457" type="curve" smooth="yes"/>
      <point x="698.5012703149575" y="850.9880630721457"/>
      <point x="737.6365286123322" y="836.7375892245029"/>
      <point x="758.9142234947776" y="818.7283945638585" type="curve"/>
      <point x="758.9142234947776" y="1099.3449207565432" type="line"/>
      <point x="745.296366495947" y="1105.516191474775"/>
      <point x="724.082630963423" y="1111.3516957696495"/>
      <point x="693.8767592853975" y="1111.3516957696495" type="curve" smooth="yes"/>
      <point x="504.4366253982337" y="1111.3516957696495"/>
      <point x="413.396136629431" y="927.4233173367746"/>
      <point x="391.6361253377425" y="860.4569907650118" type="curve"/>
      <point x="385.87046820179864" y="860.7352502318829" type="line"/>
      <point x="391.84510223010847" y="1034.4201717949752" type="line"/>
      <point x="391.8914788079203" y="1080.3191111828046" type="line"/>
      <point x="341.20675888212287" y="1118.6291486873413" type="line"/>
      <point x="329.49469693914585" y="1118.6291486873413" type="line"/>
      <point x="39.7397265798282" y="1068.99181352583" type="line"/>
      <point x="39.7397265798282" y="947.6381013832319" type="line"/>
      <point x="149.14784046457234" y="910.3268943823849" type="line"/>
      <point x="149.14784046457234" y="123.65818445779732" type="line"/>
      <point x="44.18348993829899" y="104.49038190103641" type="line"/>
    </contour>
  </outline>
</glyph>
<glyph name="s" format="2">
  <advance width="884.669476146308"/>
  <unicode hex="0073"/>
  <anchor x="438.53603258458685" y="-6.392305520829133" name="bottom"/>
  <anchor x="462.6934709843933" y="1110.7237569060774" name="top"/>
  <outline>
    <contour>
      <point x="230.66866959712868" y="318.20917852966085" type="line"/>
      <point x="75.46485461951042" y="318.20917852966085" type="line"/>
      <point x="74.49280154857442" y="55.864177118199784" type="line"/>
      <point x="139.1261039641892" y="35.77053675847885"/>
      <point x="260.91648183247975" y="-22.364519901601"/>
      <point x="436.1671169899585" y="-22.364519901601" type="curve" smooth="yes"/>
      <point x="714.8170343186675" y="-22.364519901601"/>
      <point x="829.9335806750818" y="130.55268782514017"/>
      <point x="829.9335806750818" y="302.5509134169456" type="curve" smooth="yes"/>
      <point x="829.9335806750818" y="500.74279146670966"/>
      <point x="680.8174779207162" y="579.358470782756"/>
      <point x="536.8942210751301" y="653.0956970601283" type="curve" smooth="yes"/>
      <point x="423.4165826511271" y="711.3837157720693"/>
      <point x="307.6943581884905" y="761.874984877203"/>
      <point x="307.6943581884905" y="883.4009355970481" type="curve" smooth="yes"/>
      <point x="307.6943581884905" y="964.1720772674114"/>
      <point x="365.37016574585635" y="1013.3583901278381"/>
      <point x="453.84816711698994" y="1013.1285236117272" type="curve" smooth="yes"/>
      <point x="520.5616405210308" y="1012.8986570956164"/>
      <point x="573.1414283985965" y="978.032826551599"/>
      <point x="585.024277130298" y="947.839456385853" type="curve"/>
      <point x="624.7004476347945" y="801.9469290639996" type="line"/>
      <point x="772.6711295721257" y="801.9469290639996" type="line"/>
      <point x="774.0077025446627" y="1061.5048191313465" type="line"/>
      <point x="716.4978424809453" y="1071.0661370327055"/>
      <point x="625.8853490341572" y="1119.979352341009"/>
      <point x="452.83191515102635" y="1119.979352341009" type="curve" smooth="yes"/>
      <point x="215.49917328709117" y="1119.979352341009"/>
      <point x="73.79767713836351" y="994.4504980441183"/>
      <point x="73.79767713836351" y="814.2301084808646" type="curve" smooth="yes"/>
      <point x="73.79767713836351" y="639.1467516231802"/>
      <point x="167.38387708190507" y="543.6866153163688"/>
      <point x="306.6776626204783" y="468.37899745937005" type="curve" smooth="yes"/>
      <point x="456.3460902528531" y="386.85917651328793"/>
      <point x="585.129935072791" y="332.3079001492116"/>
      <point x="585.129935072791" y="225.81550187522686" type="curve" smooth="yes"/>
      <point x="585.129935072791" y="142.53538734524338"/>
      <point x="534.8540952534581" y="86.50393192724927"/>
      <point x="435.46832278098157" y="86.50393192724927" type="curve" smooth="yes"/>
      <point x="359.8624833649232" y="86.50393192724927"/>
      <point x="286.08880106464494" y="125.64556196314072"/>
      <point x="272.4820341170303" y="159.42630156873815" type="curve"/>
    </contour>
  </outline>
</glyph>
<glyph name="t" format="2">
  <advance width="660.4584022260757"/>
  <unicode hex="0074"/>
  <anchor x="347.464128725249" y="0.0" name="bottom"/>
  <anchor x="266.79316046295924" y="572.6423357664233" name="center"/>
  <anchor x="302.0854538855507" y="1369.2039359599953" name="top"/>
  <anchor x="549.0541194499335" y="1110.7237569060774" name="topright"/>
  <outline>
    <contour>
      <point x="334.27938863572206" y="-18.78654675968867" type="curve" smooth="yes"/>
      <point x="469.5567608984958" y="-18.78654675968867"/>
      <point x="600.9780618623221" y="39.83675444610235"/>
      <point x="658.0369399524136" y="90.43860144372303" type="curve"/>
      <point x="623.3942815663185" y="190.74609831834496" type="line"/>
      <point x="589.4900189539057" y="173.38387708190507"/>
      <point x="532.3714158970844" y="154.1657458563536"/>
      <point x="483.3412912852361" y="154.1657458563536" type="curve" smooth="yes"/>
      <point x="404.33967818687745" y="154.1657458563536"/>
      <point x="397.6443521393717" y="194.85268379239426"/>
      <point x="397.6443521393717" y="376.8318344961084" type="curve" smooth="yes"/>
      <point x="397.6443521393717" y="952.0789208371981" type="line"/>
      <point x="609.1878049764085" y="952.0789208371981" type="line"/>
      <point x="609.1878049764085" y="1092.974513045933" type="line"/>
      <point x="395.51945799895145" y="1092.974513045933" type="line"/>
      <point x="387.5818445779732" y="1394.5801508246964" type="line"/>
      <point x="237.3047142799532" y="1394.5801508246964" type="line"/>
      <point x="221.96789934266243" y="1336.1680848489736"/>
      <point x="200.25240956567325" y="1244.464128725249"/>
      <point x="181.95963221357422" y="1195.6602008307457" type="curve" smooth="yes"/>
      <point x="166.56543130217364" y="1156.2547485582934"/>
      <point x="149.86518530467396" y="1119.0476670564988"/>
      <point x="125.34992136145502" y="1098.8486107190386" type="curve" smooth="yes"/>
      <point x="98.94612251482035" y="1077.1235230068155"/>
      <point x="54.290841634068634" y="1068.5124410210913"/>
      <point x="13.293664556196314" y="1051.9796346332216" type="curve"/>
      <point x="13.293664556196314" y="952.0789208371981" type="line"/>
      <point x="120.6346332217607" y="952.0789208371981" type="line"/>
      <point x="120.6346332217607" y="219.20784772351493" type="line" smooth="yes"/>
      <point x="120.6346332217607" y="64.15368794612252"/>
      <point x="177.09392265193372" y="-18.78654675968867"/>
    </contour>
  </outline>
</glyph>
<glyph name="u" format="2">
  <advance width="1095.1685284510222"/>
  <unicode hex="0075"/>
  <anchor x="547.0865830544017" y="0.0" name="bottom"/>
  <anchor x="920.8413921038835" y="20.0" name="ogonek"/>
  <anchor x="514.0395209097875" y="1111.2045005444206" name="top"/>
  <anchor x="869.9437431947413" y="1097.4538452232125" name="topright"/>
  <outline>
    <contour>
      <point x="839.2519659636247" y="-19.23325402266403" type="curve" smooth="yes"/>
      <point x="933.5113118522402" y="-19.23325402266403"/>
      <point x="1012.5118361092067" y="0.0"/>
      <point x="1057.6813324192442" y="10.645239343468969" type="curve"/>
      <point x="1058.141065451466" y="111.59382183328628" type="line"/>
      <point x="957.8605476468928" y="113.7809412428923" type="line"/>
      <point x="957.8605476468928" y="1089.2635399443482" type="line"/>
      <point x="912.5891438480462" y="1117.4246481429204" type="line"/>
      <point x="902.2291002943904" y="1117.4246481429204" type="line"/>
      <point x="604.3649635036497" y="1079.526273339517" type="line"/>
      <point x="604.3649635036497" y="981.6031778037665" type="line"/>
      <point x="690.1265475662378" y="948.386216074525" type="line"/>
      <point x="690.1265475662378" y="230.83348792192604" type="line"/>
      <point x="657.0221397749729" y="182.20966245916844"/>
      <point x="602.9250715812396" y="140.44311811912732"/>
      <point x="523.7081905069161" y="140.44311811912732" type="curve" smooth="yes"/>
      <point x="423.6595152639432" y="140.44311811912732"/>
      <point x="382.35423639956446" y="206.83502036536677"/>
      <point x="382.35423639956446" y="372.6505625680526" type="curve" smooth="yes"/>
      <point x="382.35423639956446" y="1089.2635399443482" type="line"/>
      <point x="341.5606323345566" y="1117.4246481429204" type="line"/>
      <point x="333.7003266524177" y="1117.4246481429204" type="line"/>
      <point x="17.18361092067589" y="1079.526273339517" type="line"/>
      <point x="17.18361092067589" y="979.1941767149253" type="line"/>
      <point x="114.5738597410977" y="948.386216074525" type="line"/>
      <point x="114.62023631890953" y="368.29773762955193" type="line" smooth="yes"/>
      <point x="114.62023631890953" y="97.37718272371657"/>
      <point x="219.44622333346777" y="-21.664233576642335"/>
      <point x="440.54381578416746" y="-21.664233576642335" type="curve" smooth="yes"/>
      <point x="572.4337621486469" y="-21.664233576642335"/>
      <point x="665.8605879743517" y="58.717788442150265"/>
      <point x="717.1402589022865" y="147.35129249505988" type="curve"/>
      <point x="717.1402589022865" y="90.96168891398153" type="line" smooth="yes"/>
      <point x="717.1402589022865" y="15.580352461991371"/>
      <point x="755.1953058837763" y="-19.23325402266403"/>
    </contour>
  </outline>
</glyph>
<glyph name="v" format="2">
  <advance width="983.2820502480139"/>
  <unicode hex="0076"/>
  <outline>
    <contour>
      <point x="-3.500423438319151" y="991.5023188288906" type="line"/>
      <point x="65.3422994717103" y="963.8710731136831" type="line"/>
      <point x="376.35193773440335" y="-13.313868613138686" type="line"/>
      <point x="612.4621123523008" y="-13.313868613138686" type="line"/>
      <point x="922.0275033270153" y="963.8710731136831" type="line"/>
      <point x="1012.961204984474" y="991.5023188288906" type="line"/>
      <point x="1012.961204984474" y="1092.974513045933" type="line"/>
      <point x="635.1417913457273" y="1092.974513045933" type="line"/>
      <point x="635.1417913457273" y="991.3808121950235" type="line"/>
      <point x="740.0019357180305" y="963.8710731136831" type="line"/>
      <point x="585.7527523490744" y="412.42158325603907" type="line"/>
      <point x="545.7581562285761" y="206.7710610154454" type="line"/>
      <point x="499.9167641246925" y="416.7236359237004" type="line"/>
      <point x="364.4201314675162" y="963.8710731136831" type="line"/>
      <point x="468.3455659958866" y="991.5023188288906" type="line"/>
      <point x="468.3455659958866" y="1092.974513045933" type="line"/>
      <point x="-3.500423438319151" y="1092.974513045933" type="line"/>
    </contour>
  </outline>
</glyph>
<glyph name="w" format="2">
  <advance width="1437.205105456305"/>
  <unicode hex="0077"/>
  <anchor x="734.8361092067589" y="0.0" name="bottom"/>
  <anchor x="773.0637980400855" y="1110.7237569060774" name="top"/>
  <outline>
    <contour>
      <point x="-29.891801427592046" y="991.3992418437714" type="line"/>
      <point x="59.119046658870026" y="966.393716981893" type="line"/>
      <point x="310.6823406057184" y="-13.313868613138686" type="line"/>
      <point x="540.9923377827963" y="-13.313868613138686" type="line"/>
      <point x="688.7222244626366" y="630.7555752712021" type="line"/>
      <point x="730.1723998870831" y="844.5919667701738" type="line"/>
      <point x="767.520103238295" y="630.8770819050692" type="line"/>
      <point x="913.4710247207323" y="-13.313868613138686" type="line"/>
      <point x="1142.5454288825263" y="-13.313868613138686" type="line"/>
      <point x="1404.0833568576843" y="965.331733677461" type="line"/>
      <point x="1502.2788643787555" y="991.3992418437714" type="line"/>
      <point x="1502.2788643787555" y="1094.036496350365" type="line"/>
      <point x="1146.9210388353429" y="1094.036496350365" type="line"/>
      <point x="1146.9210388353429" y="991.5207484776383" type="line"/>
      <point x="1265.7442432552325" y="963.5249828608299" type="line"/>
      <point x="1138.4953421784894" y="419.1027946929064" type="line"/>
      <point x="1095.905109489051" y="204.58918417550512" type="line"/>
      <point x="1058.0302859216843" y="418.68072750735973" type="line"/>
      <point x="921.6222123643989" y="1094.036496350365" type="line"/>
      <point x="668.0441988950276" y="1094.036496350365" type="line"/>
      <point x="515.9022059120055" y="420.0432713634714" type="line"/>
      <point x="478.5520425857967" y="205.04891720772676" type="line"/>
      <point x="438.37750534338835" y="417.61874420292776" type="line"/>
      <point x="324.0540791224745" y="965.1892164374723" type="line"/>
      <point x="442.747308142114" y="991.5207484776383" type="line"/>
      <point x="442.747308142114" y="1094.036496350365" type="line"/>
      <point x="-29.891801427592046" y="1094.036496350365" type="line"/>
    </contour>
  </outline>
</glyph>
<glyph name="x" format="2">
  <advance width="1002.7656974634028"/>
  <unicode hex="0078"/>
  <outline>
    <contour>
      <point x="94.72274871960317" y="126.30588377626327" type="line"/>
      <point x="5.182562406742752" y="103.9345082066379" type="line"/>
      <point x="5.182562406742752" y="0.0" type="line"/>
      <point x="378.7036335040529" y="0.0" type="line"/>
      <point x="378.7036335040529" y="103.9345082066379" type="line"/>
      <point x="252.93265314352544" y="126.30588377626327" type="line"/>
      <point x="381.3737952171634" y="366.8281646973424" type="line"/>
      <point x="424.33846836310846" y="456.4232366818567" type="line"/>
      <point x="475.1222325281284" y="365.18090898092515" type="line"/>
      <point x="602.2912852361172" y="126.30588377626327" type="line"/>
      <point x="509.0441585675687" y="103.9345082066379" type="line"/>
      <point x="509.0441585675687" y="0.0" type="line"/>
      <point x="998.0005242569665" y="0.0" type="line"/>
      <point x="998.0005242569665" y="103.9345082066379" type="line"/>
      <point x="916.991571561076" y="125.24390047183125" type="line"/>
      <point x="641.2583377021414" y="571.5116747993709" type="line"/>
      <point x="900.2844698955518" y="966.5656732669274" type="line"/>
      <point x="983.319514457394" y="991.2777352099043" type="line"/>
      <point x="983.319514457394" y="1092.974513045933" type="line"/>
      <point x="644.5263136669759" y="1092.974513045933" type="line"/>
      <point x="644.5263136669759" y="991.2777352099043" type="line"/>
      <point x="754.6136226156389" y="966.4441666330605" type="line"/>
      <point x="628.2339799169254" y="736.5512360366173" type="line"/>
      <point x="584.5115941444529" y="649.6295519619309" type="line"/>
      <point x="538.9774569504375" y="736.9939912086139" type="line"/>
      <point x="411.4275113925072" y="966.5656732669274" type="line"/>
      <point x="512.3370972295036" y="991.2777352099043" type="line"/>
      <point x="512.3370972295036" y="1092.974513045933" type="line"/>
      <point x="17.6534661450982" y="1092.974513045933" type="line"/>
      <point x="17.6534661450982" y="991.2777352099043" type="line"/>
      <point x="103.30362543856113" y="966.5656732669274" type="line"/>
      <point x="365.0890430293987" y="537.7280316167278" type="line"/>
    </contour>
  </outline>
</glyph>
<glyph name="y" format="2">
  <advance width="986.7283139089405"/>
  <unicode hex="0079"/>
  <anchor x="827.4391660281485" y="0.0" name="bottom"/>
  <anchor x="517.7284348913174" y="1110.7237569060774" name="top"/>
  <outline>
    <contour>
      <point x="235.78755494616286" y="-504.52615235713995" type="curve" smooth="yes"/>
      <point x="435.19760454893736" y="-504.52615235713995"/>
      <point x="522.0528692987054" y="-328.6019679799976"/>
      <point x="617.2387788845425" y="-26.933701657458563" type="curve"/>
      <point x="632.4327136347139" y="22.688147759809656"/>
      <point x="731.5324837681978" y="346.532201475985"/>
      <point x="920.043755292979" y="966.3923458482882" type="curve"/>
      <point x="1009.1138444166634" y="992.4632415211518" type="line"/>
      <point x="1009.1138444166634" y="1093.206395934992" type="line"/>
      <point x="629.5490986812921" y="1093.206395934992" type="line"/>
      <point x="629.5490986812921" y="992.3417348872848" type="line"/>
      <point x="736.0023793200791" y="966.3923458482882" type="line"/>
      <point x="594.363310077832" y="398.7157720692019" type="line"/>
      <point x="550.5209904423922" y="182.46574182360771" type="line"/>
      <point x="504.7925152236158" y="398.0248013872646" type="line"/>
      <point x="362.98423196354395" y="965.7900955760778" type="line"/>
      <point x="471.782473686333" y="992.41686494334" type="line"/>
      <point x="471.782473686333" y="1093.206395934992" type="line"/>
      <point x="-9.502197846513692" y="1093.206395934992" type="line"/>
      <point x="-9.502197846513692" y="992.4632415211518" type="line"/>
      <point x="62.793200790418204" y="965.0991248941405" type="line"/>
      <point x="375.40089526958906" y="0.0" type="line"/>
      <point x="485.7236359237004" y="0.0" type="line"/>
      <point x="429.3506472557164" y="-207.63628664757834"/>
      <point x="356.5816832681373" y="-290.67734000080657"/>
      <point x="231.74158164294067" y="-290.67734000080657" type="curve" smooth="yes"/>
      <point x="192.97269831027944" y="-290.67734000080657"/>
      <point x="144.53333064483607" y="-281.7246844376336"/>
      <point x="126.3436302778562" y="-269.50893253216117" type="curve"/>
      <point x="126.3436302778562" y="-485.94588055006653" type="line"/>
      <point x="148.8600233899262" y="-497.92390208492964"/>
      <point x="191.99967738032825" y="-504.52615235713995"/>
    </contour>
  </outline>
</glyph>
<glyph name="z" format="2">
  <advance width="950.3610114126709"/>
  <unicode hex="007A"/>
  <anchor x="469.52429729402746" y="0.0" name="bottom"/>
  <anchor x="493.2425696656854" y="1111.3260071782877" name="top"/>
  <outline>
    <contour>
      <point x="623.286728233254" y="977.6740734766303" type="line"/>
      <point x="502.13251603016494" y="836.1017461789733" type="line"/>
      <point x="34.47465419203936" y="107.0574666290277" type="line"/>
      <point x="78.65253861354196" y="0.0" type="line"/>
      <point x="872.0824696535872" y="0.0" type="line"/>
      <point x="910.5963221357422" y="360.86119288623627" type="line"/>
      <point x="793.7827963060048" y="377.5682542243013" type="line"/>
      <point x="695.7796507642053" y="140.61305803121346" type="line"/>
      <point x="319.3302415614792" y="113.80408920433923" type="line"/>
      <point x="434.1674799370892" y="254.7459773359681" type="line"/>
      <point x="904.6493930717426" y="990.2280114529983" type="line"/>
      <point x="863.6891559462839" y="1092.974513045933" type="line"/>
      <point x="106.57510989232568" y="1092.974513045933" type="line"/>
      <point x="104.87401701818769" y="754.4054522724522" type="line"/>
      <point x="227.80255676089848" y="754.4054522724522" type="line"/>
      <point x="277.53252409565675" y="958.3553252409566" type="line"/>
    </contour>
  </outline>
</glyph>
<glyph name="braceleft" format="2">
  <advance width="1023.5583739968546"/>
  <unicode hex="007B"/>
  <outline>
    <contour>
      <point x="619.6214058152195" y="-279.23756906077347" type="curve" smooth="yes"/>
      <point x="714.8201798604671" y="-279.23756906077347"/>
      <point x="794.9848772028874" y="-258.364519901601"/>
      <point x="877.884703794814" y="-238.0" type="curve"/>
      <point x="877.884703794814" y="-136.53691978868412" type="line"/>
      <point x="845.0435536556841" y="-138.36564907045206"/>
      <point x="776.0487558978909" y="-140.19437835222"/>
      <point x="741.789772956406" y="-140.19437835222" type="curve" smooth="yes"/>
      <point x="640.1839738678067" y="-140.19437835222"/>
      <point x="547.0598862765657" y="-111.11465096584264"/>
      <point x="547.0598862765657" y="21.14606605637779" type="curve" smooth="yes"/>
      <point x="547.0598862765657" y="137.39468484090818"/>
      <point x="623.1793765374845" y="303.58099770133487"/>
      <point x="623.1793765374845" y="438.92402306730656" type="curve" smooth="yes"/>
      <point x="623.1793765374845" y="582.9928217123039"/>
      <point x="483.64648949469694" y="650.8730894866316"/>
      <point x="330.82203492357945" y="672.0" type="curve"/>
      <point x="483.64648949469694" y="694.4031536072911"/>
      <point x="623.1793765374845" y="752.8216719764488"/>
      <point x="623.1793765374845" y="897.0759769326935" type="curve" smooth="yes"/>
      <point x="623.1793765374845" y="1033.86651611082"/>
      <point x="547.0598862765657" y="1204.2240996894786"/>
      <point x="547.0598862765657" y="1319.7489615679317" type="curve" smooth="yes"/>
      <point x="547.0598862765657" y="1449.4571924023069"/>
      <point x="640.00742025245" y="1480.5369197886841"/>
      <point x="740.939226519337" y="1480.5369197886841" type="curve" smooth="yes"/>
      <point x="773.7803766584667" y="1480.5369197886841"/>
      <point x="845.0435536556841" y="1479.8629269669718"/>
      <point x="877.884703794814" y="1478.034197685204" type="curve"/>
      <point x="877.884703794814" y="1576.0" type="line"/>
      <point x="793.5666814534015" y="1596.729039803202"/>
      <point x="715.862725329677" y="1616.6850828729282"/>
      <point x="620.4033149171271" y="1616.6850828729282" type="curve" smooth="yes"/>
      <point x="377.3076581844578" y="1616.6850828729282"/>
      <point x="279.25728918820823" y="1519.828729281768"/>
      <point x="279.25728918820823" y="1353.486187845304" type="curve" smooth="yes"/>
      <point x="279.25728918820823" y="1169.657458563536"/>
      <point x="395.05000604911885" y="1046.5877727144411"/>
      <point x="395.05000604911885" y="885.8075976932694" type="curve" smooth="yes"/>
      <point x="395.05000604911885" y="795.8575634149292"/>
      <point x="365.7583175384119" y="748.0754123482678"/>
      <point x="137.48570391579628" y="748.6278985361132" type="curve"/>
      <point x="137.48570391579628" y="607.2793483082631" type="line"/>
      <point x="365.7583175384119" y="607.8318344961085"/>
      <point x="395.05000604911885" y="539.3166915352663"/>
      <point x="395.05000604911885" y="448.3358874057346" type="curve" smooth="yes"/>
      <point x="395.05000604911885" y="287.67721901842964"/>
      <point x="279.25728918820823" y="166.8950276243094"/>
      <point x="279.25728918820823" y="-16.76243093922652" type="curve" smooth="yes"/>
      <point x="279.25728918820823" y="-181.82872928176795"/>
      <point x="376.96076138242535" y="-279.23756906077347"/>
    </contour>
  </outline>
</glyph>
<glyph name="bar" format="2">
  <advance width="787.4669113199178"/>
  <unicode hex="007C"/>
  <outline>
    <contour>
      <point x="484.16659273299194" y="1738.0" type="line"/>
      <point x="303.5301851030367" y="1738.0" type="line"/>
      <point x="303.5301851030367" y="-182.0" type="line"/>
      <point x="484.16659273299194" y="-182.0" type="line"/>
    </contour>
  </outline>
</glyph>
<glyph name="braceright" format="2">
  <advance width="1023.5583739968546"/>
  <unicode hex="007D"/>
  <outline>
    <contour>
      <point x="403.9369681816349" y="-279.23756906077347" type="curve" smooth="yes"/>
      <point x="646.5976126144292" y="-279.23756906077347"/>
      <point x="744.3010848086462" y="-181.82872928176795"/>
      <point x="744.3010848086462" y="-16.76243093922652" type="curve" smooth="yes"/>
      <point x="744.3010848086462" y="166.8950276243094"/>
      <point x="628.5083679477357" y="287.67721901842964"/>
      <point x="628.5083679477357" y="448.3358874057346" type="curve" smooth="yes"/>
      <point x="628.5083679477357" y="539.3166915352663"/>
      <point x="657.8000564584427" y="607.8318344961085"/>
      <point x="886.0726700810582" y="607.2793483082631" type="curve"/>
      <point x="886.0726700810582" y="748.6278985361132" type="line"/>
      <point x="657.8000564584427" y="748.0754123482678"/>
      <point x="628.5083679477357" y="795.8575634149292"/>
      <point x="628.5083679477357" y="885.8075976932694" type="curve" smooth="yes"/>
      <point x="628.5083679477357" y="1046.5877727144411"/>
      <point x="744.3010848086462" y="1169.657458563536"/>
      <point x="744.3010848086462" y="1353.486187845304" type="curve" smooth="yes"/>
      <point x="744.3010848086462" y="1519.828729281768"/>
      <point x="646.2507158123967" y="1616.6850828729282"/>
      <point x="403.1550590797274" y="1616.6850828729282" type="curve" smooth="yes"/>
      <point x="307.69564866717747" y="1616.6850828729282"/>
      <point x="229.9916925434528" y="1596.729039803202"/>
      <point x="145.67367020204057" y="1576.0" type="curve"/>
      <point x="145.67367020204057" y="1478.034197685204" type="line"/>
      <point x="178.5148203411703" y="1479.8629269669718"/>
      <point x="249.77799733838768" y="1480.5369197886841"/>
      <point x="282.6191474775174" y="1480.5369197886841" type="curve" smooth="yes"/>
      <point x="383.5509537444046" y="1480.5369197886841"/>
      <point x="476.4984877202888" y="1449.4571924023069"/>
      <point x="476.4984877202888" y="1319.7489615679317" type="curve" smooth="yes"/>
      <point x="476.4984877202888" y="1204.2240996894786"/>
      <point x="400.3789974593701" y="1033.86651611082"/>
      <point x="400.3789974593701" y="897.0759769326935" type="curve" smooth="yes"/>
      <point x="400.3789974593701" y="752.8216719764488"/>
      <point x="539.9118845021576" y="694.4031536072911"/>
      <point x="692.736339073275" y="672.0" type="curve"/>
      <point x="539.9118845021576" y="650.8730894866316"/>
      <point x="400.3789974593701" y="582.9928217123039"/>
      <point x="400.3789974593701" y="438.92402306730656" type="curve" smooth="yes"/>
      <point x="400.3789974593701" y="303.58099770133487"/>
      <point x="476.4984877202888" y="137.39468484090818"/>
      <point x="476.4984877202888" y="21.14606605637779" type="curve" smooth="yes"/>
      <point x="476.4984877202888" y="-111.11465096584264"/>
      <point x="383.3744001290479" y="-140.19437835222"/>
      <point x="281.7686010404484" y="-140.19437835222" type="curve" smooth="yes"/>
      <point x="247.50961809896356" y="-140.19437835222"/>
      <point x="178.5148203411703" y="-138.36564907045206"/>
      <point x="145.67367020204057" y="-136.53691978868412" type="curve"/>
      <point x="145.67367020204057" y="-238.0" type="line"/>
      <point x="228.573496793967" y="-258.364519901601"/>
      <point x="308.73819413638745" y="-279.23756906077347"/>
    </contour>
  </outline>
</glyph>
<glyph name="asciitilde" format="2">
  <advance width="1291.3149977819896"/>
  <unicode hex="007E"/>
  <outline>
    <contour>
      <point x="176.41742952776545" y="545.5954349316448" type="curve"/>
      <point x="254.54704198088479" y="450.50195588175984" type="line"/>
      <point x="300.8067104891721" y="507.8157035125217"/>
      <point x="368.9745937008509" y="562.3808525224825"/>
      <point x="457.9087792878171" y="562.3808525224825" type="curve" smooth="yes"/>
      <point x="587.2664435213937" y="562.3808525224825"/>
      <point x="642.6429003508488" y="387.79618502238174"/>
      <point x="816.913820220188" y="387.79618502238174" type="curve" smooth="yes"/>
      <point x="952.94769528572" y="387.79618502238174"/>
      <point x="1068.5764003710126" y="485.2282937452111"/>
      <point x="1114.8975682542243" y="582.8389321288867" type="curve"/>
      <point x="1034.9905230471427" y="679.2501109005121" type="line"/>
      <point x="991.1398556276968" y="618.9251119086987"/>
      <point x="931.334193652458" y="564.8490139936283"/>
      <point x="837.705972496673" y="564.8490139936283" type="curve" smooth="yes"/>
      <point x="719.94769528572" y="564.8490139936283"/>
      <point x="651.6980683147156" y="737.626930677098"/>
      <point x="473.5871274750978" y="737.626930677098" type="curve" smooth="yes"/>
      <point x="336.3673024962697" y="737.626930677098"/>
      <point x="216.18707908214705" y="633.7858208654271"/>
    </contour>
  </outline>
</glyph>
<glyph name="exclamdown" format="2">
  <advance width="532.673226599992"/>
  <unicode hex="00A1"/>
  <outline>
    <contour>
      <point x="116.15219583014074" y="-301.05258700649273" type="line"/>
      <point x="430.46933096745573" y="-301.05258700649273" type="line"/>
      <point x="347.81812316005966" y="988.6420131467515" type="line"/>
      <point x="195.91607855789007" y="988.6420131467515" type="line"/>
    </contour>
    <contour>
      <point x="279.8782514013792" y="1496.0" type="curve" smooth="yes"/>
      <point x="176.9958462717264" y="1496.0"/>
      <point x="100.47723514941323" y="1435.569706012824"/>
      <point x="100.47723514941323" y="1332.70141549381" type="curve" smooth="yes"/>
      <point x="100.47723514941323" y="1256.5206678227205"/>
      <point x="154.4594507400089" y="1184.753276606041"/>
      <point x="253.52647497681173" y="1184.753276606041" type="curve" smooth="yes"/>
      <point x="347.47925152236155" y="1184.753276606041"/>
      <point x="427.85873291123926" y="1251.8643384280356"/>
      <point x="427.85873291123926" y="1348.6541113844414" type="curve" smooth="yes"/>
      <point x="427.85873291123926" y="1436.670363350405"/>
      <point x="355.57882001855063" y="1496.0"/>
    </contour>
  </outline>
</glyph>
<glyph name="cent" format="2">
  <advance width="962.1169093035447"/>
  <unicode hex="00A2"/>
  <outline>
    <contour>
      <point x="102.14509819736259" y="538.1051336855264" type="curve" smooth="yes"/>
      <point x="102.3749647134734" y="247.630640803323"/>
      <point x="205.90434326733072" y="28.217526313666976"/>
      <point x="438.7814251723999" y="-13.730128644594103" type="curve"/>
      <point x="421.325644231157" y="-252.0" type="line"/>
      <point x="557.4152518449812" y="-252.0" type="line"/>
      <point x="574.3771423962576" y="-20.146872605557125" type="line"/>
      <point x="716.9923377827963" y="-6.494293664556196"/>
      <point x="832.8250998104609" y="70.94801790539178"/>
      <point x="873.1863128604267" y="127.6595152639432" type="curve"/>
      <point x="831.5586966165263" y="220.827438803081" type="line"/>
      <point x="778.6756059200711" y="181.0796870589184"/>
      <point x="705.874863894826" y="140.7896923014881"/>
      <point x="604.0251643343953" y="140.7896923014881" type="curve" smooth="yes"/>
      <point x="469.19457998951486" y="140.7896923014881"/>
      <point x="381.9888696213252" y="289.9646731459451"/>
      <point x="383.0508529257571" y="594.2562003468161" type="curve" smooth="yes"/>
      <point x="384.11283623018915" y="881.783723837561"/>
      <point x="456.43807718675646" y="1004.7444045650683"/>
      <point x="559.075291365891" y="1004.7444045650683" type="curve" smooth="yes"/>
      <point x="599.0556922208332" y="1004.7444045650683"/>
      <point x="640.3490341573578" y="987.9091422349477"/>
      <point x="648.3933943622211" y="944.6281405008671" type="curve" smooth="yes"/>
      <point x="688.9904020647658" y="731.3841997015768" type="line"/>
      <point x="854.5144573940396" y="731.3841997015768" type="line"/>
      <point x="865.3841190466588" y="1062.5158688551035" type="line"/>
      <point x="821.8899463644797" y="1072.1039238617575"/>
      <point x="762.6339073274993" y="1105.9007137960236"/>
      <point x="657.3911360245191" y="1118.2834213816188" type="curve"/>
      <point x="674.7009718917611" y="1357.540508932532" type="line"/>
      <point x="537.5980965439369" y="1357.540508932532" type="line"/>
      <point x="520.1169899584627" y="1120.4747751744162" type="line"/>
      <point x="260.5408315522039" y="1092.998991813526"/>
      <point x="101.91523168125177" y="884.8021534863088"/>
    </contour>
  </outline>
</glyph>
<glyph name="sterling" format="2">
  <advance width="1341.649715691414"/>
  <unicode hex="00A3"/>
  <outline>
    <contour>
      <point x="845.3972657982821" y="-14.0" type="curve" smooth="yes"/>
      <point x="1103.3650441585676" y="-14.0"/>
      <point x="1275.5755534943744" y="154.1355002621285"/>
      <point x="1275.5755534943744" y="356.8465943460903" type="curve" smooth="yes"/>
      <point x="1275.5755534943744" y="437.98011856272933"/>
      <point x="1251.3072145824092" y="499.64245674880027"/>
      <point x="1230.8125176432632" y="522.7326289470501" type="curve"/>
      <point x="950.0950114933257" y="522.7326289470501" type="line"/>
      <point x="983.2363189095455" y="487.17909424527164"/>
      <point x="1004.535871274751" y="410.2772512803968"/>
      <point x="1004.535871274751" y="328.7080291970803" type="curve" smooth="yes"/>
      <point x="1004.535871274751" y="203.95523652054683"/>
      <point x="954.541839738678" y="130.64394886478206"/>
      <point x="809.5472032907206" y="130.64394886478206" type="curve" smooth="yes"/>
      <point x="685.3760132274065" y="130.64394886478206"/>
      <point x="594.4139613662943" y="184.3841997015768"/>
      <point x="492.44291648183247" y="203.59418478041698" type="curve"/>
      <point x="566.0621446142678" y="278.02576924627976"/>
      <point x="602.8522401903456" y="373.5988627656571"/>
      <point x="604.1888131628825" y="530.7804169859257" type="curve" smooth="yes"/>
      <point x="604.1888131628825" y="752.7100455700287" type="line"/>
      <point x="845.8100173408073" y="752.7100455700287" type="line"/>
      <point x="845.8100173408073" y="875.0196797999757" type="line"/>
      <point x="604.1888131628825" y="875.0196797999757" type="line"/>
      <point x="604.1888131628825" y="1072.1279590273018" type="line" smooth="yes"/>
      <point x="604.1888131628825" y="1277.4611444932855"/>
      <point x="667.9375730935194" y="1374.8239303141509"/>
      <point x="771.2607573496795" y="1374.8239303141509" type="curve" smooth="yes"/>
      <point x="882.7510989232569" y="1374.8239303141509"/>
      <point x="982.9783441545347" y="1258.2674517078678"/>
      <point x="1006.2941888131629" y="1203.4354559019234" type="curve"/>
      <point x="1129.0581925232893" y="1382.7031092470863" type="line"/>
      <point x="1062.0577892486995" y="1447.1794571924022"/>
      <point x="931.1569544702987" y="1504.171270718232"/>
      <point x="790.2405129652781" y="1504.171270718232" type="curve" smooth="yes"/>
      <point x="515.7225470823083" y="1504.171270718232"/>
      <point x="313.5388958341735" y="1296.5259507198452"/>
      <point x="313.5388958341735" y="998.7237569060774" type="curve" smooth="yes"/>
      <point x="313.5388958341735" y="875.0196797999757" type="line"/>
      <point x="156.37686010404485" y="875.0196797999757" type="line"/>
      <point x="156.37686010404485" y="752.7100455700287" type="line"/>
      <point x="313.5388958341735" y="752.7100455700287" type="line"/>
      <point x="313.5388958341735" y="469.23692382143" type="line" smooth="yes"/>
      <point x="313.5388958341735" y="372.29713271766747"/>
      <point x="299.2132112755575" y="272.4863894825987"/>
      <point x="282.69335000201636" y="240.1858289309191" type="curve"/>
      <point x="184.41746985522443" y="240.30560148405047"/>
      <point x="67.09303544783643" y="178.74867927571884"/>
      <point x="67.09303544783643" y="90.12582167197645" type="curve" smooth="yes"/>
      <point x="67.09303544783643" y="31.19320885590999"/>
      <point x="118.88962374480785" y="0.0"/>
      <point x="179.98052183731903" y="0.0" type="curve" smooth="yes"/>
      <point x="253.154333185466" y="0.0"/>
      <point x="314.78344154534824" y="46.73589547122636"/>
      <point x="367.59813687139575" y="106.03339113602452" type="curve"/>
      <point x="490.852966084607" y="103.07190385933782"/>
      <point x="631.8877283542364" y="-14.0"/>
    </contour>
  </outline>
</glyph>
<glyph name="currency" format="2">
  <advance width="1495.1355405895872"/>
  <unicode hex="00A4"/>
  <outline>
    <contour>
      <point x="391.93636326975036" y="486.2280114529984" type="curve"/>
      <point x="177.63249586643545" y="272.6479009557608" type="line"/>
      <point x="287.2209541476792" y="161.05944267451707" type="line"/>
      <point x="505.52482155099403" y="380.2583377021414" type="line"/>
      <point x="574.375367988063" y="336.18744202927775"/>
      <point x="656.319474129935" y="311.1436464088398"/>
      <point x="744.8107835625276" y="311.1436464088398" type="curve" smooth="yes"/>
      <point x="831.1255393797636" y="311.1436464088398"/>
      <point x="913.4953421784893" y="338.54139613662943"/>
      <point x="982.7051256200347" y="384.3142315602694" type="curve"/>
      <point x="1202.4565068355041" y="163.11533653264507" type="line"/>
      <point x="1315.20413759729" y="277.8629672944308" type="line"/>
      <point x="1097.4527563818203" y="493.4430777916684" type="line"/>
      <point x="1153.8331249747953" y="570.470177844094"/>
      <point x="1187.83840787192" y="664.4807436383434"/>
      <point x="1187.83840787192" y="764.7237569060774" type="curve" smooth="yes"/>
      <point x="1187.83840787192" y="862.1267895309917"/>
      <point x="1155.7116183409282" y="950.6233818607091"/>
      <point x="1102.4807033108843" y="1023.5289752792677" type="curve"/>
      <point x="1318.232084526354" y="1237.1090857765053" type="line"/>
      <point x="1208.2791063435093" y="1347.6145501471951" type="line"/>
      <point x="986.5277251280397" y="1129.3106827438803" type="line"/>
      <point x="916.2243819816913" y="1173.9340646045891"/>
      <point x="832.8160664596523" y="1198.8563535911603"/>
      <point x="744.8107835625276" y="1198.8563535911603" type="curve" smooth="yes"/>
      <point x="657.048513933137" y="1198.8563535911603"/>
      <point x="576.197967496068" y="1172.6631044077913"/>
      <point x="509.46892769286603" y="1127.1332822518852" type="curve"/>
      <point x="287.71754647739647" y="1348.8846634673548" type="line"/>
      <point x="176.41742952776545" y="1234.1370327055693" type="line"/>
      <point x="394.72129693108036" y="1015.280679114409" type="line"/>
      <point x="340.29116425374036" y="939.3418558696617"/>
      <point x="309.44061781667136" y="844.1267895309917"/>
      <point x="309.44061781667136" y="745.2762430939226" type="curve" smooth="yes"/>
      <point x="309.44061781667136" y="647.513973464532"/>
      <point x="338.65568415534136" y="558.2936242287374"/>
    </contour>
    <contour>
      <point x="745.170020567004" y="509.1381215469613" type="curve" smooth="yes"/>
      <point x="620.8053796830262" y="509.1381215469613"/>
      <point x="516.6893575835786" y="616.3591160220994"/>
      <point x="516.6893575835786" y="748.7237569060774" type="curve" smooth="yes"/>
      <point x="516.6893575835786" y="880.707182320442"/>
      <point x="595.1479211194902" y="1000.8618784530387"/>
      <point x="741.170020567004" y="1000.8618784530387" type="curve" smooth="yes"/>
      <point x="864.0871476388272" y="1000.8618784530387"/>
      <point x="974.2031697382748" y="894.6685082872929"/>
      <point x="974.2031697382748" y="751.2762430939226" type="curve" smooth="yes"/>
      <point x="974.2031697382748" y="619.4640883977901"/>
      <point x="899.7446062023631" y="509.1381215469613"/>
    </contour>
  </outline>
</glyph>
